<svg xmlns="http://www.w3.org/2000/svg" fill="none" viewBox="0 0 600 520"><rect width="233.58" height="233.58" fill="#F2F6FF" rx="21.11" transform="rotate(-112.31 298.16 29.66)"/><rect width="166.51" height="166.51" fill="#FAFAFA" rx="21.11" transform="rotate(74.62 -118.06 256.48)"/><rect width="166.51" height="166.51" fill="#E5EEFF" rx="21.11" transform="rotate(-127.21 240.54 41)"/><g filter="url(#a)"><path fill="#fff" fill-rule="evenodd" d="m144.41 406.35 5.9-2.1-15.85-8.71 4.62 17.48 3.46-5.21 4.15 5.3 1.87-1.46z" clip-rule="evenodd"/><path stroke="#000" stroke-opacity=".8" stroke-width=".88" d="m145.14 406.56 5.32-1.9.92-.32-.86-.48-15.84-8.71-.9-.5.26 1 4.62 17.48.25.95.54-.81 3.12-4.71 3.77 4.82.27.35.35-.27 1.87-1.47.34-.27-.27-.34z"/></g><path fill="#F4F4F4" stroke="#E8E8E8" d="M66.5 106.5h463v324h-463z"/><path fill="#fff" d="M67 107h462v31H67z"/><path fill="#FF46FB" fill-rule="evenodd" d="M83.04 125.8h4.73v4.73h-4.73z" clip-rule="evenodd"/><path fill="#CA41FC" fill-rule="evenodd" d="M78.31 125.8h4.73v4.73h-4.73z" clip-rule="evenodd"/><path fill="#8B48FE" fill-rule="evenodd" d="M73.58 125.8h4.73v4.73h-4.73z" clip-rule="evenodd"/><path fill="#81E650" fill-rule="evenodd" d="M87.77 121.07h-4.73v4.73h4.73z" clip-rule="evenodd"/><path fill="#00D267" fill-rule="evenodd" d="M83.04 121.07H78.3v4.73h4.73v-4.73z" clip-rule="evenodd"/><path fill="#00C0FF" fill-rule="evenodd" d="M78.31 121.07h-4.73v4.73h4.73z" clip-rule="evenodd"/><path fill="#FFD200" fill-rule="evenodd" d="M83.04 116.34h4.73v4.73h-4.73z" clip-rule="evenodd"/><path fill="#FF8E00" fill-rule="evenodd" d="M78.31 116.34h4.73v4.73h-4.73z" clip-rule="evenodd"/><path fill="#FF5400" fill-rule="evenodd" d="M73.58 116.34h4.73v4.73h-4.73z" clip-rule="evenodd"/><path fill="#212121" d="M91.6 120.58v-4.97h2.85v.53h-2.23v1.56h1.88v.54h-1.88v1.8h2.3v.54zm5.1.09c-.46 0-.83-.17-1.1-.5a2.2 2.2 0 0 1-.42-1.43c0-.3.05-.56.13-.8.1-.24.21-.44.36-.61.14-.17.31-.3.5-.39a1.4 1.4 0 0 1 1.16-.02c.16.08.32.18.48.31l-.03-.63v-1.41h.63v5.39h-.52l-.05-.44h-.02a2.4 2.4 0 0 1-.51.38q-.285.15-.6.15zm.14-.53q.255 0 .48-.12c.16-.08.3-.21.46-.38v-1.92c-.16-.15-.31-.24-.46-.3a1.1 1.1 0 0 0-.43-.09.9.9 0 0 0-.42.1 1 1 0 0 0-.33.3c-.1.11-.18.26-.23.43-.06.17-.08.37-.08.58 0 .44.08.79.26 1.03.18.25.43.37.75.37m2.8.44v-3.68h.63v3.68zm.32-4.44a.45.45 0 0 1-.3-.11.38.38 0 0 1-.13-.29c0-.12.04-.22.12-.29a.45.45 0 0 1 .31-.11c.12 0 .22.04.3.11.1.07.13.17.13.3 0 .1-.04.2-.13.28a.43.43 0 0 1-.3.11m2.7 4.53c-.2 0-.36-.03-.5-.1a.9.9 0 0 1-.32-.24 1 1 0 0 1-.17-.39 2.2 2.2 0 0 1-.06-.5v-2.03h-.54v-.47l.57-.04.08-1.03h.52v1.03h1v.5h-1v2.05c0 .22.04.4.12.53q.135.18.45.18l.21-.03.2-.07.13.47a2.7 2.7 0 0 1-.69.14"/><path fill="#757575" d="M91.6 129.46v-4.34h1.08c.67 0 1.18.18 1.52.55.35.37.53.9.53 1.6a3 3 0 0 1-.14.92 1.74 1.74 0 0 1-1.03 1.12c-.24.1-.53.15-.86.15zm.54-.45h.5c.5 0 .88-.16 1.13-.46.26-.3.39-.73.39-1.28s-.13-.98-.39-1.27c-.25-.29-.63-.43-1.13-.43h-.5V129zm4.72.52c-.2 0-.39-.03-.57-.1a1.4 1.4 0 0 1-.47-.33 1.68 1.68 0 0 1-.45-1.24 2 2 0 0 1 .12-.72c.08-.21.2-.39.33-.54a1.4 1.4 0 0 1 1.04-.44 1.42 1.42 0 0 1 1.36.98c.09.2.13.45.13.72 0 .26-.04.5-.13.7a1.4 1.4 0 0 1-.8.85c-.18.09-.36.13-.56.13zm0-.44a.88.88 0 0 0 .67-.34c.08-.11.14-.24.19-.4a1.8 1.8 0 0 0 0-1c-.05-.15-.1-.28-.2-.4a.8.8 0 0 0-.28-.25.8.8 0 0 0-.38-.09.85.85 0 0 0-.67.34c-.09.12-.15.25-.2.4-.04.15-.06.32-.06.5 0 .19.02.36.07.5.04.16.1.29.18.4.09.1.19.19.3.25.12.06.24.09.38.09m3.6.44a1.38 1.38 0 0 1-1.4-.97 2.13 2.13 0 0 1 .02-1.42c.09-.21.2-.39.34-.54.14-.14.3-.25.49-.33.19-.07.39-.1.6-.1.2 0 .39.03.54.1.15.08.28.17.4.27l-.28.36q-.15-.135-.3-.21a.74.74 0 0 0-.35-.08.9.9 0 0 0-.4.1.9.9 0 0 0-.32.25 1.3 1.3 0 0 0-.2.4c-.06.14-.08.31-.08.5 0 .18.02.35.07.5s.12.28.2.39c.09.1.2.19.32.25s.25.09.4.09.29-.04.41-.1c.13-.06.24-.14.34-.23l.24.37q-.21.18-.48.3c-.18.07-.36.1-.56.1m2.69 0c-.34 0-.6-.1-.75-.31a1.6 1.6 0 0 1-.23-.94v-2.04h.54v1.97c0 .3.05.52.14.66.1.13.25.2.47.2a.8.8 0 0 0 .44-.13q.195-.135.42-.42v-2.28h.54v3.22h-.44l-.05-.5h-.02q-.225.255-.48.42c-.16.1-.36.16-.58.16zm2.65-.07v-3.22h.46l.05.46h.02c.14-.15.29-.28.45-.38a1 1 0 0 1 .54-.16c.25 0 .44.06.58.17.14.1.24.25.31.45.17-.19.34-.34.5-.45a1 1 0 0 1 .56-.17c.33 0 .57.1.73.32.17.21.25.52.25.94v2.04h-.55v-1.97c0-.3-.04-.52-.14-.65-.1-.14-.25-.2-.45-.2-.24 0-.51.16-.8.49v2.33h-.55v-1.97c0-.3-.05-.52-.15-.65-.1-.14-.24-.2-.45-.2-.24 0-.51.16-.8.49v2.33h-.55zm6.8.07c-.22 0-.42-.03-.61-.1a1.5 1.5 0 0 1-.5-.34 1.6 1.6 0 0 1-.31-.53c-.09-.2-.12-.44-.12-.7a1.7 1.7 0 0 1 .44-1.24 1.4 1.4 0 0 1 1-.46c.2 0 .38.04.54.1.16.08.3.18.4.31.11.13.2.3.25.48a2.1 2.1 0 0 1 .07.93h-2.17c.02.34.13.62.32.82.2.2.44.3.75.3.16 0 .3-.02.43-.07s.25-.1.37-.18l.2.35c-.15.1-.3.17-.47.24-.18.06-.37.1-.6.1zm-1.02-1.94h1.73c0-.33-.08-.57-.22-.74a.7.7 0 0 0-.58-.26.9.9 0 0 0-.33.07c-.1.04-.2.1-.28.2-.08.08-.15.18-.2.3-.06.13-.1.27-.12.43m3 1.87v-3.22h.45l.04.46h.02c.16-.15.32-.28.48-.38.18-.1.38-.16.6-.16.34 0 .59.1.74.32.16.21.24.52.24.94v2.04h-.54v-1.97c0-.3-.05-.52-.15-.65-.1-.14-.25-.2-.46-.2a.8.8 0 0 0-.45.12c-.12.08-.27.2-.43.37v2.33h-.55zm4.62.07a1.1 1.1 0 0 1-.43-.07.8.8 0 0 1-.29-.22.9.9 0 0 1-.15-.34 2 2 0 0 1-.04-.44v-1.78h-.48v-.4l.5-.04.07-.9h.45v.9h.87v.44h-.87v1.79c0 .2.04.35.11.46.08.1.2.16.4.16a1.3 1.3 0 0 0 .36-.09l.1.42a2.3 2.3 0 0 1-.6.12zm1.56 0a.4.4 0 0 1-.29-.1.4.4 0 0 1-.1-.3.4.4 0 0 1 .1-.3.4.4 0 0 1 .29-.13c.1 0 .2.04.27.12a.4.4 0 0 1 .12.3.4.4 0 0 1-.12.3.37.37 0 0 1-.27.12zm1.36 1.28v-4.57h.45l.05.37h.02c.14-.12.3-.23.47-.32.18-.09.36-.13.55-.13.2 0 .4.04.55.12.16.08.3.19.4.33s.18.31.24.52a2.45 2.45 0 0 1-.03 1.4c-.07.22-.18.4-.3.55a1.28 1.28 0 0 1-.97.46c-.16 0-.3-.04-.46-.1-.14-.07-.29-.16-.44-.28l.01.57v1.08zm1.33-1.73q.195 0 .36-.09a.9.9 0 0 0 .3-.25c.08-.1.14-.24.19-.4a2.3 2.3 0 0 0 .03-1.02 1 1 0 0 0-.16-.37.67.67 0 0 0-.26-.25.88.88 0 0 0-.8.03c-.14.08-.29.18-.45.32v1.7c.15.12.29.2.43.26.13.04.25.07.36.07m3.44.45c-.4 0-.73-.14-.97-.43-.24-.3-.36-.7-.36-1.24 0-.27.04-.5.11-.7.08-.22.18-.4.31-.54.13-.15.28-.26.44-.34a1.23 1.23 0 0 1 1.02-.02c.13.07.27.16.41.27l-.02-.55v-1.23h.55v4.7h-.45l-.05-.37h-.02c-.13.12-.28.23-.44.32a1.1 1.1 0 0 1-.53.13m.12-.45a.9.9 0 0 0 .42-.1c.13-.08.26-.2.4-.34v-1.68a1.3 1.3 0 0 0-.4-.26 1 1 0 0 0-.38-.08.8.8 0 0 0-.37.09.9.9 0 0 0-.29.25c-.08.1-.15.23-.2.39-.05.15-.07.31-.07.5 0 .39.08.69.23.9q.24.33.66.33m2.54.38v-2.78h-.44v-.4l.44-.04v-.5c0-.34.08-.6.23-.79s.39-.28.71-.28c.1 0 .2 0 .29.03l.25.07-.12.42a.9.9 0 0 0-.37-.08c-.3 0-.45.2-.45.62v.51h.69v.44h-.69v2.78z"/><g filter="url(#b)"><path fill="#fff" d="M112.41 192.4h362.94v233.91H112.41z"/></g><path fill="#F4F4F4" d="M143.4 228.75a2.84 2.84 0 0 1 2.84-2.84H372.6a2.85 2.85 0 0 1 0 5.69H146.24a2.84 2.84 0 0 1-2.85-2.85zm0 15.18a2.84 2.84 0 0 1 2.84-2.84h251.65a2.85 2.85 0 1 1 0 5.69H146.24a2.84 2.84 0 0 1-2.85-2.85zm0 16.44a2.84 2.84 0 0 1 2.84-2.84h182.1a2.85 2.85 0 0 1 0 5.69h-182.1a2.84 2.84 0 0 1-2.85-2.85zm0 48.06a2.84 2.84 0 0 1 2.84-2.85h295.91a2.85 2.85 0 1 1 0 5.7H146.24a2.84 2.84 0 0 1-2.85-2.85zm0 13.27a2.84 2.84 0 0 1 2.84-2.84H429.5a2.84 2.84 0 1 1 0 5.69H146.24a2.84 2.84 0 0 1-2.85-2.85zm0 13.28a2.84 2.84 0 0 1 2.84-2.84h289.59a2.85 2.85 0 1 1 0 5.69h-289.6a2.84 2.84 0 0 1-2.84-2.85zm0 13.28a2.84 2.84 0 0 1 2.84-2.84h289.59a2.85 2.85 0 1 1 0 5.69h-289.6a2.84 2.84 0 0 1-2.84-2.85zm0 13.28a2.84 2.84 0 0 1 2.84-2.85h270.62a2.85 2.85 0 1 1 0 5.7H146.24a2.84 2.84 0 0 1-2.85-2.85zm0 13.27a2.84 2.84 0 0 1 2.84-2.84h270.62a2.85 2.85 0 1 1 0 5.69H146.24a2.84 2.84 0 0 1-2.85-2.85zm0 13.29a2.84 2.84 0 0 1 2.84-2.85h270.62a2.84 2.84 0 1 1 0 5.69H146.24a2.84 2.84 0 0 1-2.85-2.85zm0 13.27a2.84 2.84 0 0 1 2.84-2.84h270.62a2.85 2.85 0 1 1 0 5.69H146.24a2.84 2.84 0 0 1-2.85-2.85z"/><path fill="#fff" d="M67 139h462v31H67z"/><g clip-path="url(#c)"><path fill="#1A1A1A" fill-rule="evenodd" d="m467.44 155.72-.33.36-2.03-2.13 2.03-2.13.33.36-1.46 1.53h3.83a2.84 2.84 0 1 1 0 5.68h-2.37v-.47h2.37a2.37 2.37 0 0 0 0-4.73h-3.83z" clip-rule="evenodd"/><path fill="#E8E8E8" d="M461.3 146.15h15.13v-.95h-15.14v.95zm16.55 1.41v15.14h.94v-15.13h-.94zm-1.42 16.56h-15.14v.94h15.14zm-16.56-1.42v-15.13h-.94v15.13zm1.42 1.42c-.78 0-1.42-.64-1.42-1.42h-.94c0 1.3 1.06 2.36 2.36 2.36zm16.56-1.42c0 .78-.64 1.42-1.42 1.42v.94c1.3 0 2.36-1.06 2.36-2.36zm-1.42-16.55c.78 0 1.42.63 1.42 1.41h.94c0-1.3-1.06-2.36-2.36-2.36zm-15.14-.95a2.37 2.37 0 0 0-2.36 2.37h.94c0-.79.64-1.42 1.42-1.42z"/><path fill="#1A1A1A" fill-rule="evenodd" d="M494.44 154.19h-3.82a2.36 2.36 0 1 0 0 4.72h2.36v.48h-2.37a2.84 2.84 0 1 1 0-5.68h3.83l-1.46-1.53.34-.36 2.02 2.13-2.02 2.13-.34-.36z" clip-rule="evenodd"/><path fill="#E8E8E8" d="M484 146.15h15.13v-.95h-15.14v.95zm16.55 1.41v15.14h.94v-15.13h-.94zm-1.42 16.56h-15.14v.94h15.14zm-16.56-1.42v-15.13h-.94v15.13zm1.42 1.42c-.78 0-1.42-.64-1.42-1.42h-.94c0 1.3 1.06 2.36 2.36 2.36zm16.56-1.42c0 .78-.64 1.42-1.42 1.42v.94c1.3 0 2.36-1.06 2.36-2.36zm-1.42-16.55c.78 0 1.42.63 1.42 1.41h.94c0-1.3-1.06-2.36-2.36-2.36zm-15.14-.95a2.36 2.36 0 0 0-2.36 2.37h.94c0-.79.64-1.42 1.42-1.42z"/><path fill="#1A1A1A" fill-rule="evenodd" d="m516.08 157.06 2.43 2.43-.37.37-2.43-2.43a3.45 3.45 0 0 1-5.7-2.62 3.46 3.46 0 1 1 6.07 2.25m-2.62.67a2.93 2.93 0 1 0 0-5.85 2.93 2.93 0 0 0 0 5.85" clip-rule="evenodd"/><path fill="#E8E8E8" d="M506.7 146.15h15.13v-.95h-15.14v.95zm16.54 1.41v15.14h.95v-15.13h-.95zm-1.41 16.56h-15.14v.94h15.14zm-16.56-1.42v-15.13h-.94v15.13zm1.42 1.42c-.78 0-1.42-.64-1.42-1.42h-.94c0 1.3 1.06 2.36 2.36 2.36zm16.55-1.42c0 .78-.63 1.42-1.41 1.42v.94c1.3 0 2.36-1.06 2.36-2.36zm-1.41-16.55c.78 0 1.41.63 1.41 1.41h.95c0-1.3-1.06-2.36-2.37-2.36v.95zm-15.14-.95a2.36 2.36 0 0 0-2.36 2.37h.94c0-.79.64-1.42 1.42-1.42z"/></g><g clip-path="url(#d)"><rect width="18.92" height="18.92" x="72.68" y="145.67" fill="#E5EEFF" rx="1.89"/><path fill="#1A1A1A" fill-rule="evenodd" d="m78.83 150.88 1.57 7.24 1.66-1.12 1.73 2.39 1.66-1.12-1.74-2.38 1.66-1.12-6.54-3.9z" clip-rule="evenodd"/><rect width="18.92" height="18.92" x="95.38" y="145.67" fill="#F4F4F4" rx="1.89"/><path fill="#363B3E" d="m109.54 152.36-.03-.07a4.14 4.14 0 0 0-1.84-1.83l-.06-.03a.22.22 0 0 0-.25.04l-6.42 6.42a.2.2 0 0 0-.04.05v.02l-.02.02-.53 1.82-.23.78a.22.22 0 0 0 .27.27l2.6-.76.01-.01h.02v-.01a.2.2 0 0 0 .06-.04l6.42-6.42a.22.22 0 0 0 .04-.25m-6.56 6.16a4.14 4.14 0 0 0-1.53-1.53l5.18-5.19a3.7 3.7 0 0 1 1.54 1.53l-5.2 5.19zm-1.67.35c0-.11-.1-.2-.22-.2l-.25-.01.38-1.3c.58.33 1.06.81 1.39 1.39l-1.3.38zm7.17-5.86a4.14 4.14 0 0 0-1.53-1.52l.6-.6a3.7 3.7 0 0 1 1.53 1.52z"/><path fill="#fff" d="M102.98 158.52a4.14 4.14 0 0 0-1.53-1.53l5.18-5.19a3.7 3.7 0 0 1 1.53 1.53zm-1.67.35c0-.11-.1-.2-.22-.2l-.25-.01.38-1.3a3.7 3.7 0 0 1 1.39 1.39l-1.3.38zm7.17-5.86a4.14 4.14 0 0 0-1.53-1.52l.6-.6a3.7 3.7 0 0 1 1.53 1.52z"/><rect width="28.37" height="18.92" x="118.08" y="145.67" fill="#F4F4F4" rx="1.89"/><path fill="#fff" fill-rule="evenodd" d="m127.15 158.46 4.3-6.38-2.06-1.37-5.54 5.68c.12.85.04 1.6-.24 2.22l1.1.73c.51-.47 1.55-.7 2.44-.88" clip-rule="evenodd"/><path fill="#363B3E" fill-rule="evenodd" d="m127.14 158.46 4.31-6.38-2.06-1.37-5.54 5.68c.12.85.04 1.6-.25 2.22l1.1.73c.52-.47 1.56-.7 2.44-.88m-2.7 1.87h-1.63v-1.55c.46-.63.6-1.48.4-2.55l6.06-6.3 3 1.99-4.74 7.05c-.9.15-2.26.59-2.73 1.02l-.37.34zm.5-5.05 2.9 2.16-.35.5-2.99-2.22z" clip-rule="evenodd"/><path fill="#1A1A1A" fill-rule="evenodd" d="M136.52 154.19h4.73l-2.36 2.36z" clip-rule="evenodd"/><rect width="18.92" height="18.92" x="150.24" y="145.67" fill="#F4F4F4" rx="1.89"/><path fill="#1A1A1A" fill-rule="evenodd" d="M159.7 151.82v6.62h1.89v.47h-4.26v-.47h1.9v-6.62h-2.84v1.42h-.48v-1.9h7.1v1.9h-.48v-1.42h-2.84z" clip-rule="evenodd"/><rect width="28.37" height="18.92" x="172.94" y="145.67" fill="#F4F4F4" rx="1.89"/><path fill="#1A1A1A" fill-rule="evenodd" d="M186.18 151.35h-7.57v7.56h7.57zm-8.04-.47v8.5h8.5v-8.5zm13.24 3.31h4.73l-2.37 2.36z" clip-rule="evenodd"/><rect width="18.92" height="18.92" x="205.09" y="145.67" fill="#F4F4F4" rx="1.89"/><path fill="#1A1A1A" fill-rule="evenodd" d="M218.33 151.35v7.56h-7.56v-7.56zm-5.43 3.91-1.66 1.17v2.01h6.62v-.63l-1.75-1.6-1.37.95zm4.96-3.44h-6.62v4.05l1.72-1.21 1.84 1.9 1.35-.93 1.71 1.56zm-1.42.95a.95.95 0 1 1 0 1.89.95.95 0 0 1 0-1.9z" clip-rule="evenodd"/></g><path fill="#1A1A1A" fill-rule="evenodd" d="m142.55 387.43 9.8 5.84-2.48 1.67 2.6 3.57-2.48 1.67-2.6-3.57-2.48 1.67z" clip-rule="evenodd"/><rect width="63.58" height="61.73" x="386.32" y="224.03" fill="#CDF" rx="30.86"/><path stroke="#05F" stroke-width=".46" d="M385.63 223.34h65.04v63.02h-65.04z"/><path fill="#fff" d="M384 221.71h3.71v3.72H384z"/><path fill="#05F" d="M384 221.71v-.46h-.46v.46zm3.71 0h.47v-.46h-.47zm0 3.72v.46h.47v-.46zm-3.71 0h-.46v.46h.46zm0-3.25h3.71v-.93H384zm3.25-.47v3.72h.93v-3.72zm.46 3.25H384v.93h3.71zm-3.25.47v-3.72h-.92v3.72z"/><path fill="#fff" d="M384 284.29h3.71V288H384z"/><path fill="#05F" d="M384 284.29v-.47h-.46v.47zm3.71 0h.47v-.47h-.47zm0 3.71v.46h.47V288zm-3.71 0h-.46v.46h.46zm0-3.25h3.71v-.93H384zm3.25-.46V288h.93v-3.71zm.46 3.25H384v.92h3.71zm-3.25.46v-3.71h-.92V288z"/><path fill="#fff" d="M416.29 284.29H420V288h-3.71z"/><path fill="#05F" d="M416.29 284.29v-.47h-.47v.47zm3.71 0h.46v-.47H420zm0 3.71v.46h.46V288zm-3.71 0h-.47v.46h.47zm0-3.25H420v-.93h-3.71zm3.25-.46V288h.92v-3.71zm.46 3.25h-3.71v.92H420zm-3.25.46v-3.71h-.93V288z"/><path fill="#fff" d="M416.29 221.71H420v3.72h-3.71z"/><path fill="#05F" d="M416.29 221.71v-.46h-.47v.46zm3.71 0h.46v-.46H420zm0 3.72v.46h.46v-.46zm-3.71 0h-.47v.46h.47zm0-3.25H420v-.93h-3.71zm3.25-.47v3.72h.92v-3.72zm.46 3.25h-3.71v.93H420zm-3.25.47v-3.72h-.93v3.72z"/><path fill="#fff" d="M448.57 253h3.72v3.71h-3.72z"/><path fill="#05F" d="M448.57 253v-.46h-.46v.46zm3.72 0h.46v-.46h-.46zm0 3.71v.47h.46v-.47zm-3.72 0h-.46v.47h.46zm0-3.25h3.72v-.92h-3.72zm3.25-.46v3.71h.93V253zm.47 3.25h-3.72v.93h3.72zm-3.25.46V253h-.93v3.71z"/><path fill="#fff" d="M384 253h3.71v3.71H384z"/><path fill="#05F" d="M384 253v-.46h-.46v.46zm3.71 0h.47v-.46h-.47zm0 3.71v.47h.47v-.47zm-3.71 0h-.46v.47h.46zm0-3.25h3.71v-.92H384zm3.25-.46v3.71h.93V253zm.46 3.25H384v.93h3.71zm-3.25.46V253h-.92v3.71z"/><path fill="#fff" d="M448.57 284.29h3.72V288h-3.72z"/><path fill="#05F" d="M448.57 284.29v-.47h-.46v.47zm3.72 0h.46v-.47h-.46zm0 3.71v.46h.46V288zm-3.72 0h-.46v.46h.46zm0-3.25h3.72v-.93h-3.72zm3.25-.46V288h.93v-3.71zm.47 3.25h-3.72v.92h3.72zm-3.25.46v-3.71h-.93V288z"/><path fill="#fff" d="M448.57 221.71h3.72v3.72h-3.72z"/><path fill="#05F" d="M448.57 221.71v-.46h-.46v.46zm3.72 0h.46v-.46h-.46zm0 3.72v.46h.46v-.46zm-3.72 0h-.46v.46h.46zm0-3.25h3.72v-.93h-3.72zm3.25-.47v3.72h.93v-3.72zm.47 3.25h-3.72v.93h3.72zm-3.25.47v-3.72h-.93v3.72z"/><path stroke="#05F" stroke-width=".46" d="M147 271.84h39.04v26.02H147z"/><path fill="#fff" d="M145.38 270.21h3.71v3.72h-3.71z"/><path fill="#05F" d="M145.38 270.21v-.46h-.47v.46zm3.71 0h.47v-.46h-.47zm0 3.72v.46h.47v-.46zm-3.71 0h-.47v.46h.47zm0-3.25h3.71v-.93h-3.71zm3.25-.47v3.72h.93v-3.72zm.46 3.25h-3.71v.93h3.71zm-3.25.47v-3.72h-.93v3.72z"/><path fill="#fff" d="M145.38 295.79h3.71v3.71h-3.71z"/><path fill="#05F" d="M145.38 295.79v-.47h-.47v.47zm3.71 0h.47v-.47h-.47zm0 3.71v.46h.47v-.46zm-3.71 0h-.47v.46h.47zm0-3.25h3.71v-.93h-3.71zm3.25-.46v3.71h.93v-3.71zm.46 3.25h-3.71v.92h3.71zm-3.25.46v-3.71h-.93v3.71z"/><path fill="#fff" d="M164.67 295.79h3.7v3.71h-3.7z"/><path fill="#05F" d="M164.67 295.79v-.47h-.47v.47zm3.7 0h.47v-.47h-.46v.47zm0 3.71v.46h.47v-.46h-.46zm-3.7 0h-.47v.46h.47zm0-3.25h3.7v-.93h-3.7zm3.25-.46v3.71h.92v-3.71h-.93zm.46 3.25h-3.71v.92h3.7v-.92zm-3.25.46v-3.71h-.93v3.71z"/><path fill="#fff" d="M164.67 270.21h3.7v3.72h-3.7z"/><path fill="#05F" d="M164.67 270.21v-.46h-.47v.46zm3.7 0h.47v-.46h-.46v.46zm0 3.72v.46h.47v-.46h-.46zm-3.7 0h-.47v.46h.47zm0-3.25h3.7v-.93h-3.7zm3.25-.47v3.72h.92v-3.72h-.93zm.46 3.25h-3.71v.93h3.7v-.93zm-3.25.47v-3.72h-.93v3.72z"/><path fill="#fff" d="M183.95 283.5h3.72v3.71h-3.72z"/><path fill="#05F" d="M183.95 283.5v-.46h-.46v.46zm3.72 0h.46v-.46h-.46zm0 3.71v.47h.46v-.47zm-3.72 0h-.46v.47h.46zm0-3.25h3.72v-.92h-3.72zm3.25-.46v3.71h.93v-3.71zm.47 3.25h-3.72v.93h3.72zm-3.25.46v-3.71h-.93v3.71z"/><path fill="#fff" d="M145.38 283.5h3.71v3.71h-3.71z"/><path fill="#05F" d="M145.38 283.5v-.46h-.47v.46zm3.71 0h.47v-.46h-.47zm0 3.71v.47h.47v-.47zm-3.71 0h-.47v.47h.47zm0-3.25h3.71v-.92h-3.71zm3.25-.46v3.71h.93v-3.71zm.46 3.25h-3.71v.93h3.71zm-3.25.46v-3.71h-.93v3.71z"/><path fill="#fff" d="M183.95 295.79h3.72v3.71h-3.72z"/><path fill="#05F" d="M183.95 295.79v-.47h-.46v.47zm3.72 0h.46v-.47h-.46zm0 3.71v.46h.46v-.46zm-3.72 0h-.46v.46h.46zm0-3.25h3.72v-.93h-3.72zm3.25-.46v3.71h.93v-3.71zm.47 3.25h-3.72v.92h3.72zm-3.25.46v-3.71h-.93v3.71z"/><path fill="#fff" d="M183.95 270.21h3.72v3.72h-3.72z"/><path fill="#05F" d="M183.95 270.21v-.46h-.46v.46zm3.72 0h.46v-.46h-.46zm0 3.72v.46h.46v-.46zm-3.72 0h-.46v.46h.46zm0-3.25h3.72v-.93h-3.72zm3.25-.47v3.72h.93v-3.72zm.47 3.25h-3.72v.93h3.72zm-3.25.47v-3.72h-.93v3.72z"/><path fill="#333" d="M156.36 278.38c-.02.47-.02.95-.02 1.43v3.43c0 .48 0 .96.02 1.44l1.02.12v.46h-3.14v-.46l1.03-.12.02-1.42v-1.56h-3.63v1.55c0 .49 0 .96.02 1.43l1.04.12v.46h-3.16v-.46l1.03-.12.02-1.42v-3.44c0-.47 0-.95-.02-1.44l-1.03-.12v-.45h3.16v.45l-1.04.13-.02 1.39v1.4h3.63v-1.4c0-.46 0-.93-.02-1.4l-1.03-.12v-.45h3.14v.45l-1.02.13zm5.1 3.7c.26 0 .44-.05.53-.16a.64.64 0 0 0 .13-.42c0-.15-.03-.3-.1-.44a1.1 1.1 0 0 0-.25-.4 1.15 1.15 0 0 0-.85-.36 1.35 1.35 0 0 0-.95.41c-.13.15-.25.33-.35.56-.1.22-.16.5-.2.81zm-2.05.48c.01.7.18 1.22.5 1.6.34.37.77.55 1.3.55.36 0 .65-.07.9-.22.23-.15.45-.34.65-.58l.27.21q-.3.6-.84.96c-.36.23-.79.35-1.3.35-.38 0-.72-.07-1.03-.2q-.45-.18-.78-.54a2.6 2.6 0 0 1-.5-.88 3.5 3.5 0 0 1 .02-2.3 2.58 2.58 0 0 1 1.37-1.5 2.38 2.38 0 0 1 1.8-.08 1.83 1.83 0 0 1 1.11 1.1 2.33 2.33 0 0 1 .15 1.25l-.06.28zm7.29 2.3v.4h-2.74v-.4l.88-.16a34 34 0 0 0 .02-1.78v-4.78l-.91-.11v-.4l1.74-.5.15.1-.04 1.58v5l.02.9zm3.53 0v.4h-2.74v-.4l.88-.16a39 39 0 0 0 .02-1.78v-4.78l-.91-.11v-.4l1.74-.5.15.1-.04 1.58v5l.02.9zm3.57-4.56c-.5 0-.87.2-1.13.6s-.4.97-.4 1.73c0 .75.14 1.32.4 1.72.26.38.63.57 1.12.57s.86-.19 1.12-.57c.26-.4.39-.97.39-1.72 0-.76-.13-1.33-.4-1.73-.25-.4-.62-.6-1.1-.6m0-.51c.31 0 .63.06.93.19.31.12.59.3.82.54a3.07 3.07 0 0 1 .8 2.1c0 .47-.07.87-.22 1.22a2.38 2.38 0 0 1-1.4 1.4 2.55 2.55 0 0 1-3.29-1.4 3.2 3.2 0 0 1-.2-1.21 2.73 2.73 0 0 1 .8-2.1 2.45 2.45 0 0 1 1.77-.74zm4.88 5.64a.73.73 0 0 1-.72-.72q0-.3.21-.51a.68.68 0 0 1 .51-.22c.2 0 .37.07.5.22.14.14.22.3.22.5s-.08.37-.22.51a.66.66 0 0 1-.5.22m0-7.8c.2 0 .35.06.46.18.12.1.18.29.18.53 0 .2-.03.56-.08 1.07l-.2 1.93-.16 1.51h-.4l-.15-1.51a153 153 0 0 0-.22-1.93c-.05-.5-.07-.86-.07-1.07 0-.24.06-.42.17-.53a.66.66 0 0 1 .47-.17z"/><path stroke="#05F" stroke-width=".46" d="M234.24 355.78h96.04v38.02h-96.04z"/><path fill="#fff" d="M232.62 354.16h3.71v3.71h-3.71z"/><path fill="#05F" d="M232.62 354.16v-.47h-.47v.47zm3.71 0h.46v-.47h-.46zm0 3.71v.47h.46v-.47zm-3.71 0h-.47v.47h.47zm0-3.25h3.71v-.93h-3.71zm3.25-.46v3.71h.92v-3.71zm.46 3.25h-3.71v.93h3.71zm-3.25.46v-3.71h-.93v3.71z"/><path fill="#fff" d="M232.62 391.73h3.71v3.72h-3.71z"/><path fill="#05F" d="M232.62 391.73v-.46h-.47v.46zm3.71 0h.46v-.46h-.46zm0 3.72v.46h.46v-.46zm-3.71 0h-.47v.46h.47zm0-3.25h3.71v-.93h-3.71zm3.25-.47v3.72h.92v-3.72zm.46 3.25h-3.71v.93h3.71zm-3.25.47v-3.72h-.93v3.72z"/><path fill="#fff" d="M279.9 391.73h3.72v3.72h-3.72z"/><path fill="#05F" d="M279.9 391.73v-.46h-.46v.46zm3.72 0h.46v-.46h-.46zm0 3.72v.46h.46v-.46zm-3.72 0h-.46v.46h.46zm0-3.25h3.72v-.93h-3.72zm3.25-.47v3.72h.93v-3.72zm.47 3.25h-3.72v.93h3.72zm-3.25.47v-3.72h-.93v3.72z"/><path fill="#fff" d="M279.9 354.16h3.72v3.71h-3.72z"/><path fill="#05F" d="M279.9 354.16v-.47h-.46v.47zm3.72 0h.46v-.47h-.46zm0 3.71v.47h.46v-.47zm-3.72 0h-.46v.47h.46zm0-3.25h3.72v-.93h-3.72zm3.25-.46v3.71h.93v-3.71zm.47 3.25h-3.72v.93h3.72zm-3.25.46v-3.71h-.93v3.71z"/><path fill="#fff" d="M328.2 373.45h3.7v3.7h-3.7z"/><path fill="#05F" d="M328.2 373.45v-.47h-.47v.47h.46zm3.7 0h.47v-.47h-.47zm0 3.7v.47h.47v-.46h-.47zm-3.7 0h-.47v.47h.46v-.46zm0-3.24h3.7v-.93h-3.7zm3.24-.46v3.7h.93v-3.7zm.46 3.25h-3.7v.92h3.7v-.93zm-3.24.46v-3.71h-.93v3.7h.93z"/><path fill="#fff" d="M232.62 373.45h3.71v3.7h-3.71z"/><path fill="#05F" d="M232.62 373.45v-.47h-.47v.47zm3.71 0h.46v-.47h-.46zm0 3.7v.47h.46v-.46h-.46zm-3.71 0h-.47v.47h.47v-.46zm0-3.24h3.71v-.93h-3.71zm3.25-.46v3.7h.92v-3.7zm.46 3.25h-3.71v.92h3.71v-.93zm-3.25.46v-3.71h-.93v3.7h.93z"/><path fill="#fff" d="M328.2 391.73h3.7v3.72h-3.7z"/><path fill="#05F" d="M328.2 391.73v-.46h-.47v.46h.46zm3.7 0h.47v-.46h-.47zm0 3.72v.46h.47v-.46zm-3.7 0h-.47v.46h.46v-.46zm0-3.25h3.7v-.93h-3.7zm3.24-.47v3.72h.93v-3.72zm.46 3.25h-3.7v.93h3.7zm-3.24.47v-3.72h-.93v3.72z"/><path fill="#fff" d="M328.2 354.16h3.7v3.71h-3.7z"/><path fill="#05F" d="M328.2 354.16v-.47h-.47v.47h.46zm3.7 0h.47v-.47h-.47zm0 3.71v.47h.47v-.47zm-3.7 0h-.47v.47h.46v-.47zm0-3.25h3.7v-.93h-3.7zm3.24-.46v3.71h.93v-3.71zm.46 3.25h-3.7v.93h3.7zm-3.24.46v-3.71h-.93v3.71z"/><path fill="#F23030" fill-rule="evenodd" d="M315.44 358.27c-3.93.91-7.74 2.4-10.62 3.83a65 65 0 0 0-4.56 2.46c.53 2.02.62 4.33.57 6.62a13.7 13.7 0 0 1-2.36 6.64 7.1 7.1 0 0 1-2.72 2.47c-1.1.5-2.35.56-3.67-.07-1.44-.7-1.84-2.31-1.85-3.8 0-1.5.4-3.08.82-4 1.56-3.5 4.76-6.18 8.11-8.28a6.86 6.86 0 0 0-2.04-3.16 7.55 7.55 0 0 0-4.52-1.6c-4.13-.26-8.43.83-12.3 2.84 5.3 3.68 6.87 10.84 7.04 16.93.09 3.23-.7 6.59-2.49 9.16a9.95 9.95 0 0 1-8.44 4.37c-2.4.01-4.23-1.25-5.6-2.94a18.4 18.4 0 0 1-2.7-4.99 18.9 18.9 0 0 1-5.97 4.3c-2.49 1.12-5.26 1.6-7.88.8-1.7-.53-2.79-1.83-3.42-3.46-.63-1.62-.84-3.6-.78-5.6.1-4 1.25-8.25 2.36-10.22a21.56 21.56 0 0 1 9.09-8.54c-1.02-.3-2.1-.5-3.26-.6-10-.81-19.08 2.92-22.88 12.56a.46.46 0 1 1-.86-.34c4-10.14 13.55-13.98 23.82-13.15 1.58.13 3.05.46 4.4.96a20.47 20.47 0 0 1 13.72-1.05c1.08.3 2.06.72 2.95 1.24 4.1-2.23 8.76-3.48 13.26-3.19 2.19.14 3.83.78 5.06 1.8a7.7 7.7 0 0 1 2.25 3.39c1.5-.9 3.03-1.68 4.44-2.38a51.4 51.4 0 0 1 10.81-3.9c4-.93 8.16-1.28 11.62-.33.78.21 1.37.72 1.8 1.3.45.59.75 1.27.96 1.88a.46.46 0 1 1-.88.3 5.8 5.8 0 0 0-.81-1.61 2.5 2.5 0 0 0-1.32-.97c-3.24-.9-7.22-.58-11.15.33m-37 3.92c-.68-.36-1.44-.66-2.25-.9a19.4 19.4 0 0 0-12.25.68c3.13 1.47 5.5 3.9 6.87 6.76a28.5 28.5 0 0 1 7.64-6.54zm-8.27 7.37a13.44 13.44 0 0 0-7.42-7.1c-3.98 1.8-7.4 4.8-9.52 8.57-1.01 1.8-2.14 5.9-2.25 9.78-.05 1.94.15 3.79.72 5.25.57 1.44 1.48 2.48 2.83 2.9 2.34.72 4.87.3 7.23-.75a17.9 17.9 0 0 0 5.98-4.44h.01l-.28-.84c-1.38-4.35-.54-8.48 1.92-12.24.25-.38.5-.76.78-1.13m-1.73 13.35-.08-.26c-1.29-4.05-.52-7.88 1.8-11.45l.41-.6c1.33 3.9.8 8.44-2.13 12.31m.36 1.05a14.14 14.14 0 0 0 2.43-14.26 27.5 27.5 0 0 1 8.15-6.98c5.21 3.32 6.86 10.26 7.03 16.46.09 3.08-.67 6.23-2.32 8.6a9.02 9.02 0 0 1-7.69 3.97c-2.03.01-3.61-1.04-4.87-2.6a18.3 18.3 0 0 1-2.73-5.2zm30.63-18.89c-3.21 2.04-6.12 4.55-7.54 7.73a9.8 9.8 0 0 0-.73 3.63c0 1.4.4 2.5 1.32 2.95 1.07.5 2.02.45 2.88.06a6.2 6.2 0 0 0 2.35-2.15 12.8 12.8 0 0 0 2.2-6.13c.04-2.16-.04-4.27-.48-6.09" clip-rule="evenodd"/><rect width="40.32" height="40.32" x="508.88" y="384.71" fill="#F23030" rx="4"/><path fill="#fff" fill-rule="evenodd" d="m520.7 396.51 2.04 8.2-2.05 8.2 8.2-2.05 8.2 2.05-2.06-8.2 2.05-8.2-8.2 2.05-8.19-2.05zm-1.71-1.7 9.9 2.48 9.9-2.48-2.48 9.9 2.47 9.9-9.9-2.48-9.89 2.48 2.47-9.9z" clip-rule="evenodd"/><rect width="39.42" height="39.42" x="457.82" y="405.32" fill="#3D99F5" rx="4"/><path fill="#fff" fill-rule="evenodd" d="M479.97 415.64h-11.83v15.05h7.53v4.3h11.83v-15.05h-7.53zm6.45 5.38h-6.45v5.37h5.37v1.08h-5.37v1.07h5.37v1.08h-5.37v1.07h5.38v1.08h-7.53v-1.08h-1.08v3.23h9.68zm-7.53 8.6h-9.67v-12.9h9.67z" clip-rule="evenodd"/><rect width="29.57" height="29.57" x="468.57" y="362.31" fill="#7961F2" rx="4"/><path fill="#fff" fill-rule="evenodd" d="M482.76 370.86h-5.64v5.64h5.64zm-4.83 4.84v-4.03h4.03v4.03zm12.09 2.42h-5.65v5.64h5.65zm-4.84.8v4.04h4.03v-4.04zm3.23-8.06h1.6v.8h-1.6zm-5.65 7.26h-1.61v.8h1.61zm3.23-7.26h1.61v.8h-1.61zm-5.65 7.26h-1.6v.8h1.6zm4.03-2.42H486v.8h-1.62v-.8zm-5.64 7.26h-1.61v.8h1.61zm8.06-7.26h1.62v.8h-1.62zm-5.64 7.26h-1.61v.8h1.6v-.8zm3.22-12.1h.81v1.61h-.8v-1.6zm-6.45 7.26h-.8v1.61h.8zm11.3-5.65h.8v1.62h-.8zm-6.46 7.26h-.8v1.61h.8zm1.61-6.45h.81v1.61h-.8v-1.61zm-6.45 7.26h-.8v1.6h.8zm11.3-5.65h.8v1.62h-.8zm-6.46 7.26h-.8v1.61h.8z" clip-rule="evenodd"/><path fill="#FFB700" fill-rule="evenodd" d="M242.8 89.05a4.48 4.48 0 1 1-8.96 0 4.48 4.48 0 0 1 8.96 0m-6.72 0a2.24 2.24 0 1 0 4.48 0 2.24 2.24 0 0 0-4.48 0M549.2 367.69a4.48 4.48 0 1 1-8.96 0 4.48 4.48 0 0 1 8.96 0m-6.72 0a2.24 2.24 0 1 0 4.48 0 2.24 2.24 0 0 0-4.48 0" clip-rule="evenodd"/><path fill="#05F" fill-rule="evenodd" d="M45.1 304.27a.99.99 0 1 1-1.4-1.4l2.1-2.09a.99.99 0 1 1 1.4 1.4l-2.1 2.1zm-6.29-2.1a.99.99 0 1 1 1.4-1.39l2.1 2.1a.99.99 0 1 1-1.4 1.4l-2.1-2.1zm4.9 4.9a.99.99 0 1 1 1.4-1.4l2.09 2.1a.99.99 0 0 1-1.4 1.4l-2.1-2.1zm-4.9 2.1a.99.99 0 0 0 1.4 0l2.1-2.1a.99.99 0 1 0-1.4-1.4l-2.1 2.1a.99.99 0 0 0 0 1.4" clip-rule="evenodd"/><defs><clipPath id="c"><path fill="#fff" d="M459.4 145.67h64.31v18.92H459.4z"/></clipPath><clipPath id="d"><path fill="#fff" d="M72.68 145.67h151.33v18.92H72.68z"/></clipPath><filter id="a" width="24.64" height="26.64" x="130.45" y="392.02" color-interpolation-filters="sRGB" filterUnits="userSpaceOnUse"><feFlood flood-opacity="0" result="BackgroundImageFix"/><feColorMatrix in="SourceAlpha" values="0 0 0 0 0 0 0 0 0 0 0 0 0 0 0 0 0 0 127 0"/><feOffset dy=".88"/><feGaussianBlur stdDeviation="1.32"/><feColorMatrix values="0 0 0 0 0 0 0 0 0 0 0 0 0 0 0 0 0 0 0.2 0"/><feBlend in2="BackgroundImageFix" result="effect1_dropShadow"/><feBlend in="SourceGraphic" in2="effect1_dropShadow" result="shape"/></filter><filter id="b" width="364.8" height="235.77" x="111.48" y="191.47" color-interpolation-filters="sRGB" filterUnits="userSpaceOnUse"><feFlood flood-opacity="0" result="BackgroundImageFix"/><feColorMatrix in="SourceAlpha" values="0 0 0 0 0 0 0 0 0 0 0 0 0 0 0 0 0 0 127 0"/><feOffset/><feGaussianBlur stdDeviation=".46"/><feColorMatrix values="0 0 0 0 0.101961 0 0 0 0 0.101961 0 0 0 0 0.101961 0 0 0 0.2 0"/><feBlend in2="BackgroundImageFix" result="effect1_dropShadow"/><feBlend in="SourceGraphic" in2="effect1_dropShadow" result="shape"/></filter></defs></svg>