<svg xmlns="http://www.w3.org/2000/svg" fill="none" viewBox="0 0 600 520"><rect width="218.15" height="218.15" x="44.98" y="53.62" fill="#F2F6FF" rx="20.08" transform="rotate(10.67 44.98 53.62)"/><rect width="164.91" height="164.91" x="241.29" y="27" fill="#FAFAFA" rx="21.3" transform="rotate(48.3 241.29 27)"/><rect width="110.38" height="110.38" x="415.48" y="339.34" fill="#E5EEFF" rx="14.25" transform="rotate(52.79 415.48 339.34)"/><path fill="#fff" stroke="#E8E8E8" d="M66.5 104.5h463v324h-463z"/><path fill="#fff" d="M67 105h462v30H67z"/><g fill-rule="evenodd" clip-path="url(#a)" clip-rule="evenodd"><path fill="#FF46FB" d="M82.45 122.34h4.68v4.68h-4.68z"/><path fill="#CA41FC" d="M77.77 122.34h4.68v4.68h-4.68z"/><path fill="#8B48FE" d="M73.09 122.34h4.68v4.68h-4.68z"/><path fill="#81E650" d="M87.13 117.66h-4.68v4.68h4.68z"/><path fill="#00D267" d="M82.45 117.66h-4.68v4.68h4.68z"/><path fill="#00C0FF" d="M77.77 117.66h-4.68v4.68h4.68z"/><path fill="#FFD200" d="M82.45 112.98h4.68v4.68h-4.68z"/><path fill="#FF8E00" d="M77.77 112.98h4.68v4.68h-4.68z"/><path fill="#FF5400" d="M73.09 112.98h4.68v4.68h-4.68z"/><g fill="#212121" clip-path="url(#b)"><path d="M130.67 115.86a3 3 0 0 0-.74-.07c-.34 0-.63.04-.87.14a1.51 1.51 0 0 0-.9.98c-.06.22-.1.46-.1.71v.25h-.63v1.2h.63v3.47h1.64v-3.48h.8v-1.2h-.8v-.14c0-.2.06-.34.17-.43a.63.63 0 0 1 .4-.13 1.2 1.2 0 0 1 .29.03l.11.02zm-7.13 3.76c.06-.14.13-.26.22-.35a.8.8 0 0 1 .28-.19c.1-.03.2-.05.28-.05.11 0 .24.02.39.05.15.04.27.1.37.2v1.68a.67.67 0 0 1-.33.28 1.1 1.1 0 0 1-.39.07.9.9 0 0 1-.33-.06.8.8 0 0 1-.29-.2 1 1 0 0 1-.21-.36 1.6 1.6 0 0 1-.08-.54c0-.21.03-.39.09-.53m-1.6 1.63c.12.31.27.57.47.78.2.2.42.36.68.47.26.1.54.16.83.16.21 0 .44-.05.68-.15s.44-.23.6-.4v.43h1.5v-6.61h-1.64v2.16c-.15-.15-.3-.25-.48-.32a1.93 1.93 0 0 0-1.4.06c-.25.1-.48.27-.7.47a2.74 2.74 0 0 0-.71 1.86 3 3 0 0 0 .18 1.09zm-3.85-1.88a.9.9 0 0 1 .36-.27 1.13 1.13 0 0 1 .72-.02c.1.04.2.1.28.19.08.08.14.2.2.34.04.14.07.3.07.5q0 .345-.09.57c-.06.15-.13.27-.22.37a.75.75 0 0 1-.3.2.9.9 0 0 1-.3.06c-.11 0-.23-.02-.37-.06a.8.8 0 0 1-.35-.2zm.02 2.88c.16.16.33.26.52.32a1.97 1.97 0 0 0 1.35-.07c.26-.1.5-.26.7-.48.21-.2.38-.48.51-.8.14-.32.2-.7.2-1.13 0-.4-.05-.74-.16-1.04-.1-.3-.25-.55-.44-.75s-.4-.36-.66-.47a2.03 2.03 0 0 0-2.17.39v-.43h-1.48v6.42h1.63zm-4.37.3h1.63v-6.62h-1.63v6.61zm-2.74 0h1.63v-6.62H111v6.61zm-5.84-1.3c.11.31.26.57.46.78.2.2.42.36.67.47.26.1.54.16.84.16.2 0 .43-.05.67-.15s.45-.22.61-.39v.42h1.48v-4.75h-1.46v.46a1.6 1.6 0 0 0-1.27-.57 2.1 2.1 0 0 0-1.45.63 2.52 2.52 0 0 0-.72 1.86c0 .4.06.77.17 1.08m1.6-1.63c.05-.14.12-.26.2-.35a.77.77 0 0 1 .57-.24c.1 0 .23.01.38.05.15.03.27.1.37.2v1.68a.67.67 0 0 1-.33.28c-.13.04-.26.07-.39.07a.9.9 0 0 1-.33-.06.8.8 0 0 1-.28-.2.94.94 0 0 1-.2-.36 1.7 1.7 0 0 1-.08-.54c0-.21.03-.39.08-.53zm-9.64 2.92h1.63v-3.12a.7.7 0 0 1 .28-.27c.1-.06.21-.09.31-.09.18 0 .32.05.41.15q.15.15.15.6v2.73h1.63v-3.12a.7.7 0 0 1 .27-.27c.11-.06.22-.09.32-.09.18 0 .32.05.41.15.1.1.14.3.14.6v2.73h1.64v-3c0-.6-.13-1.06-.38-1.38s-.64-.48-1.16-.48c-.33 0-.6.07-.85.22-.24.16-.43.33-.58.54-.27-.5-.72-.76-1.35-.76-.32 0-.6.07-.83.2-.22.15-.41.3-.56.5h-.04l-.05-.59h-1.4v4.75zm-5.78-.65q.255.21.6.39a4.5 4.5 0 0 0 1.83.38c.44 0 .83-.06 1.16-.17.34-.11.61-.26.83-.45.22-.2.38-.41.5-.67.1-.25.15-.52.15-.8 0-.54-.15-.95-.45-1.25s-.71-.53-1.23-.68l-.73-.21c-.2-.06-.36-.12-.48-.17a.8.8 0 0 1-.27-.17.32.32 0 0 1-.08-.22c0-.17.08-.3.23-.4.15-.11.36-.16.63-.16.18 0 .37.03.55.1a4.8 4.8 0 0 1 1.05.56l.73-1.46a4.9 4.9 0 0 0-1.43-.6 3.5 3.5 0 0 0-2 .05c-.32.12-.58.28-.79.47a1.9 1.9 0 0 0-.63 1.44c0 .5.14.9.4 1.22.26.31.64.54 1.12.69l.81.23c.22.06.4.12.53.17.13.06.23.12.28.18.06.06.09.14.09.23 0 .16-.1.3-.28.4s-.43.15-.74.15c-.2 0-.4-.04-.58-.12a3.8 3.8 0 0 1-1-.63zm53.66-4.24c1.1 0 2.06.85 2.06 2.35 0 1.48-.96 2.34-2.07 2.34-1.1 0-2.05-.86-2.05-2.34 0-1.5.95-2.35 2.05-2.35zm-8.45-1.86c1.5 0 2.4.47 2.4 1.8 0 1.26-.89 1.87-2.36 1.87h-1.25v2.77h-.46v-6.44zm5.47 1.86c.17 0 .3.02.46.1l-.1.36a1 1 0 0 0-.41-.07c-.42 0-.9.3-1.26 1.14v3.05h-.42v-4.47h.37l.03.83h.03c.3-.55.76-.94 1.3-.94m2.97.36c-.92 0-1.61.81-1.61 2 0 1.17.69 1.97 1.61 1.97.93 0 1.63-.8 1.63-1.98s-.7-1.99-1.63-1.99m-8.55-1.84h-1.1v2.91h1.14c1.34 0 2-.44 2-1.5 0-1.08-.68-1.41-2.04-1.41"/></g></g><rect width="177.44" height="18.26" x="199.72" y="110.87" fill="#F4F4F4" rx="1.64"/><path fill="#1A1A1A" fill-rule="evenodd" d="m214.4 121.44 2.41 2.4-.37.37-2.4-2.4a3.42 3.42 0 1 1 .37-.37zm-2.6.67a2.9 2.9 0 1 0 0-5.8 2.9 2.9 0 0 0 0 5.8" clip-rule="evenodd"/><path fill="#757575" d="M224 122.1a2.34 2.34 0 0 1-1.72-.72l.37-.43c.18.18.38.33.62.45.24.1.48.16.74.16.32 0 .58-.07.75-.22a.73.73 0 0 0 .27-.58.7.7 0 0 0-.06-.31.6.6 0 0 0-.18-.23 1 1 0 0 0-.25-.17l-.32-.16-.7-.3a4 4 0 0 1-.36-.19 1.5 1.5 0 0 1-.32-.25c-.1-.1-.17-.22-.23-.35a1.2 1.2 0 0 1-.1-.48 1.2 1.2 0 0 1 .44-.93c.14-.12.3-.21.49-.28a1.93 1.93 0 0 1 1.44.08 2 2 0 0 1 .63.43l-.33.4a1.7 1.7 0 0 0-.5-.33 1.4 1.4 0 0 0-.62-.13c-.27 0-.5.07-.67.2a.62.62 0 0 0-.24.52q0 .18.06.3c.05.09.12.16.2.23a1.9 1.9 0 0 0 .55.29l.7.3.4.2c.12.08.23.17.32.28.09.1.16.22.2.36a1.27 1.27 0 0 1-.04 1.02 1.3 1.3 0 0 1-.32.44c-.14.13-.32.23-.52.3s-.44.1-.7.1m4.05 0c-.24 0-.47-.03-.69-.12-.2-.09-.39-.21-.55-.37a1.8 1.8 0 0 1-.37-.6c-.09-.24-.13-.5-.13-.8a1.97 1.97 0 0 1 .5-1.4 1.58 1.58 0 0 1 1.13-.52c.23 0 .44.04.62.12s.33.2.45.34c.13.15.22.33.29.54a2.4 2.4 0 0 1 .07 1.06h-2.45q.03.585.36.93c.22.22.5.33.85.33.17 0 .33-.02.48-.07.15-.06.3-.13.42-.21l.22.4c-.16.1-.33.2-.53.27s-.42.1-.67.1m-1.14-2.2h1.95c0-.36-.08-.64-.24-.83a.8.8 0 0 0-.66-.3 1 1 0 0 0-.38.08 1.2 1.2 0 0 0-.55.58q-.09.21-.12.48zm4.12 2.2c-.3 0-.56-.08-.76-.26a.97.97 0 0 1-.3-.77c0-.4.18-.7.53-.9.35-.22.92-.37 1.7-.46 0-.11-.01-.23-.04-.33a.8.8 0 0 0-.11-.3.6.6 0 0 0-.23-.2.73.73 0 0 0-.37-.08q-.3 0-.6.12c-.18.08-.34.17-.49.27l-.24-.43c.17-.11.38-.21.63-.31.24-.1.51-.16.8-.16.45 0 .77.14.97.41s.3.63.3 1.09v2.23h-.5l-.06-.44h-.02c-.18.15-.37.27-.56.38-.2.1-.42.15-.65.15zm.18-.49c.18 0 .34-.04.5-.12.15-.08.31-.2.49-.36v-1.01c-.3.04-.56.08-.77.14-.2.05-.37.12-.5.2a.8.8 0 0 0-.28.26c-.06.09-.08.2-.08.31q0 .315.18.45c.13.09.28.13.46.13m2.76.4v-3.63h.5l.06.66h.02c.13-.23.28-.41.45-.55a1 1 0 0 1 .59-.2c.14 0 .27.02.38.07l-.12.54a1 1 0 0 0-.35-.06.83.83 0 0 0-.49.19c-.16.13-.3.34-.43.65v2.34h-.61zm3.96.1c-.24 0-.47-.04-.68-.13a1.57 1.57 0 0 1-.9-.97c-.09-.23-.13-.5-.13-.8s.05-.58.14-.81a1.62 1.62 0 0 1 .94-.98c.21-.09.44-.13.67-.13.24 0 .45.04.62.13q.255.12.45.3l-.32.4c-.1-.1-.22-.17-.33-.23a.83.83 0 0 0-.4-.1 1 1 0 0 0-.45.11 1 1 0 0 0-.36.29q-.15.18-.24.45c-.06.17-.08.36-.08.57 0 .2.02.4.08.57.06.16.13.31.22.44.1.12.22.21.36.28s.3.1.46.1c.17 0 .33-.04.47-.1q.21-.12.39-.27l.26.41a1.68 1.68 0 0 1-1.18.46zm1.98-.1v-5.33h.61v1.46l-.02.75c.17-.17.35-.3.54-.42.2-.12.42-.18.67-.18q.585 0 .84.36c.18.24.27.6.27 1.06v2.3h-.61v-2.22c0-.34-.06-.59-.17-.74-.1-.15-.28-.23-.52-.23a.9.9 0 0 0-.5.14c-.15.1-.31.24-.5.42v2.64h-.61zm5.68 0v-3.13h-.5v-.46l.5-.04v-.58c0-.37.08-.67.25-.88.17-.22.44-.32.8-.32.12 0 .23 0 .33.03.1.02.2.05.29.09l-.14.47a1 1 0 0 0-.41-.1c-.34 0-.51.24-.51.71v.58h.77v.5h-.77v3.14h-.61zm2.08 0v-3.63h.61v3.64h-.61zm.31-4.38a.45.45 0 0 1-.3-.11.38.38 0 0 1-.12-.29c0-.12.04-.21.12-.28a.45.45 0 0 1 .3-.12q.18 0 .3.12c.09.07.13.16.13.28s-.04.21-.13.29a.42.42 0 0 1-.3.1zm2.18 4.48c-.23 0-.4-.07-.5-.21s-.15-.35-.15-.62v-4.6h.62v4.65c0 .1.01.17.05.2.03.05.07.07.12.07h.05c.02 0 .05 0 .08-.02l.08.47a.5.5 0 0 1-.14.04 1 1 0 0 1-.2.02zm2.74 0c-.25 0-.48-.04-.7-.13-.2-.09-.39-.21-.55-.37a1.8 1.8 0 0 1-.36-.6c-.1-.24-.14-.5-.14-.8s.05-.57.14-.8c.1-.24.21-.45.36-.61a1.58 1.58 0 0 1 1.13-.51c.23 0 .44.04.62.12s.34.2.45.34c.13.15.22.33.29.54a2.4 2.4 0 0 1 .08 1.06h-2.46q.03.585.36.93c.22.22.5.33.85.33.18 0 .34-.02.48-.07.15-.06.3-.13.43-.21l.22.4c-.16.1-.34.2-.54.27s-.41.1-.66.1zm-1.15-2.2h1.95q0-.555-.24-.84a.8.8 0 0 0-.66-.3 1 1 0 0 0-.38.08 1.2 1.2 0 0 0-.55.58q-.09.21-.12.48"/><rect width="177.44" height="18.26" x="199.72" y="110.87" stroke="#DDD" stroke-width=".47" rx="1.64"/><path fill="#FF8000" fill-rule="evenodd" d="M514.02 129.36a9.36 9.36 0 1 0 0-18.72 9.36 9.36 0 0 0 0 18.72" clip-rule="evenodd"/><path fill="#fff" d="M514.03 122.47c-.63 0-1.12-.19-1.45-.56-.34-.37-.5-.97-.5-1.79v-2.62h1.1v2.73c0 .48.08.82.22 1q.21.3.63.3c.27 0 .49-.1.64-.3.15-.18.22-.52.22-1v-2.73h1.06v2.62c0 .82-.16 1.42-.49 1.79-.33.38-.8.56-1.43.56"/><path fill="#fff" fill-rule="evenodd" d="M520.1 129.36a3.28 3.28 0 1 0 0-6.55 3.28 3.28 0 0 0 0 6.55" clip-rule="evenodd"/><path fill="#212121" fill-rule="evenodd" d="M517.76 125.62h4.69l-2.35 2.34z" clip-rule="evenodd"/><path stroke="#FAFAFA" stroke-width=".47" d="M68.23 106.23H527.5v29.49H68.23z"/><path fill="#FAFAFA" d="M67.72 135.96h125.91v290.98H67.73z"/><path fill="#05F" d="M97.1 149.08c0-1.03.83-1.87 1.86-1.87h46.38v19.47H98.96a1.87 1.87 0 0 1-1.86-1.87z"/><path fill="#fff" fill-rule="evenodd" d="M108.29 160.27a3.73 3.73 0 1 0 0-7.46 3.73 3.73 0 0 0 0 7.46m0 .47a4.2 4.2 0 1 1 0-8.4 4.2 4.2 0 0 1 0 8.4m.23-4.43h2.1v.47h-2.1v2.1h-.47v-2.1h-2.1v-.47h2.1v-2.1h.47z" clip-rule="evenodd"/><path fill="#fff" d="M118.24 159.03c-.63 0-1.11-.18-1.45-.55-.33-.38-.5-.97-.5-1.79v-2.6h1.1v2.71c0 .48.08.81.22 1 .15.2.36.29.63.29s.48-.1.63-.29.23-.52.23-1v-2.72h1.06v2.61c0 .82-.17 1.41-.5 1.79-.32.37-.8.56-1.42.56zm2.95 1.29v-5.07h.9l.08.36h.02c.15-.13.31-.24.49-.32.18-.09.37-.13.57-.13a1.28 1.28 0 0 1 1.06.51c.12.17.22.36.28.6.07.23.1.48.1.77 0 .31-.04.6-.13.85-.09.24-.2.45-.35.62-.14.17-.31.3-.5.4-.18.08-.38.13-.57.13-.16 0-.32-.04-.47-.1a1.5 1.5 0 0 1-.42-.3l.04.6v1.08zm1.7-2.18a.6.6 0 0 0 .48-.25c.13-.18.2-.46.2-.84 0-.67-.22-1-.64-1-.22 0-.43.11-.64.34v1.51c.1.1.2.15.3.19.1.03.2.05.3.05m3.59.9c-.19 0-.35-.03-.48-.1a.8.8 0 0 1-.31-.24 1.2 1.2 0 0 1-.17-.39 2.3 2.3 0 0 1-.05-.51v-4.08h1.1v4.12q0 .18.06.24c.04.04.09.07.13.07h.06c.02 0 .05 0 .08-.02l.13.82a1 1 0 0 1-.23.06c-.09.02-.2.03-.32.03m2.72 0a1.8 1.8 0 0 1-1.26-.5 2 2 0 0 1-.55-1.44c0-.31.05-.59.15-.82a1.7 1.7 0 0 1 .98-.99 1.77 1.77 0 0 1 2.32.99q.15.345.15.81c0 .31-.05.59-.15.83a1.8 1.8 0 0 1-.97.99 1.8 1.8 0 0 1-.67.13m0-.9c.22 0 .39-.09.5-.28.12-.19.18-.44.18-.77 0-.32-.06-.57-.18-.76a.56.56 0 0 0-.5-.29c-.23 0-.4.1-.52.29-.1.19-.16.44-.16.76 0 .33.05.59.16.77.12.2.29.29.52.29zm3.4.9c-.17 0-.32-.03-.47-.1a1 1 0 0 1-.56-.58 1.3 1.3 0 0 1-.08-.44c0-.4.17-.7.5-.91.32-.22.85-.37 1.58-.44a.6.6 0 0 0-.14-.4c-.09-.1-.23-.14-.44-.14-.16 0-.31.03-.47.09s-.33.14-.5.24l-.4-.72c.24-.14.49-.26.75-.35s.54-.13.83-.13c.48 0 .84.13 1.1.4.24.28.37.7.37 1.27v2.12h-.9l-.07-.38h-.03c-.16.14-.32.25-.5.34-.17.08-.36.13-.57.13m.37-.85c.13 0 .23-.03.32-.09.1-.05.19-.13.28-.23v-.65a2 2 0 0 0-.8.24c-.15.1-.22.23-.22.37 0 .12.03.21.1.27.09.06.2.09.32.09m3.95.84c-.23 0-.44-.04-.63-.13a1.4 1.4 0 0 1-.47-.38 2 2 0 0 1-.31-.61 2.93 2.93 0 0 1 .02-1.63 2 2 0 0 1 .35-.6c.14-.17.3-.3.49-.39a1.32 1.32 0 0 1 1.09-.03c.13.07.26.16.4.28l-.05-.56v-1.26h1.1v5.23h-.9l-.07-.37h-.03c-.13.13-.29.24-.46.33a1.2 1.2 0 0 1-.53.13zm.28-.89c.12 0 .23-.02.33-.07a.8.8 0 0 0 .28-.27v-1.51a.86.86 0 0 0-.61-.24c-.18 0-.33.08-.47.25-.13.17-.2.43-.2.78 0 .37.06.64.17.8.12.18.29.26.5.26"/><path fill="#05F" d="M145.81 147.62h16.79c1.03 0 1.86.84 1.86 1.87v14.92c0 1.03-.83 1.86-1.86 1.86h-16.8v-18.65z"/><path fill="#fff" fill-rule="evenodd" d="m152.46 155.2 2.68 2.91 2.68-2.91.35.35-3.03 3.26-3.03-3.26z" clip-rule="evenodd"/><path fill="#F4F4F4" d="M68 178h125.91v26.11H68z"/><path fill="#1A1A1A" d="M79.86 193.4v-4.89h1.23c.75 0 1.33.2 1.72.63.4.41.59 1.01.59 1.8 0 .38-.05.73-.15 1.04-.1.3-.25.56-.44.78-.2.2-.43.37-.72.48-.28.1-.6.16-.97.16zm.62-.5h.56c.57 0 1-.18 1.29-.52.28-.34.43-.82.43-1.45 0-.62-.15-1.1-.43-1.42-.29-.33-.72-.5-1.29-.5h-.56zm4.75.6c-.3 0-.56-.1-.76-.28a.97.97 0 0 1-.3-.76c0-.4.18-.7.53-.9.35-.22.92-.37 1.7-.45 0-.12-.02-.23-.04-.34a.8.8 0 0 0-.12-.3.6.6 0 0 0-.23-.2.7.7 0 0 0-.36-.07c-.21 0-.4.04-.6.12-.18.08-.34.16-.48.26l-.24-.42c.17-.11.37-.22.62-.31.24-.1.5-.16.8-.16.44 0 .77.13.96.4.2.28.3.64.3 1.1v2.21h-.5l-.06-.43h-.02c-.17.15-.36.27-.56.37s-.41.15-.64.15zm.18-.5c.17 0 .34-.04.5-.12q.21-.12.48-.36v-1.01c-.3.04-.56.09-.77.14-.2.06-.37.12-.5.2a.8.8 0 0 0-.27.26c-.06.09-.08.2-.08.3 0 .22.06.37.18.46.13.09.28.13.46.13m3.7.5a2.32 2.32 0 0 1-1.35-.5l.3-.42c.16.13.32.24.48.32.17.08.36.12.58.12.24 0 .42-.06.54-.17.12-.1.18-.24.18-.4 0-.1-.03-.18-.08-.25a1.2 1.2 0 0 0-.46-.32l-.29-.12-.39-.15a1.8 1.8 0 0 1-.35-.2q-.15-.135-.24-.3a.77.77 0 0 1-.1-.4.95.95 0 0 1 .33-.73c.1-.09.24-.16.4-.2a1.6 1.6 0 0 1 1.15.04c.19.07.35.16.5.28l-.3.39q-.18-.15-.39-.24a1.1 1.1 0 0 0-.44-.08c-.23 0-.4.05-.5.15a.5.5 0 0 0-.16.37c0 .08.02.16.07.22.04.06.1.12.17.17a2 2 0 0 0 .26.12 12 12 0 0 1 .7.27c.13.06.25.13.35.21a.92.92 0 0 1 .36.73.99.99 0 0 1-.34.76c-.11.1-.25.18-.42.23-.17.06-.36.1-.57.1zm2.17-.1v-5.3h.61v1.44l-.02.75c.17-.17.35-.3.54-.42.2-.12.41-.18.67-.18.38 0 .66.12.83.36.18.23.27.59.27 1.06v2.3h-.61v-2.22c0-.34-.06-.6-.16-.74-.11-.16-.29-.23-.53-.23a.9.9 0 0 0-.5.14c-.14.1-.3.23-.49.42v2.62zm5.66.1c-.17 0-.34-.05-.53-.13-.18-.08-.35-.2-.5-.34h-.03l-.05.37h-.5v-5.3h.62v1.44l-.02.66q.255-.225.54-.36a1.36 1.36 0 0 1 1.22-.01c.18.08.33.2.45.37.12.16.21.35.27.58a2.7 2.7 0 0 1-.03 1.58c-.08.24-.2.45-.34.62-.15.17-.31.3-.5.39-.2.08-.39.12-.6.12zm-.1-.52a.88.88 0 0 0 .74-.38c.09-.13.16-.28.21-.46a2.6 2.6 0 0 0 .03-1.15c-.03-.16-.09-.3-.17-.41a.76.76 0 0 0-.3-.28.9.9 0 0 0-.43-.1c-.3 0-.62.17-.97.5v1.9c.16.14.32.24.47.3.16.05.3.08.42.08m4.03.51c-.22 0-.44-.04-.64-.12-.2-.09-.38-.21-.53-.37a1.9 1.9 0 0 1-.5-1.4c0-.3.04-.57.13-.8.1-.25.22-.45.37-.61a1.57 1.57 0 0 1 1.17-.5 1.62 1.62 0 0 1 1.54 1.1c.1.24.14.5.14.8s-.05.58-.14.81a1.6 1.6 0 0 1-1.54 1.09m0-.5c.16 0 .3-.04.43-.1a1 1 0 0 0 .33-.28c.09-.13.16-.28.21-.44a2 2 0 0 0 .08-.57 2 2 0 0 0-.08-.57 1.3 1.3 0 0 0-.22-.45.9.9 0 0 0-.32-.28.9.9 0 0 0-.43-.1.95.95 0 0 0-.76.39c-.09.12-.16.27-.2.44-.06.17-.08.36-.08.57 0 .2.02.4.07.57s.12.31.21.44a.94.94 0 0 0 .76.38m3.37.5c-.3 0-.56-.09-.76-.27a.97.97 0 0 1-.3-.76c0-.4.18-.7.53-.9.35-.22.92-.37 1.7-.45 0-.12-.02-.23-.04-.34a.8.8 0 0 0-.12-.3.6.6 0 0 0-.23-.2.7.7 0 0 0-.36-.07c-.21 0-.4.04-.6.12-.18.08-.34.16-.48.26l-.24-.42c.16-.11.37-.22.61-.31.25-.1.52-.16.81-.16.44 0 .77.13.96.4.2.28.3.64.3 1.1v2.21h-.5l-.06-.43h-.02c-.17.15-.36.27-.56.37s-.41.15-.64.15m.18-.49c.17 0 .34-.04.49-.12.16-.08.32-.2.5-.36v-1.01c-.31.04-.57.09-.78.14-.2.06-.37.12-.5.2a.8.8 0 0 0-.27.26c-.06.09-.08.2-.08.3 0 .22.06.37.18.46.13.09.28.13.46.13m2.74.4v-3.62h.51l.05.66h.03c.12-.23.27-.42.44-.55a.95.95 0 0 1 .97-.13l-.12.54a1.1 1.1 0 0 0-.35-.06.83.83 0 0 0-.48.19c-.17.12-.31.34-.43.65v2.32zm3.76.1c-.46 0-.83-.17-1.1-.5s-.4-.8-.4-1.4c0-.3.04-.56.12-.8.1-.23.2-.43.35-.6.15-.16.31-.29.5-.38a1.37 1.37 0 0 1 1.14-.02c.16.07.31.18.47.3l-.03-.61v-1.4h.62v5.31h-.5l-.06-.42h-.02c-.14.14-.3.26-.5.36q-.27.15-.6.15zm.13-.52a1 1 0 0 0 .48-.12c.15-.09.3-.21.44-.38v-1.9c-.15-.14-.3-.23-.44-.29a1.1 1.1 0 0 0-.44-.09.85.85 0 0 0-.4.1 1 1 0 0 0-.33.3c-.1.11-.17.25-.23.42-.05.17-.08.36-.08.57 0 .44.09.78.26 1.02.17.25.42.37.74.37"/><path fill="#05F" d="M68 178h1.87v26.11H68z"/><path fill="#E8E8E8" d="M68 204.11h125.91v.47H68z"/><path fill="#1A1A1A" d="M80.88 220.04v-4.37H79.4v-.52h3.58v.52H81.5v4.37zm3.84.1c-.23 0-.44-.05-.64-.14-.2-.08-.38-.2-.53-.36a1.9 1.9 0 0 1-.51-1.4c0-.3.04-.58.13-.81.1-.24.22-.44.38-.6a1.57 1.57 0 0 1 1.17-.5 1.61 1.61 0 0 1 1.53 1.1c.1.23.15.5.15.8q0 .45-.15.81a1.6 1.6 0 0 1-1.54 1.09zm0-.52c.15 0 .3-.03.42-.1a1 1 0 0 0 .33-.28c.1-.12.17-.27.22-.44a2 2 0 0 0 .07-.56c0-.21-.02-.4-.07-.57a1.3 1.3 0 0 0-.22-.45.9.9 0 0 0-.33-.28.9.9 0 0 0-.42-.1.96.96 0 0 0-.76.39c-.1.12-.16.26-.21.44a2 2 0 0 0 0 1.13c.05.17.12.32.2.44.1.12.21.22.34.29.13.06.27.1.43.1zm4.04.51a1.62 1.62 0 0 1-1.17-.5 1.9 1.9 0 0 1-.5-1.4c0-.3.04-.57.13-.8.1-.24.22-.44.37-.6a1.57 1.57 0 0 1 1.17-.5 1.61 1.61 0 0 1 1.54 1.1c.1.23.14.5.14.8s-.05.57-.14.81a1.6 1.6 0 0 1-1.54 1.09m0-.5c.16 0 .3-.04.43-.1a1 1 0 0 0 .33-.29c.09-.12.16-.27.21-.44a2 2 0 0 0 .08-.56c0-.21-.03-.4-.08-.57a1.3 1.3 0 0 0-.21-.45.9.9 0 0 0-.33-.28.9.9 0 0 0-.43-.1.96.96 0 0 0-.76.39c-.09.12-.16.26-.2.44-.06.17-.08.36-.08.57 0 .2.02.4.07.56a1.07 1.07 0 0 0 .54.72c.14.07.28.1.43.1zm3.28.5c-.23 0-.4-.07-.5-.2-.1-.15-.14-.35-.14-.62v-4.58h.6v4.63c0 .1.02.16.06.2q.045.06.12.06h.05l.08-.01.09.46a.5.5 0 0 1-.15.05 1 1 0 0 1-.2.01zm2.2 0c-.25 0-.5-.05-.73-.14-.24-.1-.44-.22-.62-.36l.31-.41c.16.13.32.23.49.31.16.08.36.12.58.12.24 0 .42-.05.53-.16a.53.53 0 0 0 .18-.4c0-.1-.02-.18-.07-.25a1.2 1.2 0 0 0-.46-.32 36 36 0 0 0-.68-.27 1.8 1.8 0 0 1-.35-.2c-.1-.1-.18-.19-.25-.3a.76.76 0 0 1-.1-.4c0-.14.03-.27.09-.4a.95.95 0 0 1 .24-.33 1.57 1.57 0 0 1 .92-.3 1.9 1.9 0 0 1 1.13.41l-.3.4c-.12-.1-.25-.18-.38-.24a1.1 1.1 0 0 0-.44-.09c-.23 0-.4.05-.51.16a.5.5 0 0 0-.16.36c0 .09.03.16.07.23.04.06.1.11.18.16a2 2 0 0 0 .25.13 12 12 0 0 1 .7.27c.13.05.25.12.35.2a.92.92 0 0 1 .36.74.99.99 0 0 1-.34.76c-.11.1-.25.18-.42.23-.16.06-.35.1-.57.1z"/><path fill="#E8E8E8" d="M68 230.7h125.91v.46H68z"/><path fill="#1A1A1A" d="m80.7 243.88-.23.75h1.47l-.23-.75a31 31 0 0 1-.49-1.65h-.03a34 34 0 0 1-.48 1.65zm-1.49 2.74 1.66-4.9h.7l1.66 4.9h-.67l-.46-1.5h-1.78l-.47 1.5zm5.3.1c-.23 0-.4-.08-.5-.22s-.15-.34-.15-.61v-4.58h.61v4.63c0 .1.02.16.06.2.03.04.07.06.11.06h.06l.08-.01.08.46a.5.5 0 0 1-.14.05 1 1 0 0 1-.2.01zm1.9 0c-.23 0-.4-.08-.5-.22s-.15-.34-.15-.61v-4.58h.62v4.63c0 .1.01.16.05.2q.045.06.12.06h.05l.08-.01.08.46a.5.5 0 0 1-.14.05 1 1 0 0 1-.2.01zm2.8-.1v-4.9h1.23c.76 0 1.33.22 1.73.63.39.42.58 1.02.58 1.8 0 .39-.04.74-.14 1.05a1.96 1.96 0 0 1-1.16 1.26c-.28.1-.61.16-.98.16h-1.25zm.63-.5h.56c.57 0 1-.18 1.28-.52.29-.34.43-.83.43-1.45s-.14-1.1-.43-1.42c-.28-.33-.71-.5-1.28-.5h-.56v3.88zm5.32.6c-.22 0-.44-.05-.64-.14-.2-.08-.38-.2-.53-.36a1.9 1.9 0 0 1-.51-1.4c0-.3.05-.58.13-.81.1-.24.22-.44.38-.6a1.56 1.56 0 0 1 1.17-.5 1.61 1.61 0 0 1 1.54 1.1c.1.23.14.5.14.8s-.05.57-.14.81a1.6 1.6 0 0 1-1.54 1.09zm0-.52c.15 0 .3-.03.42-.1a1 1 0 0 0 .33-.28c.1-.12.17-.27.22-.44s.07-.36.07-.56c0-.21-.02-.4-.07-.57a1.3 1.3 0 0 0-.22-.45.9.9 0 0 0-.33-.28.9.9 0 0 0-.42-.1.96.96 0 0 0-.76.39c-.1.12-.16.26-.21.44a2 2 0 0 0 0 1.14c.05.16.12.3.2.43.1.12.21.22.34.29.13.06.27.1.43.1zm4.07.51c-.24 0-.47-.04-.68-.13-.2-.08-.39-.2-.54-.36a1.9 1.9 0 0 1-.36-.6 2.4 2.4 0 0 1-.13-.8c0-.3.05-.58.15-.81.09-.24.22-.44.38-.6.16-.17.34-.3.55-.38s.44-.13.67-.13c.24 0 .44.05.61.13q.255.135.45.3l-.31.4c-.1-.1-.22-.17-.34-.23a.8.8 0 0 0-.39-.09c-.16 0-.31.04-.45.1a1 1 0 0 0-.36.3c-.1.12-.18.26-.24.44-.05.17-.08.36-.08.57 0 .2.03.4.08.56.06.17.13.32.22.44.1.12.22.22.36.29.14.06.3.1.46.1.17 0 .32-.04.46-.11.14-.08.27-.16.39-.26l.27.4a2 2 0 0 1-.55.35c-.2.08-.4.12-.62.12m3.02 0c-.38 0-.67-.12-.85-.36-.17-.24-.26-.59-.26-1.06V243h.62v2.22c0 .34.05.6.16.75.1.15.28.22.52.22.2 0 .36-.05.5-.14.15-.1.3-.26.48-.47V243h.61v3.62h-.5l-.06-.57h-.02q-.255.3-.54.48-.27.18-.66.18m3-.09V243h.51l.05.53h.03c.16-.18.33-.32.51-.44.19-.12.4-.18.61-.18.28 0 .5.07.65.2.16.11.28.28.35.5.2-.21.38-.38.57-.5.2-.13.4-.2.63-.2.37 0 .65.13.82.36.19.24.28.6.28 1.06v2.3h-.61v-2.22c0-.34-.06-.58-.17-.73-.1-.16-.27-.23-.5-.23-.28 0-.58.18-.91.56v2.62h-.61v-2.22c0-.34-.06-.58-.17-.73-.1-.16-.28-.23-.51-.23-.28 0-.58.18-.91.56v2.62h-.62zm7.66.1a1.75 1.75 0 0 1-1.24-.5 1.8 1.8 0 0 1-.36-.6c-.1-.24-.14-.5-.14-.8s.05-.57.14-.8q.135-.36.36-.6a1.58 1.58 0 0 1 1.13-.51c.23 0 .43.03.61.12.18.07.34.19.45.34.13.15.22.33.29.53a2.36 2.36 0 0 1 .07 1.06h-2.44c.02.38.14.7.35.92.22.23.5.34.85.34.18 0 .34-.03.48-.08.15-.05.3-.12.43-.2l.21.4c-.16.1-.33.18-.53.26a1.9 1.9 0 0 1-.66.11zm-1.14-2.2h1.94q0-.555-.24-.84a.79.79 0 0 0-.66-.29 1 1 0 0 0-.37.08 1.2 1.2 0 0 0-.55.57q-.09.21-.12.48m3.37 2.1V243h.5l.06.53h.02c.18-.18.36-.32.55-.44.2-.12.42-.18.67-.18.38 0 .66.13.84.36.17.24.26.6.26 1.06v2.3h-.6v-2.22c0-.34-.06-.58-.17-.73-.11-.16-.29-.23-.52-.23a.9.9 0 0 0-.5.14c-.15.1-.31.23-.5.41v2.63h-.6zm5.22.1c-.2 0-.36-.04-.49-.1a.9.9 0 0 1-.32-.25 1 1 0 0 1-.17-.38 2.2 2.2 0 0 1-.05-.49v-2h-.54v-.47l.57-.03.07-1.02h.51V243h.98v.5h-.98v2c0 .23.05.4.13.53.08.12.23.18.44.18.06 0 .13 0 .2-.03.08-.02.15-.04.2-.07l.13.47a2.6 2.6 0 0 1-.68.13zm2.26 0a2.32 2.32 0 0 1-1.35-.5l.3-.42c.16.13.32.23.49.31s.36.12.58.12c.24 0 .42-.05.54-.16s.18-.25.18-.4c0-.1-.03-.18-.08-.25a1.15 1.15 0 0 0-.46-.32 37 37 0 0 0-.68-.27 2 2 0 0 1-.35-.2c-.1-.1-.18-.19-.25-.3a.76.76 0 0 1-.1-.4.96.96 0 0 1 .33-.73 1.55 1.55 0 0 1 .92-.3 1.92 1.92 0 0 1 1.13.41l-.3.4c-.12-.1-.25-.18-.38-.24a1.1 1.1 0 0 0-.44-.09c-.23 0-.4.06-.5.16a.5.5 0 0 0-.17.37c0 .08.03.15.07.22.05.06.1.11.18.16l.25.13a11 11 0 0 1 .7.27c.13.05.25.12.36.2a.92.92 0 0 1 .35.74.98.98 0 0 1-.34.76c-.1.1-.25.18-.42.23-.16.06-.35.1-.56.1"/><path fill="#05F" d="m309.61 244.02-1.57-4.91h.67l.78 2.65c.1.3.17.57.24.82l.24.8h.03c.1-.28.17-.55.24-.8l.24-.82.78-2.65h.64l-1.56 4.91zm2.9 0v-3.64h.62v3.64zm.31-4.39a.45.45 0 0 1-.3-.1.37.37 0 0 1-.12-.3c0-.11.04-.2.12-.28a.45.45 0 0 1 .3-.11c.13 0 .23.04.3.11.09.07.13.17.13.29 0 .11-.04.2-.13.28a.43.43 0 0 1-.3.11m3 4.48c-.24 0-.46-.04-.68-.12-.2-.1-.4-.22-.55-.38a1.8 1.8 0 0 1-.37-.6c-.1-.23-.14-.5-.14-.8s.05-.57.14-.8c.1-.24.22-.44.37-.6a1.6 1.6 0 0 1 1.13-.52c.23 0 .43.04.61.12.19.08.34.2.46.35s.22.33.28.54a2.4 2.4 0 0 1 .08 1.05h-2.46c.03.4.15.7.36.93.22.23.5.34.85.34.18 0 .34-.03.48-.08.15-.05.3-.12.43-.2l.22.4c-.16.1-.34.19-.53.26-.2.08-.42.11-.67.11zm-1.14-2.2h1.95q0-.555-.24-.84a.8.8 0 0 0-.66-.29 1 1 0 0 0-.37.07 1.2 1.2 0 0 0-.55.58c-.07.14-.1.3-.13.48m4 2.11-1-3.64h.62l.54 2.1a33 33 0 0 1 .22 1.02h.03a76 76 0 0 1 .25-1.01l.56-2.1h.6l.56 2.1a38 38 0 0 1 .26 1h.03a23 23 0 0 0 .22-1l.54-2.1h.58l-.97 3.63h-.75l-.53-1.95a35 35 0 0 1-.24-1.05h-.03a52 52 0 0 1-.26 1.06l-.5 1.94zm7.14.1c-.3 0-.56-.1-.76-.28a.98.98 0 0 1-.3-.76c0-.4.18-.7.53-.91.35-.22.92-.37 1.7-.45 0-.12-.01-.23-.04-.34a.8.8 0 0 0-.11-.3.57.57 0 0 0-.23-.2.73.73 0 0 0-.37-.08q-.3 0-.6.12c-.18.08-.34.17-.49.27l-.23-.43c.16-.1.37-.21.62-.31.24-.1.51-.16.8-.16.45 0 .77.14.97.42.2.26.3.63.3 1.08v2.23h-.5l-.06-.43h-.02c-.18.14-.36.27-.56.37s-.42.15-.65.15zm.18-.5c.18 0 .34-.04.5-.12.15-.09.31-.2.49-.37v-1c-.3.03-.56.08-.77.13-.2.06-.37.12-.5.2a.8.8 0 0 0-.28.26c-.06.1-.08.2-.08.31q0 .315.18.45c.13.1.28.14.46.14m3.4.5c-.23 0-.4-.08-.5-.22s-.14-.34-.14-.61v-4.6h.61v4.64c0 .1.02.17.05.21q.06.06.12.06h.06l.08-.01.08.46a.5.5 0 0 1-.14.05 1 1 0 0 1-.21.01zm1.92 0c-.24 0-.4-.08-.5-.22s-.15-.34-.15-.61v-4.6h.61v4.64c0 .1.02.17.05.21q.06.06.12.06h.06l.08-.01.08.46a.5.5 0 0 1-.14.05 1 1 0 0 1-.21.01z"/><path fill="#757575" d="M212.4 245.15v-6.71h2.41c.36 0 .7.03 1 .1.32.07.6.18.83.35.23.16.42.37.55.64.14.26.21.6.21 1 0 .5-.11.9-.33 1.22-.21.32-.5.56-.86.71l1.52 2.7h-1.7l-1.29-2.43h-.83v2.42zm1.5-3.62h.8c.39 0 .7-.09.9-.25.21-.17.32-.42.32-.75s-.1-.56-.32-.7c-.2-.12-.51-.19-.9-.19h-.8zm6.87 3.75q-.54 0-1.02-.18c-.31-.12-.59-.3-.82-.53a2.45 2.45 0 0 1-.55-.84c-.13-.33-.2-.7-.2-1.13a2.88 2.88 0 0 1 .75-1.96 2.38 2.38 0 0 1 1.67-.72c.36 0 .68.06.95.18a1.96 1.96 0 0 1 1.08 1.3 3.34 3.34 0 0 1 .08 1.64h-3.06c.07.37.22.65.45.82.24.17.54.26.88.26.36 0 .73-.11 1.1-.34l.5.92a3.35 3.35 0 0 1-1.8.58zm-1.13-3.24h1.84c0-.29-.06-.52-.2-.7-.12-.18-.34-.27-.65-.27a.95.95 0 0 0-.64.24c-.18.16-.3.4-.35.73m6.4 3.24a2.37 2.37 0 0 1-2.33-1.53c-.13-.35-.2-.73-.2-1.15 0-.43.08-.8.23-1.14q.21-.495.57-.84a2.8 2.8 0 0 1 1.86-.7q.48 0 .84.15c.25.1.47.24.66.4l-.71.97a1.1 1.1 0 0 0-.7-.3c-.36 0-.65.14-.87.4-.2.26-.31.61-.31 1.06 0 .44.1.8.31 1.06.22.26.5.39.83.39.16 0 .32-.04.47-.1.16-.08.3-.17.44-.27l.6.99c-.25.22-.53.38-.82.47a3 3 0 0 1-.87.14m4.58 0q-.54 0-1.02-.18c-.31-.12-.59-.3-.82-.53a2.5 2.5 0 0 1-.55-.84c-.13-.33-.2-.7-.2-1.13a2.88 2.88 0 0 1 .75-1.96 2.38 2.38 0 0 1 1.67-.72c.36 0 .68.06.94.18.28.13.5.3.68.52q.285.33.42.78a3.34 3.34 0 0 1 .07 1.64h-3.06c.07.37.22.65.45.82.24.17.53.26.88.26.36 0 .73-.11 1.1-.34l.5.92a3.35 3.35 0 0 1-1.8.58zm-1.13-3.24h1.84c0-.29-.06-.52-.2-.7-.13-.18-.34-.27-.65-.27a.95.95 0 0 0-.64.24c-.18.16-.3.4-.35.73m4.17 3.11v-5.1h1.24l.1.64h.04c.22-.2.47-.38.73-.53.26-.16.56-.24.91-.24.56 0 .96.18 1.2.55q.39.54.39 1.5v3.18h-1.52v-2.97c0-.38-.05-.63-.15-.77-.1-.13-.25-.2-.47-.2a.9.9 0 0 0-.5.13c-.13.08-.29.2-.45.36v3.45zm7.87.13c-.32 0-.6-.05-.82-.15s-.4-.23-.54-.4a1.7 1.7 0 0 1-.31-.62c-.06-.25-.1-.52-.1-.81v-2.07h-.7v-1.13l.79-.06.17-1.36h1.26v1.36h1.22v1.19h-1.22v2.05c0 .28.06.5.17.63.13.12.29.18.49.18a1.5 1.5 0 0 0 .48-.1l.24 1.1-.48.12c-.19.04-.4.06-.65.06zm5.86 0a1.93 1.93 0 0 1-1.52-.71 2.7 2.7 0 0 1-.43-.85 4 4 0 0 1 .03-2.25c.13-.32.28-.6.47-.83q.3-.345.69-.54a1.84 1.84 0 0 1 1.5-.04c.18.1.37.23.54.4l-.06-.79v-1.74h1.52v7.22h-1.24l-.1-.5h-.04a2.5 2.5 0 0 1-.63.45c-.24.12-.49.18-.73.18m.39-1.24c.16 0 .31-.04.44-.1.14-.07.27-.2.4-.37v-2.09a1.22 1.22 0 0 0-.85-.32c-.24 0-.46.11-.64.34-.19.23-.28.59-.28 1.08 0 .5.08.88.24 1.1.16.24.4.36.69.36m5.88 1.24a2.52 2.52 0 0 1-1.74-.7q-.33-.345-.54-.84a3 3 0 0 1-.21-1.14c0-.43.07-.8.2-1.14a2.4 2.4 0 0 1 1.35-1.36 2.46 2.46 0 0 1 3.22 1.36c.14.33.2.71.2 1.14 0 .42-.06.8-.2 1.14a2.46 2.46 0 0 1-2.28 1.53zm0-1.23c.31 0 .54-.13.7-.4q.24-.375.24-1.05c0-.45-.08-.8-.24-1.06a.77.77 0 0 0-.7-.4.78.78 0 0 0-.7.4c-.16.26-.24.61-.24 1.06 0 .44.08.8.23 1.06.16.26.4.39.71.39m5.75 1.22a2.38 2.38 0 0 1-2.33-1.53c-.13-.34-.2-.72-.2-1.14 0-.43.07-.8.22-1.14.14-.33.33-.61.58-.84a2.82 2.82 0 0 1 1.86-.7c.32 0 .6.05.83.15.25.1.47.24.66.4l-.7.97a1.1 1.1 0 0 0-.7-.3c-.37 0-.66.14-.87.4-.22.26-.32.61-.32 1.06 0 .44.1.8.32 1.06s.5.39.82.39c.17 0 .32-.04.48-.1.15-.08.3-.17.44-.27l.6.99c-.26.22-.53.38-.83.47a3 3 0 0 1-.86.14zm4.11 0c-.55 0-.96-.18-1.21-.54a2.67 2.67 0 0 1-.37-1.51v-3.18h1.51v2.98c0 .37.05.62.16.76.1.14.26.2.48.2.2 0 .35-.04.48-.13s.28-.23.43-.43v-3.38h1.51v5.11h-1.24l-.1-.71h-.04a2.8 2.8 0 0 1-.71.62c-.25.14-.55.22-.9.22zm4.32-.12v-5.1h1.24l.1.65h.04c.22-.21.44-.4.68-.54q.36-.24.87-.24c.36 0 .65.07.87.23.23.14.4.35.54.62.23-.23.46-.43.71-.6.25-.16.55-.25.9-.25.54 0 .95.18 1.2.56.26.36.4.86.4 1.5v3.17h-1.52v-2.97c0-.38-.05-.63-.16-.77-.1-.13-.25-.2-.47-.2-.25 0-.55.16-.88.5v3.44h-1.5v-2.97c0-.38-.06-.63-.16-.77-.1-.13-.26-.2-.48-.2-.26 0-.55.16-.86.5v3.44zm11.12.13q-.54 0-1.02-.18c-.31-.12-.59-.3-.82-.53a2.5 2.5 0 0 1-.55-.84c-.13-.33-.2-.7-.2-1.13a2.88 2.88 0 0 1 .75-1.96 2.37 2.37 0 0 1 1.67-.72c.36 0 .67.06.94.18.28.13.5.3.68.52.19.22.33.48.41.78a3.34 3.34 0 0 1 .08 1.64h-3.06c.07.37.22.65.45.82.24.17.53.26.88.26.36 0 .73-.11 1.1-.34l.5.92a3.33 3.33 0 0 1-1.8.58zm-1.13-3.24h1.84c0-.29-.06-.52-.2-.7-.13-.18-.35-.27-.65-.27a.96.96 0 0 0-.64.24c-.18.16-.3.4-.35.73m4.18 3.11v-5.1h1.23l.1.64h.05c.22-.2.46-.38.72-.53.26-.16.56-.24.91-.24.56 0 .96.18 1.2.55q.39.54.39 1.5v3.18h-1.51v-2.97c0-.38-.06-.63-.16-.77-.1-.13-.25-.2-.47-.2a.9.9 0 0 0-.5.13q-.21.12-.45.36v3.45H282zm7.86.13c-.32 0-.6-.05-.82-.15s-.4-.23-.54-.4a1.8 1.8 0 0 1-.31-.62c-.06-.25-.1-.52-.1-.81v-2.07h-.7v-1.13l.79-.06.17-1.36h1.26v1.36h1.23v1.19h-1.23v2.05c0 .28.06.5.17.63.13.12.29.18.49.18a1.5 1.5 0 0 0 .48-.1l.24 1.1-.49.12c-.18.04-.4.06-.64.06zm3.38 0a3.2 3.2 0 0 1-1.96-.71l.68-.95c.23.17.45.3.67.4.21.09.43.13.65.13s.39-.04.5-.11c.1-.08.14-.18.14-.32a.3.3 0 0 0-.09-.22.8.8 0 0 0-.23-.18c-.1-.06-.21-.1-.33-.15a15 15 0 0 1-.86-.37 2 2 0 0 1-.43-.3 1.26 1.26 0 0 1-.44-.99c0-.23.04-.44.13-.64.1-.2.23-.37.4-.5.17-.15.38-.25.62-.33s.5-.12.8-.12c.4 0 .74.07 1.03.2q.45.195.78.45l-.69.9a2.6 2.6 0 0 0-.54-.31 1.35 1.35 0 0 0-.54-.12c-.38 0-.57.14-.57.4 0 .09.02.16.08.22.05.05.13.1.22.15a5 5 0 0 0 .7.28 4.4 4.4 0 0 1 .92.5 1.32 1.32 0 0 1 .46 1.04c0 .23-.05.45-.14.65s-.22.37-.4.52c-.18.14-.4.26-.66.35a3 3 0 0 1-.9.13"/><path fill="#E8E8E8" d="M200.37 257.09h325.38v.47H200.37z"/><path fill="#FAFAFA" d="M201.3 141.92h315.08v78.65H201.3z"/><rect width="141.79" height="36.45" x="213.03" y="172.38" fill="#fff" rx="3.5"/><path fill="#3D99F5" d="M220.02 185.27c0-1.04.84-1.88 1.88-1.88h11.23c1.04 0 1.88.84 1.88 1.88v11.23c0 1.04-.84 1.88-1.88 1.88H221.9a1.87 1.87 0 0 1-1.88-1.88z"/><path fill="#fff" fill-rule="evenodd" d="M228.45 186.67h-5.15v6.56h3.28v1.87h5.15v-6.56h-3.27v-1.87zm2.81 2.34h-2.8v2.34h2.33v.47h-2.34v.47h2.34v.47h-2.34v.47h2.34v.46h-3.28v-.46h-.46v1.4h4.21zm-3.28 3.28v.47h-4.21v-5.62h4.21z" clip-rule="evenodd"/><path fill="#1A1A1A" d="M243.07 192.88V188h1.68c.27 0 .52.03.76.08.23.05.44.14.61.27.18.12.31.28.41.48s.16.45.16.74-.05.54-.16.75c-.1.2-.23.38-.4.51-.18.14-.38.24-.62.3-.22.07-.47.1-.73.1h-.6v1.66h-1.1zm1.1-2.53h.54q.9 0 .9-.78c0-.25-.08-.43-.24-.53-.16-.11-.39-.16-.69-.16h-.5v1.47zm3.37 2.53V188h1.37c.38 0 .72.05 1.02.14.3.1.55.25.77.45.21.19.38.44.5.75.1.3.16.66.16 1.08s-.06.79-.17 1.1c-.11.3-.28.56-.49.77a2 2 0 0 1-.75.45c-.3.1-.62.14-.98.14h-1.44zm1.1-.89h.2c.22 0 .4-.02.57-.08.18-.05.32-.14.44-.26.12-.13.21-.29.28-.49s.1-.44.1-.74c0-.29-.03-.53-.1-.73a1.2 1.2 0 0 0-.28-.47 1 1 0 0 0-.44-.25 2 2 0 0 0-.56-.08h-.21zm3.65.9V188h3.08v.93h-1.98v1.13h1.7v.93h-1.7v1.9zm6.77.09c-.23 0-.43-.04-.6-.11a1.07 1.07 0 0 1-.61-.74 2.4 2.4 0 0 1-.07-.6v-1.5h-.51v-.81l.57-.05.13-.99h.9v.99h.9v.86h-.9v1.5c0 .2.05.35.14.45.09.09.2.13.35.13.06 0 .12 0 .18-.02l.17-.05.17.8-.35.09c-.13.03-.3.04-.47.04zm2.9 0a1.82 1.82 0 0 1-1.27-.5c-.16-.18-.3-.38-.4-.62-.1-.25-.14-.52-.14-.83s.05-.59.15-.83a1.74 1.74 0 0 1 .98-.99 1.78 1.78 0 0 1 2.34 1c.1.23.14.5.14.82 0 .3-.05.58-.14.83a1.8 1.8 0 0 1-1.66 1.11zm0-.9c.22 0 .4-.1.5-.28.12-.2.18-.45.18-.77 0-.33-.06-.58-.17-.77a.56.56 0 0 0-.51-.29c-.23 0-.4.1-.52.29-.1.19-.16.44-.16.77 0 .32.05.58.16.77.12.19.29.28.52.28m4.58.8-.9-4.88h1.13l.33 2.29a47 47 0 0 0 .2 1.54h.03a43 43 0 0 0 .3-1.54l.52-2.29h.93l.53 2.29a30 30 0 0 1 .29 1.54h.03l.1-.78.1-.76.34-2.29h1.05l-.87 4.88h-1.38l-.48-2.21a24 24 0 0 1-.2-1.13h-.02a46 46 0 0 1-.2 1.13l-.46 2.22h-1.37zm7.17.1a1.82 1.82 0 0 1-1.27-.5c-.16-.18-.3-.38-.4-.62-.1-.25-.15-.52-.15-.83s.05-.59.15-.83a1.74 1.74 0 0 1 .98-.99 1.78 1.78 0 0 1 2.34 1c.1.23.15.5.15.82 0 .3-.05.58-.15.83a1.8 1.8 0 0 1-1.65 1.11zm0-.9c.22 0 .4-.1.5-.28.12-.2.18-.45.18-.77 0-.33-.06-.58-.17-.77a.56.56 0 0 0-.51-.29c-.23 0-.4.1-.52.29-.1.19-.16.44-.16.77 0 .32.05.58.16.77.12.19.29.28.52.28m2.56.8v-3.71h.9l.07.65h.03c.13-.25.3-.44.49-.56a1.06 1.06 0 0 1 .82-.16c.07.01.13.03.19.06l-.18.95a1.8 1.8 0 0 0-.4-.06.8.8 0 0 0-.45.15c-.15.1-.27.27-.37.53v2.16h-1.1zm4.23.1a1.41 1.41 0 0 1-1.1-.52 2 2 0 0 1-.31-.62 2.9 2.9 0 0 1 .02-1.63c.1-.24.2-.44.34-.6.15-.18.31-.3.5-.4a1.33 1.33 0 0 1 1.1-.03c.13.07.26.17.39.29l-.05-.57v-1.27h1.1v5.25h-.9l-.07-.36h-.03q-.195.195-.45.33a1.2 1.2 0 0 1-.54.13m.29-.9c.12 0 .23-.03.32-.08.1-.05.2-.14.28-.26v-1.52a.87.87 0 0 0-.6-.24c-.18 0-.34.08-.47.25-.14.17-.2.43-.2.78 0 .37.05.64.17.81s.28.26.5.26"/><rect width="141.79" height="36.45" x="213.03" y="172.38" stroke="#F4F4F4" rx="3.5"/><rect width="141.79" height="36.45" x="366.13" y="172.38" fill="#fff" rx="3.5"/><path fill="#FFB700" d="M373.12 185.27c0-1.04.84-1.88 1.87-1.88h11.24c1.03 0 1.87.84 1.87 1.88v11.23c0 1.04-.84 1.88-1.87 1.88h-11.24a1.87 1.87 0 0 1-1.87-1.88z"/><path fill="#fff" fill-rule="evenodd" d="M382.01 186.67h-5.62v6.56h2.81v1.87h5.62v-6.56h-2.81zm2.34 2.34h-2.34v4.22h-2.34v1.4h4.68zm-2.8 2.64v1.1h-4.7v-.58l1.5-1.03 1.07 1.12 1.63-1.12.48.5zm0-2.64v1.84l-.43-.43-1.62 1.12-1.08-1.12-1.56 1.08v-4.36h4.68V189zm-.47.24a.7.7 0 1 1-1.4 0 .7.7 0 0 1 1.4 0" clip-rule="evenodd"/><path fill="#1A1A1A" d="M397.28 192.97c-.37 0-.69-.07-.94-.21a1.7 1.7 0 0 1-.63-.67l.75-.55a1 1 0 0 0 .31.36c.12.08.25.12.37.12q.3 0 .45-.18c.1-.12.16-.35.16-.67V188h1.1v3.26c0 .23-.03.46-.1.67-.06.2-.15.39-.28.54a1.3 1.3 0 0 1-.5.37c-.19.09-.42.13-.69.13m2.7-.09V188h1.68c.26 0 .52.03.75.08.24.05.44.14.62.26.17.13.3.29.4.5.11.2.17.44.17.73s-.06.54-.16.75c-.1.2-.24.38-.41.51-.18.14-.38.24-.61.3-.23.07-.48.1-.73.1h-.61v1.66h-1.1zm1.1-2.53h.54q.9 0 .9-.78c0-.25-.08-.43-.24-.53-.16-.11-.4-.16-.7-.16h-.5zm5.52 2.63c-.34 0-.65-.06-.95-.16a2.17 2.17 0 0 1-1.26-1.26 3 3 0 0 1-.18-1.09c0-.4.06-.76.19-1.08.12-.31.29-.58.5-.8.22-.22.48-.4.77-.5.29-.12.6-.18.92-.18a2 2 0 0 1 .91.2c.26.13.47.27.63.44l-.58.7c-.13-.1-.26-.2-.4-.28a1.1 1.1 0 0 0-.52-.1 1.22 1.22 0 0 0-1.2.9c-.06.2-.1.42-.1.66 0 .51.12.9.35 1.18s.57.41 1.03.41c.1 0 .2 0 .3-.03a.6.6 0 0 0 .22-.12v-.84h-.8v-.9h1.78v2.25a2.44 2.44 0 0 1-1.61.6m5.46 0c-.23 0-.43-.04-.6-.11a1.2 1.2 0 0 1-.4-.3c-.1-.12-.17-.27-.22-.44a2.4 2.4 0 0 1-.06-.6v-1.5h-.51v-.82l.57-.04.12-.99h.92v.99h.89v.86h-.9v1.5c0 .2.05.35.13.45.1.09.21.13.36.13.06 0 .12 0 .18-.02l.17-.05.17.8-.35.09c-.14.03-.3.04-.47.04zm2.9 0a1.82 1.82 0 0 1-1.27-.51c-.16-.17-.3-.37-.4-.61-.1-.25-.15-.52-.15-.83s.06-.59.16-.83.23-.45.4-.61a1.78 1.78 0 0 1 2.92.61c.1.24.14.52.14.83 0 .3-.05.58-.15.83a1.8 1.8 0 0 1-1.65 1.11zm0-.9c.22 0 .4-.1.5-.28.12-.2.18-.45.18-.77 0-.33-.06-.59-.17-.77a.56.56 0 0 0-.51-.29c-.23 0-.4.1-.52.29-.1.19-.16.44-.16.77 0 .32.05.58.16.77.12.19.29.28.52.28m4.15.8V188h1.68c.26 0 .52.03.75.08.24.05.44.14.62.26.17.13.3.29.4.5.11.2.17.44.17.73s-.06.54-.16.75c-.1.2-.24.38-.41.51-.18.14-.38.24-.61.3-.23.07-.48.1-.74.1h-.6v1.66h-1.1zm1.1-2.53h.54q.9 0 .9-.78c0-.25-.08-.43-.24-.53-.16-.11-.4-.16-.7-.16h-.5zm3.36 2.53V188h1.38c.37 0 .7.05 1 .14q.45.15.78.45c.21.19.38.44.5.74.1.3.17.67.17 1.09s-.06.78-.18 1.1c-.11.3-.27.56-.48.77-.21.2-.46.34-.76.45-.29.1-.61.14-.97.14zm1.1-.89h.21c.21 0 .4-.02.57-.08.17-.05.31-.14.43-.26.12-.13.22-.29.28-.49.07-.2.1-.44.1-.74 0-.29-.03-.53-.1-.73-.06-.2-.16-.35-.28-.47a1 1 0 0 0-.43-.25 2 2 0 0 0-.57-.08h-.21zm3.65.9V188h3.08v.93h-1.97v1.13h1.69v.93h-1.7v1.9z"/><rect width="141.79" height="36.45" x="366.13" y="172.38" stroke="#F4F4F4" rx="3.5"/><path fill="#757575" d="M214.63 160.41v-5.43h-1.84v-1.28H218v1.28h-1.84v5.43zm5.7.13a2.52 2.52 0 0 1-1.74-.7c-.22-.23-.4-.5-.54-.84-.14-.33-.2-.72-.2-1.14 0-.43.06-.8.2-1.13.14-.34.32-.62.54-.85.24-.22.5-.4.8-.51a2.46 2.46 0 0 1 3.22 1.36c.14.33.2.7.2 1.13 0 .42-.06.8-.2 1.14a2.44 2.44 0 0 1-2.28 1.54m0-1.23c.31 0 .55-.13.7-.39.16-.26.24-.61.24-1.06s-.08-.8-.23-1.06a.77.77 0 0 0-.7-.4.78.78 0 0 0-.72.4c-.15.26-.22.61-.22 1.06s.07.8.22 1.06c.16.26.4.4.72.4zm5.72 1.23a2.5 2.5 0 0 1-1.74-.7c-.23-.23-.41-.5-.55-.84-.14-.33-.2-.72-.2-1.14 0-.43.06-.8.2-1.13a2.38 2.38 0 0 1 1.35-1.36 2.46 2.46 0 0 1 3.21 1.36c.14.33.21.7.21 1.13 0 .42-.07.8-.2 1.14a2.44 2.44 0 0 1-2.28 1.54m0-1.23c.3 0 .54-.13.7-.39s.24-.61.24-1.06-.08-.8-.24-1.06a.77.77 0 0 0-.7-.4.78.78 0 0 0-.71.4 2.1 2.1 0 0 0-.23 1.06c0 .45.08.8.23 1.06.16.26.4.4.7.4zm4.9 1.23c-.25 0-.47-.04-.65-.13-.18-.08-.32-.2-.43-.34-.1-.15-.18-.32-.23-.53a3.2 3.2 0 0 1-.07-.71v-5.64h1.51v5.7c0 .16.03.27.08.33.07.06.13.1.19.1h.08l.1-.03.19 1.12a1.4 1.4 0 0 1-.32.09c-.12.02-.27.04-.44.04zm3.07 0a3.2 3.2 0 0 1-1.96-.71l.68-.95c.23.18.46.31.67.4s.43.13.65.13c.23 0 .4-.03.5-.1a.4.4 0 0 0 .15-.33.3.3 0 0 0-.1-.21.8.8 0 0 0-.23-.19c-.1-.05-.2-.1-.33-.14a22 22 0 0 1-.86-.37 1.6 1.6 0 0 1-.75-.72 1.26 1.26 0 0 1-.12-.57c0-.24.04-.45.13-.65.1-.2.23-.37.4-.5.18-.14.38-.25.62-.32.24-.09.51-.13.8-.13.4 0 .74.07 1.04.2.3.14.55.29.77.45l-.68.9a2.7 2.7 0 0 0-.55-.31 1.4 1.4 0 0 0-.53-.12c-.39 0-.58.14-.58.4 0 .09.03.16.08.22.06.06.13.1.22.16a5 5 0 0 0 .7.27 4.4 4.4 0 0 1 .93.51 1.3 1.3 0 0 1 .45 1.03c0 .23-.05.45-.13.65-.1.2-.23.37-.4.52-.19.15-.4.26-.66.35-.27.09-.57.13-.91.13"/><path fill="#05F" d="m245.94 159.29-1.57-4.92h.67l.78 2.65c.1.3.17.57.24.82l.24.81h.03a31 31 0 0 0 .48-1.63l.78-2.65h.64l-1.56 4.92zm2.9 0v-3.64h.62v3.64zm.31-4.4a.45.45 0 0 1-.3-.1.37.37 0 0 1-.12-.29c0-.12.04-.22.12-.28a.45.45 0 0 1 .3-.12c.13 0 .22.04.3.12.09.06.13.16.13.28s-.04.21-.13.28a.42.42 0 0 1-.3.12zm3 4.49c-.24 0-.47-.05-.68-.13-.2-.1-.4-.22-.55-.38a1.8 1.8 0 0 1-.37-.6c-.1-.23-.14-.5-.14-.8s.05-.56.14-.8c.1-.24.22-.44.37-.6a1.6 1.6 0 0 1 1.13-.51c.23 0 .43.04.61.12.19.08.34.2.46.34.12.15.22.33.28.54a2.4 2.4 0 0 1 .08 1.06h-2.46c.03.38.15.7.36.92.22.23.5.34.85.34.18 0 .34-.02.48-.07.15-.06.3-.13.43-.21l.22.4c-.16.1-.34.19-.53.26-.2.08-.42.12-.67.12zm-1.14-2.2h1.95q0-.57-.24-.84a.8.8 0 0 0-.66-.3 1 1 0 0 0-.37.08 1.2 1.2 0 0 0-.55.58c-.07.13-.1.3-.13.47zm4 2.1-1-3.63h.62l.54 2.1.11.51.1.5h.04a76 76 0 0 1 .25-1l.56-2.11h.6l.56 2.1a38 38 0 0 1 .26 1.01h.03a23 23 0 0 0 .22-1l.54-2.11h.58l-.97 3.64h-.75l-.53-1.96a24 24 0 0 1-.24-1.05h-.03a105 105 0 0 1-.26 1.06l-.5 1.95H255zm7.14.1c-.3 0-.56-.1-.76-.27a.98.98 0 0 1-.3-.77c0-.4.18-.7.53-.91.35-.22.92-.37 1.7-.45 0-.12-.01-.23-.04-.34a.8.8 0 0 0-.11-.29.57.57 0 0 0-.23-.2.73.73 0 0 0-.37-.09c-.2 0-.4.04-.6.13-.18.07-.34.16-.49.27l-.24-.43c.18-.11.38-.22.63-.32.24-.1.51-.15.8-.15.45 0 .77.13.97.4.2.28.3.64.3 1.1v2.23h-.5l-.06-.44h-.02c-.18.15-.36.27-.56.38-.2.1-.42.15-.65.15m.18-.5c.18 0 .34-.04.5-.12.15-.08.31-.2.49-.36v-1.02c-.3.04-.56.1-.77.15-.2.05-.37.12-.5.2a.8.8 0 0 0-.28.25c-.06.1-.08.2-.08.32 0 .2.06.36.18.45.13.09.28.13.46.13m3.4.5c-.23 0-.4-.07-.5-.21s-.14-.35-.14-.62v-4.6h.61v4.65c0 .1.02.17.05.2.04.05.08.07.12.07h.06l.08-.02.08.47a.5.5 0 0 1-.14.04 1 1 0 0 1-.21.02zm1.92 0c-.24 0-.4-.07-.5-.21s-.15-.35-.15-.62v-4.6h.61v4.65c0 .1.02.17.05.2.04.05.08.07.12.07h.06l.08-.02.08.47a.5.5 0 0 1-.14.04 1 1 0 0 1-.21.02"/><rect width="363.1" height="32.66" x="207.1" y="298.52" fill="#FAFAFA" rx="1.7"/><rect width="378.37" height="32.66" x="207.1" y="380.81" fill="#FAFAFA" rx="1.7"/><g filter="url(#c)"><rect width="389.83" height="32.66" x="163.41" y="339.67" fill="#F2F6FF" rx="1.7"/></g><path fill="#757575" d="M520.27 318.82v-.46h.99v-3.19h-.79v-.36c.2-.04.37-.08.52-.13.14-.05.28-.12.4-.19h.42v3.87h.9v.46zm4.65.08a1.34 1.34 0 0 1-1.07-.52 2.1 2.1 0 0 1-.3-.64 3.9 3.9 0 0 1 .02-2.02c.09-.31.2-.56.36-.75.16-.2.33-.34.53-.43a1.5 1.5 0 0 1 1.22 0c.18.1.32.2.44.33l-.3.35a1 1 0 0 0-.33-.25.83.83 0 0 0-.4-.1.93.93 0 0 0-.79.4c-.1.16-.18.35-.24.58-.06.24-.1.52-.1.87.13-.17.3-.3.47-.4.19-.1.36-.15.54-.15.38 0 .67.12.9.34.22.22.34.55.34 1a1.36 1.36 0 0 1-.38 1c-.12.13-.26.22-.41.3-.15.06-.32.1-.5.1zm0-.44c.11 0 .21-.02.3-.07.1-.04.17-.1.24-.19a1.2 1.2 0 0 0 .22-.7c0-.27-.07-.5-.2-.66q-.195-.24-.6-.24c-.14 0-.3.04-.46.13s-.31.23-.45.44c.04.42.14.74.3.97.16.21.38.32.65.32m4.3-2.13-.22.68h1.34l-.21-.68-.23-.74-.22-.76h-.02a35 35 0 0 1-.45 1.5zm-1.36 2.5 1.5-4.46h.64l1.5 4.45h-.6l-.42-1.36h-1.62l-.43 1.36h-.57zm4.23 1.38v-4.69h.46l.04.38h.02c.15-.12.32-.23.5-.32.17-.1.36-.14.56-.14s.4.04.56.12.3.2.4.34c.12.15.2.32.25.53a2.5 2.5 0 0 1-.03 1.45c-.07.22-.18.4-.3.55-.14.16-.3.28-.46.36-.18.07-.36.11-.55.11-.15 0-.3-.03-.46-.1-.15-.07-.3-.16-.45-.28l.01.58v1.11zm1.36-1.78a.8.8 0 0 0 .37-.08.9.9 0 0 0 .3-.26c.09-.11.15-.25.2-.42a2.4 2.4 0 0 0 .03-1.04 1.1 1.1 0 0 0-.16-.38.7.7 0 0 0-.27-.25.9.9 0 0 0-.82.03c-.14.07-.3.18-.46.33v1.73c.15.13.3.22.44.27s.26.07.37.07m2.4.4v-3.3h.46l.05.59h.02c.11-.2.25-.37.4-.5a.88.88 0 0 1 .88-.12l-.1.5-.15-.04a.75.75 0 0 0-.61.16c-.15.1-.28.3-.4.58v2.12h-.55zm3.43 0v-.34l.87-.88c.25-.27.46-.5.63-.73.18-.23.3-.43.4-.62.09-.19.13-.37.13-.55a.9.9 0 0 0-.2-.6c-.14-.17-.34-.25-.62-.25a.9.9 0 0 0-.5.16c-.15.1-.3.22-.42.37l-.32-.32c.18-.2.37-.36.58-.48.2-.12.44-.18.73-.18.4 0 .72.12.95.35s.35.54.35.93c0 .2-.05.4-.14.61-.09.2-.2.42-.37.64-.15.22-.34.45-.55.69l-.71.75.73-.04h1.25v.48h-2.8zm4.79.07c-.44 0-.78-.2-1.03-.58a3.17 3.17 0 0 1-.36-1.68c0-.73.12-1.28.36-1.66.25-.38.59-.57 1.03-.57q.645 0 1.02.57c.24.38.36.93.36 1.66q0 1.095-.36 1.68c-.25.39-.59.58-1.02.58m0-.44c.13 0 .24-.04.34-.1.1-.08.19-.19.26-.33q.12-.225.18-.57a4.9 4.9 0 0 0 0-1.63c-.04-.23-.1-.41-.18-.55a.8.8 0 0 0-.26-.32.63.63 0 0 0-.69 0c-.1.07-.2.17-.27.32-.07.14-.13.32-.17.55-.04.22-.06.5-.06.81 0 .64.08 1.1.23 1.39.16.28.37.43.62.43m1.95.36v-.33l.87-.88c.25-.27.47-.5.64-.73s.3-.43.4-.62c.08-.19.13-.37.13-.55a.9.9 0 0 0-.2-.6c-.14-.17-.35-.25-.62-.25a.9.9 0 0 0-.5.16c-.16.1-.3.22-.42.37l-.32-.32q.27-.3.57-.48c.2-.12.45-.18.74-.18.4 0 .72.12.95.35s.34.54.34.93c0 .2-.04.4-.13.61-.09.2-.21.42-.37.64-.15.22-.34.45-.56.69-.2.23-.44.48-.7.75a61 61 0 0 1 .72-.04h1.26v.48zm4.8.08c-.44 0-.79-.2-1.03-.58a3.17 3.17 0 0 1-.37-1.68c0-.73.13-1.28.37-1.66.25-.38.59-.57 1.03-.57.43 0 .77.19 1.01.57.25.38.37.93.37 1.66s-.12 1.29-.37 1.68c-.24.39-.58.58-1.01.58m0-.44c.12 0 .23-.04.33-.1a1 1 0 0 0 .27-.33c.08-.15.13-.34.18-.57a4.9 4.9 0 0 0 0-1.63c-.05-.23-.1-.41-.18-.55a.8.8 0 0 0-.26-.32.63.63 0 0 0-.69 0c-.1.07-.2.17-.27.32-.08.14-.13.32-.17.55-.04.22-.06.5-.06.81 0 .64.07 1.1.23 1.39.16.28.36.43.62.43m-89.32.44c-.16 0-.32-.01-.47-.05a1.9 1.9 0 0 1-.7-.31l-.24-.23.27-.36c.13.13.28.24.45.34a1.3 1.3 0 0 0 1.01.08.94.94 0 0 0 .58-.92c0-.3-.08-.53-.25-.7a.9.9 0 0 0-.67-.25c-.15 0-.28.02-.39.07-.1.04-.22.1-.35.2l-.3-.2.14-2.08h2.17v.48h-1.68l-.11 1.29c.1-.06.2-.1.31-.13.1-.03.22-.05.35-.05.19 0 .36.03.53.08a1.17 1.17 0 0 1 .7.67q.12.255.12.6c0 .24-.04.45-.13.63-.08.18-.19.34-.32.46a1.5 1.5 0 0 1-1.01.38zm5.51 0q-.435 0-.81-.15a1.8 1.8 0 0 1-.63-.45c-.18-.2-.32-.44-.42-.73a3 3 0 0 1-.14-.97c0-.36.05-.68.14-.97.1-.28.25-.53.43-.73s.4-.34.65-.45a2.07 2.07 0 0 1 1.24-.12 1.6 1.6 0 0 1 .64.31c.08.06.16.13.22.2l-.31.36a1.7 1.7 0 0 0-.4-.3 1.2 1.2 0 0 0-.56-.12c-.23 0-.43.05-.6.13-.19.08-.34.2-.47.36s-.23.34-.3.56a2.84 2.84 0 0 0 0 1.5c.06.23.16.42.28.58a1.3 1.3 0 0 0 1.1.5c.16 0 .3-.03.45-.07a1 1 0 0 0 .35-.2v-1.16h-.94v-.47h1.45v1.88c-.14.15-.33.27-.56.37-.24.1-.5.14-.8.14zm2.44-.08v-4.45h1.32c.23 0 .44.02.62.06.2.04.35.1.49.19.13.09.24.2.3.34a1 1 0 0 1 .12.5c0 .22-.05.42-.17.6-.1.18-.27.3-.48.37v.02c.27.05.5.17.66.34a1 1 0 0 1 .25.73c0 .22-.04.4-.12.57-.08.16-.2.3-.35.4-.15.11-.33.2-.53.25-.21.05-.44.08-.69.08zm.56-2.56h.66c.38 0 .66-.06.82-.2a.65.65 0 0 0 .26-.53c0-.26-.1-.44-.27-.55-.17-.1-.43-.16-.78-.16h-.69zm0 2.11h.78c.38 0 .68-.07.9-.2.2-.15.31-.37.31-.67q0-.42-.3-.6c-.22-.14-.52-.2-.91-.2H470v1.67z"/><path fill="#212121" d="M263.71 318.82v-4.45h.68l.85 2.37.16.47.16.46h.03c.06-.15.1-.3.15-.46l.16-.47.84-2.37h.68v4.45h-.53v-2.45l.03-.66.05-.65h-.03l-.35 1-.84 2.31h-.38l-.84-2.3-.35-1.01h-.03a58 58 0 0 1 .07 1.31v2.45zm5.64.08c-.28 0-.5-.08-.7-.24-.18-.16-.27-.4-.27-.7a.9.9 0 0 1 .49-.82c.32-.2.83-.33 1.54-.4 0-.11-.02-.22-.04-.31a.7.7 0 0 0-.1-.27.5.5 0 0 0-.21-.18.66.66 0 0 0-.33-.08c-.2 0-.37.04-.54.11s-.31.16-.45.25l-.21-.4c.15-.1.34-.19.56-.28.22-.1.47-.14.73-.14.4 0 .7.13.88.38.18.24.27.57.27.98v2.02h-.46l-.05-.4h-.02c-.16.14-.33.25-.5.35a1.3 1.3 0 0 1-.6.13zm.16-.44c.16 0 .3-.04.45-.11.14-.08.29-.2.45-.34v-.91c-.28.03-.51.08-.7.13s-.34.1-.46.17a.7.7 0 0 0-.25.24.57.57 0 0 0-.07.29c0 .19.05.32.17.4a.7.7 0 0 0 .41.13m2.5.36v-3.3h.46l.05.6h.02c.11-.2.25-.37.4-.5a.88.88 0 0 1 .88-.12l-.1.5-.15-.04a.75.75 0 0 0-.61.16c-.15.1-.28.3-.4.58v2.12zm2.35 0V314h.55v3.27h.02l1.4-1.74h.62l-1.1 1.33 1.25 1.97h-.6l-.97-1.59-.62.72v.87h-.55zm4.58.08c-.22 0-.43-.04-.63-.11-.19-.08-.35-.2-.5-.34a1.6 1.6 0 0 1-.33-.55 2 2 0 0 1-.12-.72c0-.27.04-.51.12-.73.08-.21.2-.4.33-.55a1.42 1.42 0 0 1 1.58-.35c.17.07.3.18.42.31.11.14.2.3.25.5a2.15 2.15 0 0 1 .07.95h-2.22c.02.35.13.63.32.84q.3.3.78.3c.16 0 .3-.02.43-.06.14-.05.26-.12.39-.2l.2.37c-.15.1-.31.17-.49.24-.17.07-.38.1-.6.1m-1.04-2h1.77c0-.33-.08-.58-.22-.75a.72.72 0 0 0-.6-.27.9.9 0 0 0-.34.07 1.1 1.1 0 0 0-.5.52c-.06.13-.1.27-.11.44zm4.04 2a1.1 1.1 0 0 1-.45-.08.8.8 0 0 1-.29-.22.9.9 0 0 1-.15-.35 2 2 0 0 1-.05-.45v-1.82h-.5v-.42l.52-.04.07-.92h.47v.92h.89v.46h-.89v1.83c0 .2.04.36.1.48.09.1.22.16.4.16.07 0 .13-.01.2-.03l.18-.06.11.42a2.6 2.6 0 0 1-.61.12m1.25-.08v-3.3h.56v3.3zm.29-3.98a.4.4 0 0 1-.28-.1.34.34 0 0 1-.1-.26c0-.1.03-.19.1-.25.08-.07.17-.1.28-.1.1 0 .2.03.27.1.08.06.12.15.12.25s-.04.2-.12.26a.38.38 0 0 1-.27.1m1.38 3.98v-3.3h.47l.04.48h.02c.16-.16.33-.3.5-.4.18-.1.38-.16.61-.16.35 0 .6.11.76.33.16.21.25.54.25.96v2.1h-.56v-2.02c0-.32-.05-.54-.15-.68s-.26-.2-.48-.2a.8.8 0 0 0-.45.12c-.13.09-.28.21-.45.38v2.4h-.56zm4.83 1.52c-.2 0-.39-.02-.56-.06-.16-.04-.3-.1-.43-.17a.9.9 0 0 1-.28-.28.75.75 0 0 1 .03-.78c.1-.13.2-.24.36-.34v-.03a.7.7 0 0 1-.21-.2.64.64 0 0 1-.08-.34.6.6 0 0 1 .11-.36c.08-.1.16-.19.25-.25v-.02c-.11-.1-.21-.22-.3-.37a1.22 1.22 0 0 1-.03-1.02 1.15 1.15 0 0 1 .67-.6 1.45 1.45 0 0 1 .94 0h1.14v.43h-.67c.07.08.14.18.19.3.05.11.08.24.08.38 0 .18-.03.34-.1.48-.06.14-.15.26-.25.36-.11.1-.24.17-.4.22a1.3 1.3 0 0 1-.71.06 1.5 1.5 0 0 1-.25-.09c-.05.05-.1.1-.14.17a.4.4 0 0 0-.07.22c0 .1.04.2.13.26.08.07.23.1.46.1h.64c.38 0 .67.07.86.2.2.12.29.31.29.6 0 .15-.04.29-.12.43a1.1 1.1 0 0 1-.33.36c-.14.1-.32.19-.53.25-.2.06-.43.1-.69.1zm0-2.94a.65.65 0 0 0 .49-.2.7.7 0 0 0 .15-.25q.06-.15.06-.33c0-.25-.07-.44-.2-.57a.67.67 0 0 0-.5-.2c-.2 0-.36.07-.5.2-.13.13-.2.32-.2.57q0 .18.06.33c.03.1.08.18.14.24.07.07.15.12.23.16a.7.7 0 0 0 .27.05m.08 2.56a1.4 1.4 0 0 0 .76-.22.7.7 0 0 0 .21-.2.5.5 0 0 0 .08-.26c0-.15-.06-.26-.17-.32a1.1 1.1 0 0 0-.5-.08h-.57a1.8 1.8 0 0 1-.43-.06.9.9 0 0 0-.25.27.57.57 0 0 0-.08.29c0 .17.08.31.25.42.17.1.4.15.7.15zm1.95-2.63v-.42h1.56v.42zm3.25 1.57c-.24 0-.46-.04-.68-.13-.2-.08-.4-.2-.55-.32l.28-.38c.14.12.29.22.44.29s.33.1.53.1c.21 0 .38-.04.49-.14.1-.1.16-.22.16-.37a.4.4 0 0 0-.07-.22 1.1 1.1 0 0 0-.41-.3l-.27-.1a6 6 0 0 1-.36-.14 1.06 1.06 0 0 1-.54-.45.7.7 0 0 1-.09-.36.86.86 0 0 1 .3-.66.8.8 0 0 1 .36-.2 1.46 1.46 0 0 1 1.05.03c.17.07.32.16.45.26l-.26.36a1.8 1.8 0 0 0-.36-.21 1 1 0 0 0-.4-.08c-.2 0-.36.04-.46.14s-.14.2-.14.33c0 .08.02.15.06.2.04.06.1.1.16.15l.23.12a12 12 0 0 1 .63.24c.13.05.23.12.33.2a.77.77 0 0 1 .33.67c0 .12-.03.25-.09.37a.85.85 0 0 1-.23.31c-.1.1-.22.16-.38.21a1.5 1.5 0 0 1-.51.08m2.88 0a1 1 0 0 1-.44-.08.8.8 0 0 1-.3-.22.9.9 0 0 1-.15-.35 2 2 0 0 1-.05-.45v-1.82h-.49v-.42l.52-.04.07-.92h.46v.92h.9v.46h-.9v1.83c0 .2.04.36.11.48.08.1.21.16.4.16l.2-.03.18-.06.1.42a2.6 2.6 0 0 1-.6.12zm1.26-.08v-3.3h.46l.05.6h.02c.11-.2.25-.37.4-.5a.88.88 0 0 1 .88-.12l-.1.5-.15-.04a.75.75 0 0 0-.61.16c-.15.1-.28.3-.4.58v2.12zm2.95.08c-.28 0-.51-.08-.7-.24a.88.88 0 0 1-.27-.7.9.9 0 0 1 .48-.82c.33-.2.84-.33 1.55-.4 0-.11-.02-.22-.04-.31a.7.7 0 0 0-.1-.27.5.5 0 0 0-.21-.18.66.66 0 0 0-.33-.08c-.2 0-.37.04-.54.11s-.32.16-.45.25l-.21-.4c.15-.1.34-.19.56-.28.22-.1.46-.14.73-.14.4 0 .7.13.88.38.18.24.27.57.27.98v2.02h-.46l-.05-.4h-.02c-.16.14-.33.25-.51.35a1.3 1.3 0 0 1-.58.13m.16-.44c.16 0 .3-.04.45-.11.14-.08.29-.2.44-.34v-.91c-.27.03-.5.08-.7.13-.18.05-.33.1-.45.17a.7.7 0 0 0-.25.24.56.56 0 0 0-.07.29c0 .19.05.32.17.4a.7.7 0 0 0 .4.13zm3.44.44c-.18 0-.32-.02-.45-.08a.8.8 0 0 1-.29-.22.9.9 0 0 1-.15-.35 2 2 0 0 1-.05-.45v-1.82h-.49v-.42l.51-.04.07-.92h.47v.92h.9v.46h-.9v1.83c0 .2.04.36.11.48.08.1.21.16.4.16l.2-.03.17-.06.11.42a2.6 2.6 0 0 1-.6.12zm2.5 0c-.22 0-.43-.04-.62-.11-.2-.08-.36-.2-.5-.34a1.6 1.6 0 0 1-.34-.55 2 2 0 0 1-.12-.72 2 2 0 0 1 .12-.73c.09-.21.2-.4.33-.55a1.43 1.43 0 0 1 1.59-.35c.16.07.3.18.41.31.11.14.2.3.26.5a2.15 2.15 0 0 1 .06.95h-2.22c.02.35.13.63.32.84q.3.3.78.3c.16 0 .3-.02.43-.06.14-.05.27-.12.39-.2l.2.37c-.15.1-.3.17-.49.24-.17.07-.37.1-.6.1m-1.04-2h1.77c0-.33-.07-.58-.22-.75a.72.72 0 0 0-.6-.27.9.9 0 0 0-.34.07.9.9 0 0 0-.28.2c-.09.09-.16.2-.22.32-.05.13-.09.27-.1.44zm4.12 3.44c-.2 0-.4-.02-.56-.06-.17-.04-.31-.1-.43-.17a.9.9 0 0 1-.28-.28.75.75 0 0 1 .03-.78c.09-.13.2-.24.36-.34v-.03a.7.7 0 0 1-.22-.2.64.64 0 0 1-.08-.34.6.6 0 0 1 .12-.36c.08-.1.16-.19.24-.25v-.02c-.1-.1-.2-.22-.3-.37a1.1 1.1 0 0 1-.12-.52 1.1 1.1 0 0 1 .37-.86c.1-.1.24-.18.39-.24a1.44 1.44 0 0 1 .95 0h1.14v.43h-.68c.08.08.14.18.2.3.05.11.08.24.08.38a1.12 1.12 0 0 1-.35.84c-.12.1-.25.17-.4.22a1.33 1.33 0 0 1-.71.06 1.5 1.5 0 0 1-.25-.09c-.06.05-.1.1-.15.17a.4.4 0 0 0-.06.22c0 .1.04.2.12.26.09.07.24.1.47.1h.63c.39 0 .68.07.87.2.19.12.29.31.29.6 0 .15-.04.29-.12.43a1.1 1.1 0 0 1-.33.36c-.15.1-.32.19-.53.25-.2.06-.44.1-.7.1zm0-2.94a.65.65 0 0 0 .49-.21.7.7 0 0 0 .15-.24q.06-.15.06-.33c0-.25-.07-.44-.2-.57a.67.67 0 0 0-.5-.2c-.2 0-.36.07-.5.2-.13.13-.2.32-.2.57 0 .12.02.23.05.33q.06.15.15.24a.7.7 0 0 0 .5.21m.08 2.56a1.4 1.4 0 0 0 .76-.22c.09-.06.16-.13.21-.2a.5.5 0 0 0 .07-.26c0-.15-.05-.26-.17-.32a1.1 1.1 0 0 0-.5-.08h-.56a1.8 1.8 0 0 1-.43-.06.9.9 0 0 0-.26.27.57.57 0 0 0-.08.29c0 .17.09.31.25.42.18.1.41.15.7.15zm2.38.28c-.08 0-.15 0-.21-.02a.7.7 0 0 1-.18-.05l.11-.44a3 3 0 0 0 .25.05c.2 0 .34-.07.46-.2.13-.14.22-.3.29-.5l.07-.25-1.32-3.3h.58l.67 1.82.32.93h.02a9 9 0 0 0 .28-.93l.6-1.83h.54l-1.25 3.57c-.06.17-.12.32-.2.46-.07.14-.15.26-.25.36a1.05 1.05 0 0 1-.78.33m3.17-1.34a.4.4 0 0 1-.3-.11.43.43 0 0 1-.11-.3c0-.14.04-.24.11-.32a.4.4 0 0 1 .57 0c.09.08.13.18.13.31 0 .12-.04.23-.13.3a.38.38 0 0 1-.27.12m1.4 1.31v-4.69h.46l.04.38h.02c.15-.12.31-.23.5-.32.17-.1.36-.14.56-.14s.4.04.56.12.3.2.4.34c.11.15.2.32.25.53a2.5 2.5 0 0 1-.03 1.45c-.07.22-.18.4-.31.55q-.195.24-.45.36c-.18.07-.36.11-.55.11-.15 0-.3-.03-.46-.1-.15-.07-.3-.16-.45-.28l.01.58v1.11h-.56zm1.36-1.78a.8.8 0 0 0 .37-.08.9.9 0 0 0 .3-.26c.09-.11.15-.25.2-.42a2.4 2.4 0 0 0 .03-1.04 1.1 1.1 0 0 0-.16-.38.7.7 0 0 0-.27-.25.9.9 0 0 0-.82.03c-.14.07-.3.18-.46.33v1.73c.15.13.3.22.43.27.14.05.27.07.38.07m3.52.47c-.41 0-.74-.15-1-.44-.24-.3-.36-.73-.36-1.28 0-.27.04-.5.12-.72s.18-.4.31-.55c.14-.15.29-.27.46-.35a1.25 1.25 0 0 1 1.04-.02c.14.07.28.16.43.28l-.03-.56v-1.27h.56v4.83h-.46l-.05-.39h-.02c-.13.13-.28.24-.45.34-.17.09-.35.13-.55.13m.13-.47a.9.9 0 0 0 .43-.1c.14-.08.27-.2.4-.35v-1.72a1.3 1.3 0 0 0-.4-.27 1 1 0 0 0-.4-.08.8.8 0 0 0-.37.1.9.9 0 0 0-.3.25c-.08.11-.15.24-.2.4-.05.15-.07.32-.07.51q0 .6.24.93c.15.22.38.33.67.33m2.6.4v-2.85h-.44v-.42l.45-.04V315c0-.34.07-.6.23-.8s.4-.3.73-.3c.1 0 .2.02.3.04.09.02.17.04.25.08l-.12.42a.9.9 0 0 0-.37-.08c-.31 0-.47.21-.47.64v.52h.7v.46h-.7v2.84h-.55z"/><path fill="#fff" stroke="#E8E8E8" stroke-width=".84" d="M226.14 292.98c0-.7.57-1.25 1.26-1.25h18.26l6.45 6.45v24.96c0 .7-.56 1.26-1.25 1.26H227.4c-.7 0-1.26-.56-1.26-1.26z"/><path fill="#E8E8E8" d="m245.83 291.3 3.35 3.36 3.35 3.35h-6.7v-6.7z"/><rect width="20.35" height="12" x="222.25" y="307.93" fill="#F23030" rx="1.68"/><path fill="#fff" d="M225.05 316.93v-6.01h2.06c.33 0 .65.03.93.1a2 2 0 0 1 .76.32c.21.15.38.35.5.6.14.25.2.55.2.91 0 .35-.06.66-.2.92-.12.25-.29.47-.5.63-.22.17-.46.3-.75.37a3.3 3.3 0 0 1-.9.12h-.75v2.04zm1.35-3.12h.67c.74 0 1.1-.32 1.1-.96 0-.3-.1-.53-.3-.66-.19-.13-.47-.2-.84-.2h-.63zm4.14 3.12v-6.01h1.7c.45 0 .87.06 1.24.17.37.12.68.3.95.55.26.24.47.55.6.92.15.37.22.82.22 1.34 0 .51-.07.96-.21 1.34s-.34.7-.6.95-.57.43-.93.55c-.36.13-.76.19-1.2.19zm1.35-1.1h.26c.26 0 .5-.03.7-.1.21-.07.39-.18.54-.32.14-.16.26-.36.34-.6.08-.25.13-.55.13-.91s-.05-.66-.13-.9-.2-.44-.34-.58a1.24 1.24 0 0 0-.54-.31c-.2-.06-.44-.1-.7-.1h-.26zm4.5 1.1v-6.01h3.79v1.14h-2.44v1.4h2.09v1.14h-2.09v2.33z"/><path fill="#E8E8E8" d="M239.78 331.25h354.63v.42H239.77z"/><path fill="#757575" d="M475.72 359.97v-.46h1v-3.2h-.8v-.35c.2-.04.38-.08.52-.13.15-.06.29-.12.4-.2h.43v3.88h.9v.46zm4.66.08a1.34 1.34 0 0 1-1.07-.51 2.1 2.1 0 0 1-.3-.66 3.9 3.9 0 0 1 .02-2.02c.08-.3.2-.56.36-.75.15-.2.33-.33.52-.42.2-.09.4-.13.63-.13s.43.04.6.13.32.2.44.33l-.31.34a1 1 0 0 0-.33-.24.8.8 0 0 0-.38-.1c-.15 0-.3.04-.43.1a.93.93 0 0 0-.36.31c-.1.15-.19.34-.25.57s-.1.52-.1.86c.13-.16.29-.3.47-.4.18-.09.36-.14.54-.14q.555 0 .9.33c.22.22.33.56.33 1a1.37 1.37 0 0 1-.38 1c-.12.13-.25.23-.4.3-.16.06-.32.1-.5.1m0-.44c.1 0 .2-.03.3-.07.09-.05.17-.1.24-.2a.9.9 0 0 0 .15-.29c.04-.12.06-.25.06-.4 0-.28-.06-.5-.2-.66-.13-.17-.33-.25-.6-.25-.14 0-.29.05-.45.14-.17.08-.31.23-.45.43.04.43.13.75.3.97.15.22.37.33.65.33m4.3-2.13-.22.67h1.34l-.21-.67a27 27 0 0 1-.45-1.5h-.03a32 32 0 0 1-.44 1.5zm-1.37 2.49 1.51-4.46h.64l1.5 4.46h-.6l-.42-1.36h-1.62l-.43 1.36zm4.23 1.39v-4.7h.46l.05.39h.02c.15-.13.31-.24.49-.33s.37-.13.56-.13c.22 0 .4.04.57.12.16.08.3.19.4.34.11.14.2.32.25.53q.09.3.09.69 0 .42-.12.75c-.08.22-.18.4-.31.56a1.31 1.31 0 0 1-1 .47c-.15 0-.3-.04-.46-.1-.15-.07-.3-.16-.46-.28l.02.57v1.12zm1.37-1.78a.8.8 0 0 0 .37-.09.9.9 0 0 0 .3-.26c.08-.1.15-.25.2-.41a2.4 2.4 0 0 0 .03-1.05 1.1 1.1 0 0 0-.16-.38.7.7 0 0 0-.28-.25.8.8 0 0 0-.39-.08.9.9 0 0 0-.43.11q-.21.12-.45.33v1.73c.15.13.3.22.43.28.14.05.27.07.38.07m2.4.39v-3.3h.46l.05.6h.02c.1-.21.25-.38.4-.5a.88.88 0 0 1 .88-.12l-.1.5-.15-.05a.75.75 0 0 0-.61.16c-.15.11-.28.3-.4.59v2.12zm3.42 0v-.34l.87-.88c.25-.26.47-.5.64-.72.17-.23.3-.44.4-.62.08-.2.13-.38.13-.55a.9.9 0 0 0-.2-.61c-.14-.16-.35-.24-.62-.24a.9.9 0 0 0-.5.16 2 2 0 0 0-.43.36l-.31-.32c.18-.2.37-.35.57-.47s.45-.19.74-.19c.4 0 .72.12.95.36.23.23.34.54.34.92 0 .2-.04.41-.13.62-.09.2-.21.42-.37.64-.15.21-.34.44-.56.68-.2.24-.44.49-.7.76l.72-.04h1.26v.48zm4.8.08c-.44 0-.78-.2-1.03-.59a3.17 3.17 0 0 1-.37-1.67c0-.73.13-1.28.37-1.66q.375-.57 1.02-.57.66 0 1.02.57c.25.38.37.93.37 1.66s-.12 1.29-.37 1.67c-.24.4-.58.59-1.02.59zm0-.45c.12 0 .24-.03.33-.1.1-.07.2-.18.27-.33.08-.15.13-.33.18-.56a4.9 4.9 0 0 0 0-1.64c-.05-.22-.1-.4-.18-.55a.8.8 0 0 0-.27-.31.6.6 0 0 0-.34-.1.6.6 0 0 0-.34.1c-.1.06-.2.17-.27.31-.08.14-.13.33-.17.55-.04.23-.06.5-.06.82 0 .63.07 1.1.23 1.38.16.29.36.43.61.43zm1.95.37v-.34l.87-.88c.25-.26.46-.5.64-.72.17-.23.3-.44.4-.62.08-.2.13-.38.13-.55a.9.9 0 0 0-.2-.61q-.21-.24-.63-.24a.9.9 0 0 0-.5.16c-.15.1-.3.22-.42.36l-.32-.32c.18-.2.38-.35.58-.47s.45-.19.73-.19c.4 0 .72.12.95.36.23.23.35.54.35.92 0 .2-.05.41-.14.62a3 3 0 0 1-.36.64c-.16.21-.34.44-.56.68l-.7.76a61 61 0 0 1 .72-.04h1.26v.48zm4.8.08c-.45 0-.79-.2-1.03-.59a3.17 3.17 0 0 1-.37-1.67c0-.73.12-1.28.37-1.66q.36-.57 1.02-.57t1.02.57c.25.38.37.93.37 1.66s-.13 1.29-.37 1.67c-.24.4-.58.59-1.02.59zm0-.45c.12 0 .23-.03.33-.1s.2-.18.27-.33.13-.33.17-.56a4.9 4.9 0 0 0 0-1.64c-.04-.22-.1-.4-.17-.55a.8.8 0 0 0-.27-.31.62.62 0 0 0-.69 0c-.1.06-.19.17-.26.31-.08.14-.13.33-.18.55-.04.23-.06.5-.06.82 0 .63.08 1.1.23 1.38.16.29.37.43.62.43zm-89.31.45a1.97 1.97 0 0 1-1.42-.6l.27-.36c.13.13.28.25.45.35a1.3 1.3 0 0 0 1.01.08.93.93 0 0 0 .5-.52c.06-.12.09-.25.09-.4 0-.3-.09-.54-.25-.7a.9.9 0 0 0-.68-.25c-.14 0-.27.02-.38.06l-.36.2-.3-.19.15-2.08h2.16v.48h-1.67l-.12 1.28c.1-.05.2-.1.31-.13a1.6 1.6 0 0 1 .88.03 1.17 1.17 0 0 1 .71.68c.07.17.11.37.11.6a1.4 1.4 0 0 1-1.46 1.47m5.5 0c-.29 0-.56-.05-.8-.16-.25-.1-.46-.25-.64-.45-.17-.2-.31-.44-.41-.72a3 3 0 0 1-.15-.98q0-.54.15-.96c.1-.29.24-.53.43-.73.18-.2.4-.35.64-.45a2.07 2.07 0 0 1 1.24-.12c.13.03.25.07.36.13.1.05.2.1.28.18.09.06.16.13.22.2l-.3.36a1.6 1.6 0 0 0-.4-.3 1.2 1.2 0 0 0-.56-.12c-.23 0-.43.04-.62.13-.18.08-.33.2-.46.36a1.7 1.7 0 0 0-.3.56 2.8 2.8 0 0 0 0 1.5c.06.23.16.42.28.58a1.3 1.3 0 0 0 1.1.5c.16 0 .3-.03.45-.07a1 1 0 0 0 .35-.2v-1.16h-.94v-.47h1.46v1.87c-.15.15-.34.28-.57.38-.24.1-.5.14-.8.14zm2.44-.08v-4.46h1.33c.22 0 .43.03.62.07s.35.1.48.19c.13.08.24.2.31.34a1 1 0 0 1 .12.5c0 .21-.06.41-.17.6a.83.83 0 0 1-.49.36v.03c.27.05.5.16.66.34a1 1 0 0 1 .25.72q0 .33-.12.57c-.08.17-.2.3-.34.41-.15.11-.33.2-.54.25-.2.05-.44.08-.69.08h-1.41zm.57-2.56h.66c.38 0 .65-.07.82-.2a.65.65 0 0 0 .25-.53c0-.26-.09-.45-.27-.55-.17-.11-.43-.17-.78-.17h-.68zm0 2.1h.77c.39 0 .69-.06.9-.2.21-.15.32-.37.32-.67 0-.27-.1-.47-.32-.6a1.7 1.7 0 0 0-.9-.2h-.77v1.68z"/><path fill="#212121" d="M226.79 360.05a1.81 1.81 0 0 1-1.4-.6 2.2 2.2 0 0 1-.4-.73c-.1-.3-.14-.62-.14-.98s.05-.68.15-.96c.1-.29.24-.53.41-.73a1.9 1.9 0 0 1 1.41-.62c.28 0 .51.06.72.17.2.11.37.24.5.38l-.3.37a1.4 1.4 0 0 0-.4-.3 1.27 1.27 0 0 0-1.53.37 1.7 1.7 0 0 0-.28.56 2.8 2.8 0 0 0 0 1.5c.07.23.16.42.28.58.11.16.26.28.42.36.18.09.37.13.58.13.22 0 .4-.04.57-.13.16-.09.32-.21.46-.37l.31.35c-.17.2-.37.37-.6.48-.22.11-.47.17-.76.17m2.76-.08-1.19-3.3h.58l.62 1.87.3.97h.04l.14-.48.16-.49.62-1.87h.55l-1.17 3.3zm2.13-1.49v-.43h1.56v.43zm3.35 1.57c-.35 0-.61-.11-.77-.33a1.62 1.62 0 0 1-.24-.96v-2.1h.56v2.02c0 .32.05.54.14.68.1.14.26.2.48.2.17 0 .32-.04.46-.12.13-.1.27-.24.43-.43v-2.34h.56v3.3h-.47l-.04-.52h-.02c-.16.18-.32.33-.5.44-.16.1-.36.16-.59.16m2.73 1.3v-4.68h.46l.05.38h.02c.15-.13.31-.24.49-.33s.37-.13.56-.13c.21 0 .4.04.56.12.17.08.3.19.41.34.1.14.19.32.25.53a2.53 2.53 0 0 1-.03 1.44c-.08.22-.18.4-.31.56-.14.15-.29.27-.46.35q-.255.12-.54.12c-.16 0-.31-.04-.46-.1-.15-.07-.3-.16-.46-.28l.01.57v1.12h-.55zm1.36-1.77a.8.8 0 0 0 .38-.09.9.9 0 0 0 .3-.26c.08-.1.15-.25.2-.41a2.36 2.36 0 0 0 .03-1.05 1 1 0 0 0-.17-.38.7.7 0 0 0-.27-.25.8.8 0 0 0-.4-.08.9.9 0 0 0-.42.11c-.14.08-.3.19-.46.33v1.73c.15.13.3.22.44.28.14.05.26.07.37.07m3.53.47c-.42 0-.75-.15-1-.45-.24-.3-.37-.72-.37-1.28 0-.26.04-.5.12-.71.08-.22.19-.4.32-.56.13-.14.28-.26.46-.34a1.25 1.25 0 0 1 1.03-.02c.14.07.29.16.43.28l-.03-.57v-1.26h.57v4.83h-.47l-.04-.39h-.02c-.13.13-.28.24-.46.33-.16.1-.35.14-.54.14m.12-.47c.16 0 .3-.04.44-.1.13-.09.27-.2.4-.36v-1.72a1.3 1.3 0 0 0-.4-.26 1 1 0 0 0-.4-.08.8.8 0 0 0-.37.09.9.9 0 0 0-.3.26c-.08.1-.15.24-.2.4-.05.15-.08.32-.08.5 0 .4.08.72.24.94s.38.33.67.33m3.28.47a1 1 0 0 1-.7-.25.88.88 0 0 1-.27-.69.9.9 0 0 1 .49-.83c.32-.2.83-.33 1.54-.4 0-.1-.02-.2-.04-.3a.7.7 0 0 0-.1-.27.53.53 0 0 0-.21-.19.66.66 0 0 0-.33-.07c-.2 0-.37.03-.54.1a2.6 2.6 0 0 0-.45.25l-.21-.38c.15-.1.34-.2.56-.29.22-.1.47-.14.73-.14.4 0 .7.12.88.37s.27.57.27.99v2.02h-.46l-.05-.4h-.02c-.16.13-.33.25-.5.34a1.3 1.3 0 0 1-.6.14zm.16-.45c.16 0 .3-.04.45-.1.14-.08.29-.2.45-.34v-.92c-.28.04-.51.08-.7.13s-.34.11-.46.18a.7.7 0 0 0-.25.24.56.56 0 0 0-.07.28c0 .2.05.33.17.4.11.09.25.13.41.13m3.44.45c-.17 0-.32-.03-.44-.08a.8.8 0 0 1-.3-.23.9.9 0 0 1-.15-.34 2 2 0 0 1-.05-.45v-1.83h-.49v-.42l.52-.03.06-.92h.47v.92h.9v.45h-.9v1.84c0 .2.04.36.11.47.08.1.21.16.4.16.06 0 .12 0 .2-.02l.18-.06.1.42a2.3 2.3 0 0 1-.6.12zm2.5 0a1.58 1.58 0 0 1-1.13-.45 1.7 1.7 0 0 1-.33-.55 2 2 0 0 1-.12-.73 1.77 1.77 0 0 1 .46-1.28 1.42 1.42 0 0 1 1.58-.34c.16.07.3.17.41.3.11.14.2.3.26.5a2.14 2.14 0 0 1 .07.95h-2.23c.02.36.13.64.33.85.2.2.45.3.77.3.16 0 .3-.02.44-.07.13-.05.26-.11.38-.19l.2.37c-.15.09-.3.17-.48.24-.18.06-.38.1-.6.1zm-1.04-2h1.77c0-.33-.07-.59-.22-.76a.72.72 0 0 0-.6-.26.9.9 0 0 0-.34.07c-.1.04-.2.1-.28.2-.09.09-.16.2-.22.32-.05.13-.09.27-.1.43zm4.2 2c-.42 0-.75-.15-1-.45-.24-.3-.37-.72-.37-1.28 0-.26.04-.5.12-.71.08-.22.19-.4.32-.56.13-.14.28-.26.45-.34a1.26 1.26 0 0 1 1.04-.02c.14.07.28.16.43.28l-.03-.57v-1.26h.57v4.83h-.46l-.05-.39h-.02c-.13.13-.29.24-.46.33-.16.1-.35.14-.54.14m.12-.47a.9.9 0 0 0 .44-.1c.13-.09.27-.2.4-.36v-1.72a1.3 1.3 0 0 0-.4-.26 1 1 0 0 0-.4-.08.8.8 0 0 0-.37.09.9.9 0 0 0-.3.26c-.09.1-.15.24-.2.4a1.7 1.7 0 0 0-.08.5c0 .4.08.72.24.94s.38.33.67.33m2.8.47a.4.4 0 0 1-.28-.12.43.43 0 0 1-.12-.3c0-.13.04-.24.12-.31a.4.4 0 0 1 .29-.13c.1 0 .2.04.28.13a.4.4 0 0 1 .12.3c0 .13-.04.23-.12.31a.38.38 0 0 1-.28.12zm1.06-.08v-.3l1.74-2.55h-1.55v-.45h2.25v.3L260 359.5h1.79v.46h-2.5zm3.23 0v-3.3h.56v3.3zm.29-3.98a.4.4 0 0 1-.28-.1.34.34 0 0 1-.11-.26c0-.1.03-.2.1-.26a.4.4 0 0 1 .29-.1c.1 0 .2.03.27.1s.11.15.11.26c0 .1-.04.19-.11.26a.38.38 0 0 1-.27.1m1.38 5.37v-4.7h.46l.05.39h.02c.15-.13.31-.24.49-.33s.37-.13.56-.13c.22 0 .4.04.56.12.17.08.3.19.41.34.11.14.2.32.25.53.06.2.08.43.08.69 0 .28-.03.53-.11.75s-.18.4-.31.56a1.31 1.31 0 0 1-1 .47c-.15 0-.3-.04-.46-.1-.15-.07-.3-.16-.46-.28l.02.57v1.12zm1.37-1.78a.8.8 0 0 0 .37-.09.9.9 0 0 0 .3-.26c.08-.1.15-.25.2-.41a2.4 2.4 0 0 0 .03-1.05 1 1 0 0 0-.17-.38.7.7 0 0 0-.27-.25.8.8 0 0 0-.4-.08.9.9 0 0 0-.42.11q-.21.12-.45.33v1.73c.15.13.3.22.43.28.14.05.27.07.38.07"/><path fill="#fff" stroke="#E8E8E8" stroke-width=".59" d="M197.91 344.27c0-.5.4-.9.9-.9h12.94l4.57 4.58v17.7c0 .49-.4.89-.89.89H198.8a.9.9 0 0 1-.89-.9z"/><path fill="#E8E8E8" d="m211.87 343.08 2.38 2.38 2.37 2.37h-4.75z"/><rect width="12.38" height="8" x="194.99" y="355.12" fill="#1A1A1A" rx="1.19"/><path fill="#fff" d="M196.72 361.12v-.59l1.88-2.86h-1.7v-.81h2.88v.58l-1.88 2.87h1.9v.8h-3.08zm3.8 0v-4.26h.96v4.25h-.96zm1.97 0v-4.26h1.46c.24 0 .46.02.66.07.2.04.38.12.53.23q.24.15.36.42c.1.18.14.39.14.65 0 .25-.04.46-.14.64-.08.19-.2.34-.35.45-.16.12-.33.21-.53.27-.2.05-.42.08-.64.08h-.53v1.44h-.96zm.96-2.21h.47c.52 0 .78-.23.78-.68 0-.23-.07-.38-.2-.47a1.1 1.1 0 0 0-.6-.14h-.45z"/><rect width="8.48" height="8.48" x="176.9" y="352.73" fill="#05F" rx=".85"/><path fill="#fff" fill-rule="evenodd" d="m183.1 354.85.59.54-3.55 3.7-1.54-1.61.56-.57.98 1.03 2.96-3.1z" clip-rule="evenodd"/><path fill="#E8E8E8" d="M195.24 372.4h354.62v.41H195.24z"/><path fill="#757575" d="M523.24 401.11v-.46h.99v-3.19h-.79v-.36c.2-.03.37-.08.52-.13s.28-.12.4-.19h.42v3.87h.9v.46zm4.65.08c-.2 0-.4-.04-.59-.12a1.3 1.3 0 0 1-.47-.4 2.1 2.1 0 0 1-.31-.64 3.93 3.93 0 0 1 .02-2.02c.09-.31.2-.56.36-.75.16-.2.33-.34.52-.42.2-.1.41-.14.63-.14.24 0 .44.05.6.14.18.08.32.2.45.32l-.32.35a1 1 0 0 0-.32-.25.8.8 0 0 0-.39-.09c-.15 0-.3.03-.43.1a.93.93 0 0 0-.36.3c-.1.15-.18.34-.25.58-.06.23-.1.52-.1.86.14-.17.3-.3.48-.4s.36-.14.53-.14c.38 0 .67.1.9.33.22.22.34.56.34 1a1.35 1.35 0 0 1-.79 1.29c-.15.07-.32.1-.5.1m0-.44q.165 0 .3-.06c.1-.05.17-.11.24-.2a.9.9 0 0 0 .16-.3q.06-.165.06-.39c0-.28-.07-.5-.2-.67q-.195-.24-.6-.24c-.14 0-.3.04-.46.13s-.31.23-.45.44c.04.42.14.75.3.97.16.21.38.32.65.32m4.3-2.13-.22.68h1.34l-.2-.68a31 31 0 0 1-.46-1.5h-.02a32 32 0 0 1-.45 1.5zm-1.36 2.5 1.5-4.46h.64l1.5 4.45h-.6l-.42-1.35h-1.62l-.43 1.35h-.57zm4.22 1.38v-4.69h.47l.04.38h.03c.14-.12.3-.23.48-.32.18-.1.37-.14.57-.14s.4.04.56.13c.16.07.3.19.4.33.12.15.2.33.25.53a2.53 2.53 0 0 1-.03 1.45c-.07.22-.18.4-.3.56-.14.15-.3.27-.46.35-.17.08-.35.11-.54.11-.16 0-.31-.03-.47-.1-.15-.06-.3-.16-.45-.28l.01.58v1.11zm1.37-1.77a.8.8 0 0 0 .37-.1.9.9 0 0 0 .3-.25c.09-.11.15-.25.2-.41a2.36 2.36 0 0 0 .03-1.05 1 1 0 0 0-.16-.38.7.7 0 0 0-.27-.25.8.8 0 0 0-.4-.09.9.9 0 0 0-.42.12c-.14.07-.3.19-.46.33v1.73c.15.13.3.22.44.27s.26.08.37.08m2.4.38v-3.3h.46l.05.6h.02c.11-.2.25-.37.4-.5a.88.88 0 0 1 .88-.12l-.1.5-.15-.04a.76.76 0 0 0-.61.16c-.15.1-.28.3-.4.58v2.12zm3.43 0v-.33l.87-.88c.25-.26.46-.5.63-.73.17-.22.3-.43.4-.62.09-.19.13-.37.13-.55a.9.9 0 0 0-.2-.6c-.14-.16-.34-.24-.62-.24a.9.9 0 0 0-.5.15c-.16.1-.3.22-.42.37l-.32-.32c.18-.2.37-.36.58-.48.2-.12.44-.18.73-.18.4 0 .72.12.95.35.23.24.35.54.35.93 0 .2-.05.4-.14.62-.09.2-.2.41-.37.63-.15.22-.34.45-.55.69l-.7.75.72-.04h1.25v.48h-2.8zm4.79.08c-.44 0-.78-.19-1.03-.58a3.17 3.17 0 0 1-.36-1.68c0-.72.12-1.28.36-1.66.25-.38.59-.57 1.03-.57.43 0 .77.2 1.02.57.24.38.36.94.36 1.66 0 .73-.12 1.3-.36 1.68-.25.39-.59.58-1.02.58m0-.44c.13 0 .24-.04.34-.1.1-.08.19-.19.26-.33.08-.15.14-.34.18-.56a4.8 4.8 0 0 0-.18-2.19.8.8 0 0 0-.26-.32.6.6 0 0 0-.34-.1.6.6 0 0 0-.35.1c-.1.07-.2.18-.27.32a2 2 0 0 0-.17.55 4.74 4.74 0 0 0 .17 2.2c.16.28.37.43.62.43m1.95.36v-.33l.87-.88c.26-.26.47-.5.64-.73.17-.22.3-.43.4-.62.09-.19.13-.37.13-.55a.9.9 0 0 0-.2-.6c-.14-.16-.35-.24-.62-.24a.9.9 0 0 0-.5.15c-.16.1-.3.22-.42.37l-.32-.32q.27-.3.57-.48c.2-.12.45-.18.74-.18.4 0 .72.12.95.35.23.24.34.54.34.93 0 .2-.04.4-.13.62-.09.2-.21.41-.37.63-.15.22-.34.45-.56.69-.2.23-.44.48-.7.75l.72-.04h1.26v.48zm4.8.08c-.44 0-.78-.19-1.03-.58a3.17 3.17 0 0 1-.37-1.68c0-.72.13-1.28.37-1.66.25-.38.59-.57 1.03-.57.43 0 .77.2 1.01.57.25.38.37.94.37 1.66 0 .73-.12 1.3-.37 1.68-.24.39-.58.58-1.01.58m0-.44c.12 0 .24-.04.34-.1.1-.08.19-.19.26-.33.08-.15.14-.34.18-.56a4.8 4.8 0 0 0-.18-2.19.8.8 0 0 0-.26-.32.6.6 0 0 0-.34-.1.6.6 0 0 0-.35.1c-.1.07-.2.18-.27.32s-.13.32-.17.55q-.06.345-.06.81c0 .64.07 1.1.23 1.39.16.28.36.43.62.43m-89.31.45a1.96 1.96 0 0 1-1.42-.6l.27-.36c.13.13.28.24.45.34a1.3 1.3 0 0 0 1.01.09.95.95 0 0 0 .58-.93c0-.3-.08-.53-.25-.7a.9.9 0 0 0-.67-.25 1 1 0 0 0-.38.07c-.1.04-.23.11-.36.2l-.3-.2.15-2.08h2.16v.49h-1.68l-.11 1.28c.1-.06.2-.1.31-.13.1-.03.22-.05.35-.05.19 0 .36.03.53.08a1.15 1.15 0 0 1 .7.67q.12.255.12.6a1.41 1.41 0 0 1-.92 1.37c-.17.07-.35.1-.54.1zm5.5 0c-.29 0-.56-.06-.81-.16q-.36-.15-.63-.45c-.27-.3-.31-.44-.42-.73a3 3 0 0 1-.14-.97c0-.36.05-.68.14-.97.1-.28.25-.52.43-.72s.4-.35.65-.46a2.07 2.07 0 0 1 1.24-.11c.13.03.25.07.35.13a1.7 1.7 0 0 1 .51.37l-.31.37a1.6 1.6 0 0 0-.4-.3 1.2 1.2 0 0 0-.56-.13c-.22 0-.43.05-.6.13-.19.09-.34.2-.47.36s-.23.34-.3.57a2.8 2.8 0 0 0 0 1.5c.06.23.16.42.28.57.13.16.28.28.46.37.19.09.4.13.64.13.16 0 .3-.02.45-.07a.9.9 0 0 0 .35-.2v-1.16h-.94v-.46h1.46v1.87c-.15.15-.34.27-.57.37-.24.1-.5.14-.8.14zm2.44-.09v-4.45h1.33c.22 0 .43.02.61.06.2.04.35.1.49.2.13.08.23.2.3.33a1 1 0 0 1 .12.5c0 .22-.05.42-.17.6-.1.18-.27.3-.48.37v.02c.27.05.5.17.66.34.17.18.25.42.25.73a1.11 1.11 0 0 1-.47.98c-.15.1-.32.19-.53.24-.21.06-.44.08-.69.08zm.57-2.56h.65c.38 0 .66-.06.83-.2a.65.65 0 0 0 .25-.53c0-.26-.1-.44-.27-.55-.17-.1-.43-.16-.78-.16H473v1.44zm0 2.12h.77c.38 0 .68-.07.9-.22.2-.14.31-.36.31-.66q0-.42-.3-.6c-.22-.14-.52-.2-.91-.2h-.77z"/><path fill="#212121" d="M266.68 401.11v-4.45h2.56v.48h-2v1.5h1.7v.48h-1.7v2h-.56zm3.3 0v-3.3h.55v3.3zm.28-3.97a.4.4 0 0 1-.28-.1.34.34 0 0 1-.1-.26c0-.11.03-.2.1-.26a.4.4 0 0 1 .28-.1c.1 0 .2.03.27.1.08.06.12.15.12.26 0 .1-.04.19-.12.25a.38.38 0 0 1-.27.1zm1.38 3.97v-3.3h.47l.04.48h.02c.16-.16.33-.29.5-.4.18-.1.38-.16.61-.16.35 0 .6.11.76.33s.25.54.25.96v2.1h-.56v-2.02c0-.31-.05-.54-.15-.68-.1-.13-.26-.2-.48-.2a.8.8 0 0 0-.45.12c-.13.09-.28.22-.45.38v2.4h-.56zm4.48.08c-.28 0-.51-.08-.7-.24a.88.88 0 0 1-.27-.7.9.9 0 0 1 .49-.82c.32-.2.83-.33 1.54-.4 0-.11-.02-.21-.04-.31a.7.7 0 0 0-.1-.27.53.53 0 0 0-.21-.18.66.66 0 0 0-.33-.07c-.2 0-.37.03-.54.1a2.6 2.6 0 0 0-.45.25l-.21-.39c.15-.1.34-.2.56-.28.22-.1.46-.15.73-.15.4 0 .7.13.88.38.18.24.27.57.27.98v2.02h-.46l-.05-.4h-.02c-.16.14-.33.25-.51.35a1.3 1.3 0 0 1-.58.13m.16-.44c.16 0 .3-.04.45-.11.14-.08.29-.19.44-.33v-.92c-.27.04-.5.08-.7.13-.18.05-.33.1-.45.18a.7.7 0 0 0-.25.23.56.56 0 0 0-.07.29c0 .19.05.32.17.4.1.09.25.13.41.13m3.09.44c-.22 0-.37-.06-.46-.19a.95.95 0 0 1-.13-.55v-4.17h.55v4.2c0 .1.02.16.05.2.03.03.07.05.1.05h.06l.07-.01.08.42a.5.5 0 0 1-.13.04l-.2.01zm.86-1.56v-.43h1.56v.43zm2.38 2.87v-4.69h.47l.04.38h.02c.15-.12.32-.23.5-.32.17-.1.36-.14.56-.14s.4.04.56.13c.16.07.3.19.4.33.11.15.2.33.25.53a2.5 2.5 0 0 1-.03 1.45c-.07.22-.18.4-.3.56-.14.15-.3.27-.46.35-.18.08-.36.11-.55.11-.15 0-.3-.03-.46-.1-.15-.06-.3-.16-.45-.28l.01.58v1.11zm1.37-1.77a.8.8 0 0 0 .37-.1.9.9 0 0 0 .3-.25c.09-.11.15-.25.2-.41a2.36 2.36 0 0 0 .03-1.05 1 1 0 0 0-.16-.38.7.7 0 0 0-.27-.25.8.8 0 0 0-.4-.09.9.9 0 0 0-.43.12c-.13.07-.29.19-.45.33v1.73c.15.13.3.22.44.27.13.05.26.08.37.08m2.4.38v-3.3h.46l.05.6h.02c.11-.2.25-.37.4-.5a.88.88 0 0 1 .88-.12l-.1.5-.15-.04a.76.76 0 0 0-.61.16c-.15.1-.28.3-.4.58v2.12zm3.62.08c-.22 0-.43-.03-.62-.11-.2-.08-.36-.2-.5-.34a1.7 1.7 0 0 1-.34-.54 2 2 0 0 1-.12-.73 1.77 1.77 0 0 1 .45-1.28 1.42 1.42 0 0 1 1.59-.35c.17.07.3.18.41.31.11.14.2.3.26.5a2.14 2.14 0 0 1 .07.95h-2.23q.03.525.33.84c.2.2.45.3.77.3.16 0 .3-.02.44-.06.13-.05.26-.11.38-.2l.2.38c-.15.09-.3.16-.48.23s-.38.1-.6.1zm-1.04-2h1.77c0-.33-.07-.58-.22-.75a.72.72 0 0 0-.6-.27.9.9 0 0 0-.34.07 1.08 1.08 0 0 0-.5.52c-.05.13-.09.28-.1.44zm3.93 2a1.8 1.8 0 0 1-.67-.12 2.1 2.1 0 0 1-.55-.33l.27-.37c.15.11.3.2.44.28.16.07.34.11.54.11.21 0 .38-.05.48-.15.11-.1.17-.22.17-.37a.37.37 0 0 0-.07-.22.6.6 0 0 0-.18-.16.8.8 0 0 0-.24-.13l-.27-.11a6 6 0 0 1-.35-.14 1.05 1.05 0 0 1-.54-.45.7.7 0 0 1-.1-.36.87.87 0 0 1 .3-.67c.1-.08.23-.15.37-.2.14-.04.3-.07.47-.07.21 0 .4.04.57.11.18.07.33.16.46.27l-.27.35a1.7 1.7 0 0 0-.35-.21 1 1 0 0 0-.4-.08c-.2 0-.36.04-.46.14s-.14.2-.14.33c0 .08.01.15.06.2.04.06.1.11.16.16l.23.11.28.1.35.15c.12.04.23.1.33.19a.83.83 0 0 1 .32.66.9.9 0 0 1-.31.7 1.5 1.5 0 0 1-.9.3zm3.32 0c-.22 0-.43-.03-.62-.11-.2-.08-.36-.2-.5-.34a1.7 1.7 0 0 1-.34-.54 2 2 0 0 1-.12-.73 1.77 1.77 0 0 1 .46-1.28 1.43 1.43 0 0 1 1.58-.35c.16.07.3.18.41.31.12.14.2.3.26.5a2.14 2.14 0 0 1 .07.95h-2.23q.03.525.33.84c.2.2.45.3.77.3.16 0 .3-.02.44-.06.13-.05.26-.11.38-.2l.2.38c-.15.09-.3.16-.48.23s-.38.1-.6.1zm-1.04-2h1.77c0-.33-.07-.58-.22-.75a.72.72 0 0 0-.6-.27.9.9 0 0 0-.33.07c-.1.05-.2.12-.29.2-.09.1-.16.2-.22.32-.05.13-.09.28-.1.44zm3.07 1.92v-3.3h.46l.05.48h.02c.16-.16.33-.29.5-.4.17-.1.38-.16.6-.16.36 0 .61.11.77.33q.24.33.24.96v2.1h-.55v-2.02c0-.31-.05-.54-.15-.68-.1-.13-.26-.2-.48-.2a.8.8 0 0 0-.45.12c-.13.09-.28.22-.45.38v2.4h-.56zm4.75.08a1.1 1.1 0 0 1-.44-.08.8.8 0 0 1-.3-.22.9.9 0 0 1-.15-.35 2 2 0 0 1-.05-.44v-1.83h-.49v-.42l.52-.04.06-.92h.47v.93h.9v.45h-.9v1.83c0 .2.04.36.11.48.08.1.21.16.4.16.06 0 .12 0 .2-.03l.18-.06.1.42a2.4 2.4 0 0 1-.6.12zm1.87 0a1 1 0 0 1-.69-.24.88.88 0 0 1-.27-.7.9.9 0 0 1 .48-.82c.32-.2.83-.33 1.54-.4 0-.11-.01-.21-.03-.31a.7.7 0 0 0-.1-.27.53.53 0 0 0-.22-.18.7.7 0 0 0-.33-.07c-.19 0-.37.03-.53.1a2.6 2.6 0 0 0-.45.25l-.22-.39c.15-.1.34-.2.56-.28.23-.1.47-.15.74-.15.4 0 .7.13.87.38.18.24.27.57.27.98v2.02h-.46l-.04-.4h-.03c-.15.14-.32.25-.5.35a1.3 1.3 0 0 1-.59.13m.16-.44c.16 0 .31-.04.45-.11.14-.08.3-.19.45-.33v-.92c-.28.04-.5.08-.7.13-.18.05-.34.1-.45.18a.7.7 0 0 0-.25.23.56.56 0 0 0-.08.29c0 .19.06.32.17.4.11.09.25.13.41.13m3.45.44a1.1 1.1 0 0 1-.45-.08.8.8 0 0 1-.3-.22.9.9 0 0 1-.15-.35 2 2 0 0 1-.05-.44v-1.83h-.48v-.42l.51-.04.07-.92h.47v.93h.89v.45h-.9v1.83q0 .3.12.48c.07.1.2.16.4.16.05 0 .12 0 .19-.03l.18-.06.1.42a2.4 2.4 0 0 1-.6.12m1.25-.08v-3.3h.56v3.3zm.29-3.97a.4.4 0 0 1-.28-.1.34.34 0 0 1-.1-.26c0-.11.03-.2.1-.26a.4.4 0 0 1 .28-.1c.1 0 .2.03.27.1.08.06.11.15.11.26 0 .1-.03.19-.11.25a.38.38 0 0 1-.27.1zm2.67 4.05c-.2 0-.4-.03-.59-.11a1.47 1.47 0 0 1-.82-.88 2.1 2.1 0 0 1-.12-.73c0-.28.04-.52.12-.73.09-.22.2-.4.34-.55a1.42 1.42 0 0 1 1.06-.46 1.47 1.47 0 0 1 1.07.46 1.94 1.94 0 0 1 .46 1.28c0 .27-.04.52-.13.73a1.45 1.45 0 0 1-1.4.99zm0-.46c.14 0 .26-.03.38-.09a.9.9 0 0 0 .3-.25c.09-.12.15-.25.2-.4.04-.16.06-.33.06-.52s-.02-.36-.06-.52c-.05-.15-.11-.29-.2-.4a.8.8 0 0 0-.3-.26.8.8 0 0 0-.38-.1.86.86 0 0 0-.7.35 1.3 1.3 0 0 0-.19.41c-.04.16-.06.33-.06.52 0 .2.02.36.06.52.05.15.11.28.2.4a.85.85 0 0 0 .7.35zm2.4.38v-3.3h.45l.05.48h.02c.16-.16.32-.29.5-.4.17-.1.38-.16.6-.16.36 0 .6.11.77.33q.24.33.24.96v2.1h-.56v-2.02c0-.31-.04-.54-.14-.68-.1-.13-.26-.2-.48-.2a.8.8 0 0 0-.45.12c-.14.09-.28.22-.45.38v2.4h-.56zm4 .08a.4.4 0 0 1-.3-.11.43.43 0 0 1-.11-.3c0-.14.04-.24.11-.32a.4.4 0 0 1 .3-.12c.1 0 .2.04.27.12.08.08.13.18.13.31s-.05.23-.13.3a.38.38 0 0 1-.28.12zm1.4 1.31v-4.69h.45l.05.38h.02c.15-.12.31-.23.5-.32a1.24 1.24 0 0 1 1.13-.01c.15.07.29.19.4.33.1.15.19.33.24.53.06.2.09.44.09.7q0 .42-.12.75c-.07.22-.18.4-.31.56-.13.15-.28.27-.45.35-.18.08-.36.11-.55.11-.15 0-.3-.03-.46-.1-.15-.06-.3-.16-.45-.28v1.69h-.55zm1.36-1.77a.8.8 0 0 0 .37-.1.9.9 0 0 0 .3-.25c.09-.11.15-.25.2-.41a2.36 2.36 0 0 0 .03-1.05 1.1 1.1 0 0 0-.16-.38.7.7 0 0 0-.27-.25.8.8 0 0 0-.4-.09.9.9 0 0 0-.43.12c-.14.07-.29.19-.45.33v1.73c.15.13.3.22.43.27.14.05.27.08.38.08m2.4 1.77v-4.69h.46l.05.38h.02c.15-.12.3-.23.49-.32.18-.1.36-.14.56-.14.21 0 .4.04.56.13.17.07.3.19.4.33.12.15.2.33.25.53a2.46 2.46 0 0 1-.02 1.45c-.08.22-.18.4-.32.56-.13.15-.28.27-.45.35s-.35.11-.54.11c-.16 0-.31-.03-.46-.1-.15-.06-.3-.16-.46-.28l.01.58v1.11zm1.36-1.77a.8.8 0 0 0 .38-.1.9.9 0 0 0 .3-.25c.08-.11.15-.25.19-.41a2.4 2.4 0 0 0 .03-1.05 1 1 0 0 0-.16-.38.7.7 0 0 0-.27-.25.8.8 0 0 0-.4-.09.9.9 0 0 0-.42.12c-.14.07-.3.19-.46.33v1.73c.15.13.3.22.44.27s.26.08.37.08m3.33.46a1.1 1.1 0 0 1-.45-.08.8.8 0 0 1-.3-.22.9.9 0 0 1-.15-.35 2 2 0 0 1-.05-.44v-1.83h-.48v-.42l.51-.04.07-.92h.47v.93h.89v.45h-.9v1.83q0 .3.12.48c.07.1.2.16.4.16.06 0 .12 0 .19-.03l.18-.06.1.42a2.4 2.4 0 0 1-.6.12"/><path fill="#E8E8E8" d="M242.75 413.54h354.62v.42H242.75z"/><path fill="#fff" stroke="#E8E8E8" stroke-width=".75" d="M224.39 391.5c0-.62.5-1.12 1.13-1.12h16.41l5.8 5.8v22.44c0 .62-.5 1.13-1.12 1.13h-21.1c-.62 0-1.12-.5-1.12-1.13v-27.11z"/><path fill="#E8E8E8" d="m242.09 390 3.01 3.01 3.01 3.01h-6.02z"/><rect width="18.01" height="10" x="221.03" y="405.33" fill="#FF8000" rx="1.51"/><path fill="#fff" d="M223.5 413.33v-5.4h1.85c.3 0 .58.03.84.1.26.05.48.15.68.29.19.13.34.3.45.53.12.22.18.5.18.82s-.06.6-.18.82c-.1.24-.26.43-.45.57-.2.15-.42.26-.68.34-.25.07-.52.1-.8.1h-.68v1.83h-1.22zm1.21-2.8h.6c.66 0 1-.28 1-.86 0-.28-.1-.48-.27-.6a1.4 1.4 0 0 0-.76-.17h-.57v1.64zm3.72 2.8v-5.4h1.86c.3 0 .57.03.83.1.26.05.49.15.68.29.2.13.35.3.46.53.11.22.17.5.17.82s-.06.6-.17.82c-.11.24-.26.43-.46.57-.2.15-.42.26-.67.34-.25.07-.52.1-.81.1h-.67v1.83zm1.22-2.8h.6c.66 0 .99-.28.99-.86q0-.42-.27-.6a1.4 1.4 0 0 0-.76-.17h-.56v1.64zm4.65 2.8v-4.37h-1.48v-1.03h4.2v1.03h-1.49v4.38h-1.23z"/><circle cx="69.36" cy="434.28" r="23.96" fill="#05F"/><path fill="#FAFAFA" fill-rule="evenodd" d="M86.79 420.73h-1.94v5.56a17.4 17.4 0 0 0-15.49-9.43c-9.62 0-17.42 7.8-17.42 17.42h1.93a15.49 15.49 0 0 1 29.85-5.8h-6.61v1.93h9.68zm-34.85 27.1h1.94v-5.56a17.4 17.4 0 0 0 15.49 9.43c9.62 0 17.42-7.8 17.42-17.42h-1.94A15.49 15.49 0 0 1 55 440.1h6.62v-1.93h-9.68v9.67z" clip-rule="evenodd"/><path fill="#F7B500" fill-rule="evenodd" d="M541.84 273.04c0-2.6 1.73-4.87 4.18-5.44l.34-.07c2.04-.33 4.06.6 5.2 2.34l.12.19.31-.04.36-.02c1.6 0 3.04.93 3.78 2.34l.1.2h.2a5.1 5.1 0 0 1 4.7 4.9v.3a5.1 5.1 0 0 1-5 5.22h-12.75a4.74 4.74 0 0 1-4.62-4.5 4.87 4.87 0 0 1 2.84-4.82l.26-.1v-.05zm8.93-.9-.32-.74a3.56 3.56 0 0 0-4.05-2.13 3.8 3.8 0 0 0-2.85 3.77q0 .465.12.93l.21.9-.91.15a3.09 3.09 0 0 0-2.5 3.32 3.02 3.02 0 0 0 2.91 2.9h12.75c1.8 0 3.28-1.56 3.28-3.5 0-1.93-1.48-3.48-3.28-3.48-.13 0-.25 0-.38.03l-.73.09-.2-.7a2.62 2.62 0 0 0-2.48-1.96c-.27 0-.55.05-.81.15z" clip-rule="evenodd"/><path fill="#05F" fill-rule="evenodd" d="M71.18 77.75a5.7 5.7 0 0 1 4.3-5.61l.36-.07a5.4 5.4 0 0 1 5.37 2.41l.12.2.32-.05.36-.01c1.66 0 3.14.95 3.9 2.41l.1.2.21.01a5.26 5.26 0 0 1 4.84 5.05l.01.31c0 2.96-2.3 5.37-5.15 5.37H72.77a4.88 4.88 0 0 1-4.76-4.63 5.02 5.02 0 0 1 2.93-4.97l.26-.11v-.05zm9.21-.93-.33-.76a3.67 3.67 0 0 0-4.17-2.2c-1.7.4-2.93 2.01-2.93 3.88 0 .33.04.65.11.97l.22.93-.94.15a3.18 3.18 0 0 0-2.56 3.42 3.1 3.1 0 0 0 2.99 2.99h13.14c1.86 0 3.38-1.6 3.38-3.6S87.78 79 85.92 79l-.4.03-.75.1-.2-.73A2.7 2.7 0 0 0 82 76.39c-.28 0-.56.05-.83.15l-.79.28z" clip-rule="evenodd"/><path fill="#B3CCFF" fill-rule="evenodd" d="M23.92 102.92v4.61h-2.3v-4.6H17v-2.32h4.61V96h2.31v4.61h4.62v2.31zm543.94 154.61v4.61h-2.31v-4.61h-4.62v-2.31h4.62v-4.62h2.3v4.62h4.62v2.3h-4.61z" clip-rule="evenodd"/><path fill="#0FC0C5" d="M54.27 368.03a6.5 6.5 0 0 1 6.5-6.5h26.04a6.5 6.5 0 0 1 6.5 6.5v26.03a6.5 6.5 0 0 1-6.5 6.5H60.78a6.5 6.5 0 0 1-6.5-6.5v-26.03z"/><path fill="#fff" fill-rule="evenodd" d="M84.52 371.76h.08l.13.02.08.03.08.05.07.05.05.06c.09.11.13.26.1.42l-.03.1-6.47 16.88c-.1.27-.4.4-.67.3l-.09-.04-3.14-1.91-3.94 3.43a.5.5 0 0 1-.34.13h-.07l-.09-.02-.05-.02-.05-.03-.06-.04-.02-.01a.53.53 0 0 1-.18-.32v-6.05l-6.23-3.78a.54.54 0 0 1 0-.9l.08-.05 20.68-8.27zm-13.57 13.67v4.16l2.8-2.45-2.8-1.7zm12.41-11.4-12.19 10.3 6.69 4.06 5.5-14.37zm-1.62-.02-16.6 6.64 5.07 3.1L81.74 374z" clip-rule="evenodd"/><path fill="#FF5975" d="M103.08 405.44c0-2.7 2.18-4.88 4.88-4.88h19.52c2.7 0 4.88 2.19 4.88 4.88v19.52c0 2.7-2.19 4.89-4.88 4.89h-19.52a4.88 4.88 0 0 1-4.88-4.89z"/><path fill="#fff" fill-rule="evenodd" d="M115.06 419.83a10.4 10.4 0 0 0 3.03 2.08 9.7 9.7 0 0 0 3-1.99c1.98-1.9 3.22-4.6 3.38-8.3-.5-.2-1.05-.4-3.05-1.15l-3.67-1.37h.65l-3.66 1.37-2.52.95c-.3.1-.41.15-.53.2.16 3.58 1.4 6.26 3.37 8.2zm-4.3-8.84 7.32-2.75 7.32 2.75c-.1 9.8-7.32 11.9-7.32 11.9s-7.24-2.37-7.32-11.9" clip-rule="evenodd"/><defs><clipPath id="a"><path fill="#fff" d="M72.62 110.64h74.44v18.73H72.62z"/></clipPath><clipPath id="b"><path fill="#fff" d="M91.34 115.79h55.71v8.43H91.34z"/></clipPath><filter id="c" width="400.01" height="42.84" x="158.32" y="334.58" color-interpolation-filters="sRGB" filterUnits="userSpaceOnUse"><feFlood flood-opacity="0" result="BackgroundImageFix"/><feColorMatrix in="SourceAlpha" values="0 0 0 0 0 0 0 0 0 0 0 0 0 0 0 0 0 0 127 0"/><feOffset/><feGaussianBlur stdDeviation="2.55"/><feColorMatrix values="0 0 0 0 0.101961 0 0 0 0 0.101961 0 0 0 0 0.101961 0 0 0 0.2 0"/><feBlend in2="BackgroundImageFix" result="effect1_dropShadow"/><feBlend in="SourceGraphic" in2="effect1_dropShadow" result="shape"/></filter></defs></svg>