<svg xmlns="http://www.w3.org/2000/svg" fill="none" viewBox="0 0 600 520"><rect width="260.71" height="260.71" x="272.2" y="9" fill="#F2F6FF" rx="24" transform="rotate(67.7 272.2 9)"/><rect width="185.85" height="185.85" x="452.2" y="11" fill="#FAFAFA" rx="24" transform="rotate(74.62 452.2 11)"/><rect width="185.85" height="185.85" x="186.01" y="201" fill="#E5EEFF" rx="24" transform="rotate(52.79 186.01 201)"/><path fill="#1A1A1A" fill-rule="evenodd" d="m341 348 10.86 6.41-2.75 1.83 2.89 3.93-2.75 1.83-2.89-3.93-2.75 1.84z" clip-rule="evenodd"/><g filter="url(#a)"><path fill="#fff" d="M168 99a4 4 0 0 1 4-4h295a4 4 0 0 1 4 4v374a4 4 0 0 1-4 4H172a4 4 0 0 1-4-4z"/><path stroke="#E8E8E8" stroke-width="2" d="M169 99a3 3 0 0 1 3-3h295a3 3 0 0 1 3 3v374a3 3 0 0 1-3 3H172a3 3 0 0 1-3-3z"/></g><path fill="#F4F4F4" d="M193.85 125.33a2.37 2.37 0 0 1 2.37-2.37h188.84a2.37 2.37 0 0 1 0 4.75H196.22a2.37 2.37 0 0 1-2.37-2.38M272 318.5a2.5 2.5 0 0 1 2.5-2.5h130a2.5 2.5 0 1 1 0 5h-130a2.5 2.5 0 0 1-2.5-2.5M193.85 138a2.37 2.37 0 0 1 2.37-2.38h209.94a2.37 2.37 0 0 1 0 4.75H196.22a2.37 2.37 0 0 1-2.37-2.38zM272 331c0-1.1.9-2 2-2h153a2 2 0 1 1 0 4H274a2 2 0 0 1-2-2m-78.15-179.3a2.37 2.37 0 0 1 2.37-2.37h151.92a2.37 2.37 0 0 1 0 4.75H196.22a2.37 2.37 0 0 1-2.37-2.37zM272 344.75a2.37 2.37 0 0 1 2.37-2.38H426.3a2.37 2.37 0 0 1 0 4.75H274.37a2.37 2.37 0 0 1-2.37-2.37M193.85 191.8a2.37 2.37 0 0 1 2.37-2.38H443.1a2.37 2.37 0 0 1 0 4.75H196.22a2.37 2.37 0 0 1-2.37-2.37m0 193.04a2.37 2.37 0 0 1 2.37-2.38H443.1a2.37 2.37 0 0 1 0 4.75H196.22a2.37 2.37 0 0 1-2.37-2.37m0-181.97a2.37 2.37 0 0 1 2.37-2.37h236.32a2.37 2.37 0 0 1 0 4.75H196.22a2.37 2.37 0 0 1-2.37-2.38m0 193.05a2.37 2.37 0 0 1 2.37-2.38h236.32a2.37 2.37 0 0 1 0 4.75H196.22a2.37 2.37 0 0 1-2.37-2.38zm0-181.97a2.37 2.37 0 0 1 2.37-2.37h241.6a2.37 2.37 0 0 1 0 4.75h-241.6a2.37 2.37 0 0 1-2.37-2.38m0 193.05a2.37 2.37 0 0 1 2.37-2.38h241.6a2.37 2.37 0 0 1 0 4.75h-241.6a2.37 2.37 0 0 1-2.37-2.38zm0-181.97a2.37 2.37 0 0 1 2.37-2.38h241.6a2.37 2.37 0 0 1 0 4.75h-241.6a2.37 2.37 0 0 1-2.37-2.37m0 11.07a2.37 2.37 0 0 1 2.37-2.37H422a2.37 2.37 0 0 1 0 4.75H196.22a2.37 2.37 0 0 1-2.37-2.37zm0 11.08a2.37 2.37 0 0 1 2.37-2.37H422a2.37 2.37 0 1 1 0 4.75H196.22a2.37 2.37 0 0 1-2.37-2.38m0 11.08a2.37 2.37 0 0 1 2.37-2.37H422a2.37 2.37 0 1 1 0 4.74H196.22a2.37 2.37 0 0 1-2.37-2.37m0 11.08a2.37 2.37 0 0 1 2.37-2.38H422a2.37 2.37 0 0 1 0 4.75H196.22a2.37 2.37 0 0 1-2.37-2.37m78.15 26.9a2.37 2.37 0 0 1 2.37-2.37h104.45a2.37 2.37 0 0 1 0 4.75H274.37a2.37 2.37 0 0 1-2.37-2.38m0 59.26a2.5 2.5 0 0 1 2.5-2.5h120a2.5 2.5 0 1 1 0 5h-120a2.5 2.5 0 0 1-2.5-2.5m0-48.18a2.37 2.37 0 0 1 2.37-2.38h104.45a2.37 2.37 0 0 1 0 4.75H274.37a2.37 2.37 0 0 1-2.37-2.37"/><rect width="65" height="72" x="194" y="290" fill="#F4F4F4" rx="6"/><rect width="41" height="41" x="208" y="430" fill="#FF8000" rx="4"/><path fill="#fff" fill-rule="evenodd" d="M232.42 440.75h-13.67v15.94h6.83v4.56h13.67v-17.08h-6.84v-3.42zm5.7 4.56v14.8h-11.4v-3.42h5.7v-11.38zm-6.84-1.14v-2.28h-11.4v13.67h11.41v-11.39zm-10.25 5.7a4.56 4.56 0 1 0 9.11 0 4.56 4.56 0 0 0-9.11 0m7.78 1.13a3.42 3.42 0 1 1-3.8-4.5v4.5zm.2-1.14c0-1.7-1.24-3.1-2.86-3.37v3.37H229z" clip-rule="evenodd"/><rect width="41" height="41" x="156" y="471" fill="#F23030" rx="4"/><path fill="#fff" fill-rule="evenodd" d="m168.51 483.51 2.13 8.49-2.13 8.49 8.5-2.12 8.48 2.12-2.12-8.49 2.12-8.49-8.49 2.12zm-1.76-1.76 10.25 2.56 10.25-2.56-2.56 10.25 2.56 10.25-10.25-2.56-10.25 2.56 2.56-10.25z" clip-rule="evenodd"/><rect width="54" height="54" x="143" y="397" fill="#FF5975" rx="4"/><path fill="#fff" fill-rule="evenodd" d="M164.43 431.86a19.2 19.2 0 0 0 5.6 3.84 17.8 17.8 0 0 0 5.55-3.66c3.63-3.51 5.91-8.5 6.2-15.32l-5.62-2.1-6.75-2.54h1.18l-6.75 2.53-4.64 1.74-.98.37c.3 6.6 2.58 11.55 6.21 15.14m-7.93-16.3 13.5-5.06 13.5 5.06c-.16 18.1-13.5 21.94-13.5 21.94s-13.34-4.35-13.5-21.94" clip-rule="evenodd"/><rect width="233" height="91" x="336" y="147" fill="#F4F4F4" rx="6.39"/><path fill="#fff" d="M355.7 166.85a2.85 2.85 0 0 1 2.85-2.85h31.35l11.4 11.4v42.75a2.85 2.85 0 0 1-2.85 2.85h-39.9a2.85 2.85 0 0 1-2.85-2.85z"/><path fill="#E8E8E8" fill-rule="evenodd" d="M358.55 219.57h39.9c.79 0 1.43-.63 1.43-1.42v-42.16l-10.57-10.56h-30.76c-.79 0-1.42.63-1.42 1.42v51.3c0 .79.63 1.42 1.42 1.42M389.9 164h-31.35a2.85 2.85 0 0 0-2.85 2.85v51.3a2.85 2.85 0 0 0 2.85 2.85h39.9a2.85 2.85 0 0 0 2.85-2.85V175.4z" clip-rule="evenodd"/><path fill="#E8E8E8" d="m389.9 164 11.4 11.4h-11.4z"/><rect width="33.7" height="20" x="350.25" y="192.47" fill="#F23030" rx="2.85"/><path fill="#fff" d="M354.55 208.47v-10.22h3.51q.855 0 1.59.18c.49.1.92.28 1.28.55q.555.375.87 1.02c.21.41.32.93.32 1.55 0 .6-.1 1.11-.32 1.55q-.315.66-.87 1.08c-.36.28-.79.5-1.27.63s-.99.2-1.53.2h-1.27v3.47h-2.3zm2.3-5.3H358c1.25 0 1.88-.54 1.88-1.62 0-.54-.17-.91-.5-1.13a2.63 2.63 0 0 0-1.45-.33h-1.06v3.09zm7.04 5.3v-10.22h2.88c.79 0 1.5.1 2.12.3q.945.3 1.62.93c.44.4.79.93 1.03 1.56q.36.96.36 2.28c0 .88-.12 1.64-.36 2.29a4.3 4.3 0 0 1-1.02 1.61c-.44.42-.97.73-1.58.94-.6.21-1.29.31-2.04.31zm2.3-1.86h.44c.44 0 .84-.06 1.2-.17.35-.12.65-.3.9-.55.25-.26.45-.6.58-1.02.15-.42.22-.94.22-1.55 0-.6-.07-1.11-.22-1.52a2.3 2.3 0 0 0-.58-.99 2.1 2.1 0 0 0-.9-.53 4.2 4.2 0 0 0-1.2-.16h-.44zm7.65 1.86v-10.22h6.44v1.95h-4.13v2.37h3.54v1.94h-3.55v3.97h-2.3zm96.06-86.52a3.95 3.95 0 0 1 3.95-3.95h43.45l15.8 15.8v59.25a3.95 3.95 0 0 1-3.95 3.95h-55.3a3.95 3.95 0 0 1-3.95-3.95z"/><path fill="#E8E8E8" fill-rule="evenodd" d="M473.85 195.03h55.3c1.1 0 1.98-.89 1.98-1.98v-58.43l-14.65-14.65h-42.63c-1.09 0-1.98.89-1.98 1.98v71.1c0 1.1.89 1.97 1.98 1.97zM517.3 118h-43.45a3.95 3.95 0 0 0-3.95 3.95v71.1a3.95 3.95 0 0 0 3.95 3.95h55.3a3.95 3.95 0 0 0 3.95-3.95V133.8z" clip-rule="evenodd"/><path fill="#E8E8E8" d="m517.3 118 15.8 15.8h-15.8z"/><rect width="49.9" height="27" x="461.74" y="157.82" fill="#3D99F5" rx="3.95"/><path fill="#fff" d="M467.72 178.82v-14.16h4a9.7 9.7 0 0 1 2.93.41 5.5 5.5 0 0 1 3.67 3.45c.33.9.5 1.94.5 3.16 0 1.21-.17 2.27-.5 3.17s-.8 1.64-1.41 2.24a5.9 5.9 0 0 1-2.2 1.3c-.84.29-1.78.44-2.82.44h-4.17zm3.19-2.58h.6c.62 0 1.17-.08 1.66-.24.5-.16.91-.41 1.26-.76.35-.36.62-.83.8-1.41.2-.58.3-1.3.3-2.15 0-.84-.1-1.55-.3-2.11a3.25 3.25 0 0 0-.8-1.37c-.35-.35-.77-.6-1.26-.74a5.8 5.8 0 0 0-1.65-.21h-.61zm16.35 2.85a5.84 5.84 0 0 1-4.65-1.98c-.56-.64-1-1.41-1.32-2.33a9.8 9.8 0 0 1-.46-3.1c0-1.16.16-2.19.46-3.09a6.4 6.4 0 0 1 1.32-2.28 5.5 5.5 0 0 1 2.02-1.41c.8-.33 1.68-.5 2.63-.5.96 0 1.83.17 2.61.5q1.2.48 2.04 1.41c.57.62 1 1.4 1.3 2.3.33.9.49 1.92.49 3.07a9.4 9.4 0 0 1-.48 3.1 6.6 6.6 0 0 1-1.3 2.33 5.8 5.8 0 0 1-2.05 1.48c-.78.33-1.65.5-2.6.5zm0-2.76c.98 0 1.74-.42 2.3-1.24.57-.84.85-1.98.85-3.41q0-2.13-.84-3.33a2.68 2.68 0 0 0-2.3-1.2c-.98 0-1.74.4-2.3 1.2-.57.8-.86 1.9-.86 3.33s.29 2.57.85 3.4a2.65 2.65 0 0 0 2.3 1.25m15.01 2.76a6.23 6.23 0 0 1-4.65-1.85 6.6 6.6 0 0 1-1.41-2.26 8.8 8.8 0 0 1-.52-3.15c0-1.17.18-2.22.54-3.13.36-.93.84-1.7 1.45-2.34a6.1 6.1 0 0 1 2.13-1.46c.81-.33 1.67-.5 2.57-.5s1.73.19 2.45.56a6.6 6.6 0 0 1 1.8 1.29l-1.69 2.04a5 5 0 0 0-1.15-.8 3.01 3.01 0 0 0-2.72 0c-.42.2-.79.5-1.1.88-.31.4-.56.87-.74 1.44-.18.56-.27 1.2-.27 1.91 0 1.46.32 2.6.94 3.41.62.8 1.46 1.2 2.5 1.2.58 0 1.1-.13 1.54-.37a4.9 4.9 0 0 0 1.22-.96l1.7 2a5.75 5.75 0 0 1-4.6 2.09zM449.2 211.1a3.1 3.1 0 0 1 3.1-3.1h34.1l12.4 12.4v46.5a3.1 3.1 0 0 1-3.1 3.1h-43.4a3.1 3.1 0 0 1-3.1-3.1z"/><path fill="#E8E8E8" fill-rule="evenodd" d="M452.3 268.45h43.4c.86 0 1.55-.7 1.55-1.55v-45.86l-11.5-11.49H452.3c-.86 0-1.55.7-1.55 1.55v55.8c0 .86.7 1.55 1.55 1.55M486.4 208h-34.1a3.1 3.1 0 0 0-3.1 3.1v55.8a3.1 3.1 0 0 0 3.1 3.1h43.4a3.1 3.1 0 0 0 3.1-3.1v-46.5z" clip-rule="evenodd"/><path fill="#E8E8E8" d="m486.4 208 12.4 12.4h-12.4z"/><rect width="36.2" height="21" x="443.5" y="239.35" fill="#FF8000" rx="3.1"/><path fill="#fff" d="M448.13 256.35v-11.12h3.82c.62 0 1.2.07 1.73.2.53.1 1 .3 1.4.59.4.27.7.64.93 1.1.24.46.36 1.02.36 1.7q0 .96-.36 1.68a3.2 3.2 0 0 1-.94 1.18c-.4.3-.85.53-1.38.68-.52.15-1.08.22-1.67.22h-1.38v3.77h-2.5zm2.51-5.76h1.23c1.36 0 2.05-.6 2.05-1.78 0-.58-.19-.99-.55-1.22a2.87 2.87 0 0 0-1.57-.36h-1.16zm7.66 5.76v-11.12h3.81c.62 0 1.19.07 1.72.2.54.1 1 .3 1.4.59.4.27.71.64.94 1.1.24.46.36 1.02.36 1.7q0 .96-.36 1.68a3.2 3.2 0 0 1-.94 1.18c-.4.3-.86.53-1.38.68s-1.08.22-1.67.22h-1.38v3.77zm2.5-5.76h1.22c1.37 0 2.05-.6 2.05-1.78 0-.58-.18-.99-.54-1.22a2.87 2.87 0 0 0-1.57-.36h-1.16zm9.58 5.76v-9h-3.05v-2.12h8.63v2.12h-3.06v9zm51.22-46.05a2.3 2.3 0 0 1 2.3-2.3h25.3l9.2 9.2v34.5a2.3 2.3 0 0 1-2.3 2.3h-32.2a2.3 2.3 0 0 1-2.3-2.3z"/><path fill="#E8E8E8" fill-rule="evenodd" d="M523.9 252.85h32.2c.64 0 1.15-.51 1.15-1.15v-34.02l-8.52-8.53H523.9c-.63 0-1.15.51-1.15 1.15v41.4c0 .64.52 1.15 1.15 1.15M549.2 208h-25.3a2.3 2.3 0 0 0-2.3 2.3v41.4a2.3 2.3 0 0 0 2.3 2.3h32.2a2.3 2.3 0 0 0 2.3-2.3v-34.5z" clip-rule="evenodd"/><path fill="#E8E8E8" d="m549.2 208 9.2 9.2h-9.2z"/><rect width="25.6" height="16" x="516.85" y="231.05" fill="#0C4" rx="2.3"/><path fill="#fff" d="m519.6 243.05 2.28-4.24-2.15-4h2.08l.72 1.55.27.62.32.7h.05a21 21 0 0 1 .53-1.32l.66-1.56h1.99l-2.14 4.1 2.28 4.15h-2.08l-.82-1.68-.3-.65-.32-.7h-.05a16 16 0 0 1-.56 1.35l-.77 1.68h-2zm8 0v-8.25h1.86v6.68h3.27v1.57zm8.71.15a4.33 4.33 0 0 1-3.05-1.19l1.06-1.27c.3.25.62.45.98.61s.72.25 1.06.25c.39 0 .68-.08.86-.22.2-.14.3-.34.3-.58a.67.67 0 0 0-.33-.57 12 12 0 0 0-.86-.42l-1.08-.45a3.1 3.1 0 0 1-1.15-.8c-.15-.19-.28-.4-.37-.63a2.3 2.3 0 0 1 .68-2.56c.26-.23.57-.4.93-.53a3.77 3.77 0 0 1 3.85.9l-.96 1.17a3.4 3.4 0 0 0-.8-.48 2.2 2.2 0 0 0-.9-.17c-.32 0-.58.06-.78.2a.62.62 0 0 0-.27.54c0 .13.02.24.08.33q.105.135.27.24a4.8 4.8 0 0 0 .9.4l1.06.44c.5.2.9.48 1.19.83.3.36.44.82.44 1.4a2.33 2.33 0 0 1-.82 1.8 3.1 3.1 0 0 1-.97.56c-.4.13-.83.2-1.32.2"/><path fill="#9E9E9E" d="m439.5 196.17-8.75-7.97 1.3-1.2L443 197l-10.95 10-1.3-1.2 8.76-7.97H415v-1.66z"/><path fill="#fff" fill-rule="evenodd" d="m539.32 363.94 19.46 27.8-22.65-4a1 1 0 0 1-.8-1.15zm-73.28 23.23 27.8 19.47-22.64 3.99a1 1 0 0 1-1.16-.81z" clip-rule="evenodd" opacity=".3"/><path fill="#CDF" fill-rule="evenodd" d="M143.84 340.6a1 1 0 0 1 .88-1.1 29 29 0 0 0 3.25-.6 1 1 0 1 1 .47 1.95q-1.68.405-3.48.63a1 1 0 0 1-1.12-.87zm3.33-185.56c.07 2.23.17 4.45.37 6.64a1 1 0 0 1-2 .17c-.2-2.24-.3-4.5-.37-6.75a1 1 0 1 1 2-.06M146 144.89a1 1 0 0 1-1.03-.97c-.03-1.13-.07-2.24-.13-3.33a52 52 0 0 1-.06-3.3 1 1 0 1 1 2 .02q-.03 1.65.06 3.18c.06 1.1.1 2.23.13 3.37a1 1 0 0 1-.97 1.03m2.24 26.9a1 1 0 0 1 1.25.66c.32 1.05.7 2.07 1.1 3.06.48 1.11.88 2.25 1.25 3.38a1 1 0 1 1-1.9.62c-.36-1.1-.74-2.18-1.18-3.22a35 35 0 0 1-1.18-3.25 1 1 0 0 1 .66-1.25m-1.64-44.26a1 1 0 0 1-.82-1.15c.34-2.11.78-4.27 1.3-6.43a1 1 0 1 1 1.95.47 86 86 0 0 0-1.28 6.28 1 1 0 0 1-1.15.83m11.1 208.2a1 1 0 0 1 .23-1.4 35 35 0 0 0 5-4.37 1 1 0 1 1 1.45 1.38 37 37 0 0 1-5.29 4.62 1 1 0 0 1-1.4-.23zm-5.23-139.27c.05 2.07.2 4.19.43 6.26a1 1 0 1 1-1.99.22c-.23-2.12-.39-4.3-.44-6.43a1 1 0 1 1 2-.05m1 15.84a1 1 0 0 1 1.21.73c.28 1.12.56 2.12.85 2.98.33 1 .68 2.01 1.04 3.03a1 1 0 1 1-1.89.67l-1.05-3.07c-.3-.92-.6-1.97-.89-3.13a1 1 0 0 1 .73-1.21m-1.36-25.37a1 1 0 0 1-.72-1.22 14.6 14.6 0 0 1 3.18-6.16 1 1 0 0 1 1.5 1.32 12.6 12.6 0 0 0-2.74 5.34 1 1 0 0 1-1.22.72m2.55 2.31a1 1 0 0 1 1.38.3c.6.9 1.28 1.75 2.09 2.54.5.48 1.07.92 1.72 1.32a1 1 0 1 1-1.05 1.7c-.76-.47-1.45-1-2.06-1.59-.93-.9-1.7-1.86-2.37-2.88a1 1 0 0 1 .29-1.39m-3.76-78.44a1 1 0 0 1-.57-1.3 77 77 0 0 1 2.6-6.03 1 1 0 1 1 1.8.87 75 75 0 0 0-2.54 5.88 1 1 0 0 1-1.29.58m8.24 117.67a1 1 0 0 1 1.3.53c.84 1.97 1.7 3.93 2.6 5.87a1 1 0 1 1-1.8.84 201 201 0 0 1-2.64-5.93 1 1 0 0 1 .54-1.31m10.8 93.9a1 1 0 0 1-.35-1.37 73 73 0 0 0 3.16-5.97 1 1 0 1 1 1.81.86 75 75 0 0 1-3.25 6.13 1 1 0 0 1-1.37.35m-3.5-78.34a1 1 0 0 1 1.36.42c.5.95 1.01 1.9 1.52 2.82a190 190 0 0 1 1.28 2.34 1 1 0 0 1-1.76.94c-.42-.78-.84-1.55-1.27-2.31l-1.54-2.85a1 1 0 0 1 .41-1.35zm-7.7-148.61a1 1 0 0 1-.22-1.4 45 45 0 0 1 4.27-5.07 1 1 0 1 1 1.43 1.4 43 43 0 0 0-4.08 4.85 1 1 0 0 1-1.4.22m5.48 80.33a1 1 0 0 1 .92-1.07c1.15-.08 2.32-.08 3.5 0 1.27.1 2.4.37 3.38.8a1 1 0 1 1-.81 1.83 8 8 0 0 0-2.72-.63 21.4 21.4 0 0 0-3.2 0 1 1 0 0 1-1.07-.93m1.64 20.72a1 1 0 0 1 1.06-.95c1.55.09 3.05-.07 4.36-.49a1 1 0 0 1 .6 1.91c-1.58.5-3.33.67-5.07.58a1 1 0 0 1-.95-1.05m7.38 60.61a1 1 0 0 1 1.32.5 113 113 0 0 1 2.12 4.9 1 1 0 0 1-1.85.75c-.66-1.63-1.35-3.24-2.08-4.82a1 1 0 0 1 .49-1.33m4.38 48.76a1 1 0 0 1-.61-1.28c.38-1.08.74-2.16 1.09-3.22.27-.83.51-1.65.72-2.48a1 1 0 0 1 1.94.5c-.22.87-.48 1.74-.76 2.6a154 154 0 0 1-1.1 3.27 1 1 0 0 1-1.28.6zm.75-35.6a1 1 0 0 1 1.24.68c.5 1.73.94 3.47 1.31 5.22a1 1 0 0 1-1.96.4 70 70 0 0 0-1.27-5.06 1 1 0 0 1 .69-1.24zm2.7 21.15a1 1 0 0 1-.94-1.06c.1-1.72.09-3.46 0-5.19a1 1 0 1 1 1.99-.1q.15 2.7 0 5.4a1 1 0 0 1-1.05.95m-4.48-99.88a1 1 0 0 1-.78-1.18c.13-.63.19-1.34.14-2.13a37 37 0 0 0-.27-3.05 1 1 0 1 1 1.98-.27c.15 1.07.23 2.15.29 3.21.05.95-.01 1.82-.18 2.64a1 1 0 0 1-1.18.78m-5.31-107.8a1 1 0 0 1 .46-1.33c1.01-.49 2.05-.91 3.12-1.27a84 84 0 0 1 4.04-1.25 1 1 0 1 1 .54 1.92c-1.3.37-2.6.77-3.94 1.22-.99.33-1.95.73-2.89 1.18a1 1 0 0 1-1.33-.46zm20.59-5.31a1 1 0 0 1 .9-1.09c1.38-.13 2.78-.23 4.21-.3a1 1 0 1 1 .1 1.99c-1.4.07-2.78.17-4.12.3a1 1 0 0 1-1.1-.9zm8.81 8.65a1.5 1.5 0 0 1-.49-2.06 20.6 20.6 0 0 1 7.17-7.29 21.8 21.8 0 0 1-7.12-6.62 1.5 1.5 0 0 1 2.52-1.62c2.3 3.58 6.29 5.9 7.95 6.6.04.01.09.03.13.06a1.51 1.51 0 0 1 .9 2.42c-.1.14-.27.3-.35.38l-.02.02a1.5 1.5 0 0 1-.45.3c-3.68 1.62-6.07 3.92-8.17 7.32a1.5 1.5 0 0 1-2.07.5z" clip-rule="evenodd"/><path fill="#05F" fill-rule="evenodd" d="m141.1 346.93-3.39 10.47a7.17 7.17 0 0 0 4.57 8.95 6.95 6.95 0 0 0 8.9-4.4 7.17 7.17 0 0 0-9.61-8.76l2.64-8.15 15.47-9.4-1.6-.32a4.7 4.7 0 0 0-3.38.57l-9.37 5.7 3.38-10.43a4.7 4.7 0 0 0-.21-3.43l-.69-1.47-5.58 17.21-7.32 4.45a7.17 7.17 0 0 0-10.75-7.33 6.95 6.95 0 0 0-2.22 9.67 7.17 7.17 0 0 0 9.76 2.39zm-17.16 2.12a4.78 4.78 0 0 0 6.5 1.59 4.63 4.63 0 0 0 1.49-6.45 4.78 4.78 0 0 0-6.51-1.58 4.63 4.63 0 0 0-1.48 6.44M143 364.13a4.64 4.64 0 0 0 5.93-2.93 4.78 4.78 0 0 0-3.05-5.97 4.64 4.64 0 0 0-5.93 2.93 4.78 4.78 0 0 0 3.05 5.97" clip-rule="evenodd"/><path fill="#05F" d="m137.71 357.4-.53-.17zm3.4-10.47.53.17.47-1.44-1.3.79zm1.17 19.42.18-.53zm8.9-4.4.53.18-.53-.17zm-4.57-8.94.18-.53zm-5.04.18-.53-.18-.38 1.17 1.13-.48zm2.64-8.15-.29-.48-.18.11-.06.2zm15.47-9.4.29.48 1.22-.74-1.4-.29zm-1.6-.32.12-.55-.11.55zm-3.38.57-.3-.47zm-9.37 5.7-.53-.17-.47 1.43 1.3-.78zm3.38-10.43-.53-.17zm-.21-3.43.5-.24zm-.69-1.47.51-.24-.6-1.29-.44 1.36zm-5.58 17.21.29.48.18-.1.06-.2zm-7.32 4.45-.55-.1-.2 1.22 1.04-.64zm-.98-4.94.47-.3zm-9.77-2.38.3.47zm-2.22 9.66.47-.3zm9.76 2.39.3.48zm6.55 4.92 3.4-10.47-1.07-.35-3.4 10.48 1.06.34zm4.2 8.25a6.61 6.61 0 0 1-4.2-8.25l-1.07-.34a7.73 7.73 0 0 0 4.92 9.65l.36-1.06zm8.2-4.04a6.4 6.4 0 0 1-8.2 4.04l-.35 1.06c4 1.36 8.31-.76 9.6-4.75l-1.06-.35zm-4.22-8.24a6.61 6.61 0 0 1 4.21 8.24l1.07.35a7.73 7.73 0 0 0-4.92-9.65zm-4.64.16c1.4-.6 3.05-.7 4.64-.16l.36-1.06a7.6 7.6 0 0 0-5.44.19zm1.89-8.83-2.64 8.14 1.06.35 2.64-8.15zm15.7-9.7-15.46 9.4.58.95 15.47-9.4-.59-.96zm-1.4.7 1.58.32.23-1.1-1.59-.32zm-3 .5a4.14 4.14 0 0 1 3-.5l.22-1.1a5.26 5.26 0 0 0-3.8.65l.59.95zm-9.36 5.7 9.37-5.7-.58-.95-9.37 5.69zm2.56-11.08-3.38 10.43 1.06.34 3.39-10.43zm-.2-3.03c.45.96.52 2.04.2 3.03l1.07.34c.4-1.25.32-2.63-.25-3.84l-1.01.47zm-.67-1.46.68 1.46 1.01-.47-.68-1.47zm-4.55 17.15 5.59-17.22-1.07-.34-5.58 17.21zm-7.56 4.75 7.32-4.45-.58-.95-7.32 4.44zm-1.75-5.13a6.5 6.5 0 0 1 .91 4.56l1.1.19a7.6 7.6 0 0 0-1.06-5.34l-.95.6zm-9-2.2a6.61 6.61 0 0 1 9 2.2l.95-.6a7.73 7.73 0 0 0-10.53-2.55zm-2.04 8.9a6.4 6.4 0 0 1 2.05-8.9l-.59-.95a7.51 7.51 0 0 0-2.4 10.44l.94-.6zm9 2.2a6.61 6.61 0 0 1-9-2.2l-.95.6a7.73 7.73 0 0 0 10.53 2.56zm9.4-5.72-9.4 5.72.58.95 9.41-5.71-.58-.96zm-17.35 2.9a5.34 5.34 0 0 0 7.28 1.77l-.59-.96a4.22 4.22 0 0 1-5.74-1.4zm7.28 1.77a5.2 5.2 0 0 0 1.66-7.22l-.95.59a4.08 4.08 0 0 1-1.3 5.67zm1.66-7.22a5.34 5.34 0 0 0-7.27-1.77l.58.95a4.22 4.22 0 0 1 5.74 1.41l.95-.6zm-7.27-1.77a5.2 5.2 0 0 0-1.67 7.22l.95-.6a4.07 4.07 0 0 1 1.3-5.67zm17.69 22.53a5.2 5.2 0 0 0 6.64-3.29l-1.06-.35a4.08 4.08 0 0 1-5.22 2.58zm6.64-3.29a5.34 5.34 0 0 0-3.4-6.67l-.36 1.06c2.2.74 3.4 3.1 2.7 5.26zm-3.4-6.67a5.2 5.2 0 0 0-6.64 3.29l1.07.34a4.08 4.08 0 0 1 5.21-2.57zm-6.64 3.29a5.34 5.34 0 0 0 3.4 6.67l.36-1.06a4.22 4.22 0 0 1-2.7-5.27z"/><path fill="#FFB700" fill-rule="evenodd" d="M460.66 489.7v5.52H459v-8.25h8.26v1.64h-5.36a13.13 13.13 0 0 0 10.28 4.96c7.28 0 13.17-5.91 13.17-13.2a13.2 13.2 0 0 0-5.86-11l.91-1.37c3.98 2.66 6.6 7.2 6.6 12.36 0 8.2-6.63 14.86-14.82 14.86-4.65 0-8.8-2.15-11.52-5.52m-22.79.68a.88.88 0 1 1-1.25-1.25l1.87-1.87a.88.88 0 0 1 1.25 1.25zm-5.61-1.87a.88.88 0 0 1 1.25-1.25l1.87 1.87a.88.88 0 1 1-1.25 1.25zm4.36 4.36a.88.88 0 1 1 1.25-1.25l1.87 1.87a.88.88 0 0 1-1.25 1.25zm-4.36 1.87c.34.35.9.35 1.25 0l1.87-1.87a.88.88 0 1 0-1.25-1.25l-1.87 1.87a.88.88 0 0 0 0 1.25m20.61-38.36a.88.88 0 1 1-1.25-1.25l1.87-1.87a.88.88 0 0 1 1.25 1.25zm-5.61-1.87a.88.88 0 0 1 1.25-1.25l1.87 1.87a.88.88 0 1 1-1.25 1.25zm4.36 4.36a.88.88 0 1 1 1.25-1.25l1.87 1.87a.88.88 0 0 1-1.25 1.25zm-4.36 1.87c.34.35.9.35 1.25 0l1.87-1.87a.88.88 0 1 0-1.25-1.25l-1.87 1.87a.88.88 0 0 0 0 1.25" clip-rule="evenodd"/><defs><filter id="a" width="305.11" height="384.11" x="166.94" y="93.94" color-interpolation-filters="sRGB" filterUnits="userSpaceOnUse"><feFlood flood-opacity="0" result="BackgroundImageFix"/><feColorMatrix in="SourceAlpha" values="0 0 0 0 0 0 0 0 0 0 0 0 0 0 0 0 0 0 127 0"/><feOffset/><feGaussianBlur stdDeviation=".53"/><feColorMatrix values="0 0 0 0 0.101961 0 0 0 0 0.101961 0 0 0 0 0.101961 0 0 0 0.2 0"/><feBlend in2="BackgroundImageFix" result="effect1_dropShadow"/><feBlend in="SourceGraphic" in2="effect1_dropShadow" result="shape"/></filter></defs></svg>